<?xml version="1.0" standalone="no"?>
<!DOCTYPE svg PUBLIC "-//W3C//DTD SVG 20010904//EN"
 "http://www.w3.org/TR/2001/REC-SVG-20010904/DTD/svg10.dtd">
<!-- <svg version="1.0" xmlns="http://www.w3.org/2000/svg" width="305.000000pt" height="400.000000pt" viewBox="0 0 605.000000 800.000000" preserveAspectRatio="xMidYMid meet"> -->

<svg version="1.0" 
        xmlns="http://www.w3.org/2000/svg" width="100%" height="100%" viewBox="0 0 605.000000 600.000000" preserveAspectRatio="xMidYMid meet">


        <g transform="translate(0.000000,800.000000) scale(0.100000,-0.100000)" fill="white" stroke="white" stroke-width="10" stroke-opacity="0.4">
                <path d="M3030 7365 c-14 -16 -10 -18 14 -9 9 3 16 10 16 15 0 14 -16 11 -30
-6z"/>
                <path d="M2833 7341 c-13 -9 -14 -15 -5 -18 6 -3 12 -9 12 -15 0 -5 -6 -8 -12
-5 -7 2 -26 -7 -42 -20 -16 -13 -31 -21 -34 -18 -4 3 9 19 28 35 19 16 31 32
27 36 -3 4 -23 -8 -43 -25 -20 -18 -42 -30 -50 -27 -8 3 -11 0 -7 -10 6 -16
-5 -18 -27 -4 -13 9 -13 12 3 24 10 8 27 12 37 9 22 -6 26 7 8 25 -18 18 -32
15 -64 -14 -16 -14 -42 -32 -59 -40 -16 -7 -24 -13 -17 -14 10 0 10 -5 1 -21
-7 -13 -17 -19 -29 -16 -11 3 -32 -7 -52 -23 -21 -18 -55 -32 -88 -38 -30 -6
-57 -17 -62 -26 -10 -19 -35 -21 -40 -4 -6 18 -28 -1 -28 -24 0 -17 2 -18 15
-8 23 19 18 -1 -7 -27 -12 -13 -16 -23 -10 -23 7 0 12 4 12 10 0 5 10 9 23 8
27 -2 70 25 102 66 13 17 27 27 31 23 4 -4 -1 -16 -11 -27 -20 -22 -20 -22 12
-39 19 -10 29 -7 72 25 49 35 71 37 71 8 0 -15 25 -19 34 -5 8 12 56 20 56 10
0 -15 15 -10 38 11 22 21 44 28 24 8 -18 -18 -14 -31 8 -25 10 3 21 0 23 -6 4
-12 19 -3 87 50 34 27 34 27 15 3 -10 -14 -35 -42 -54 -62 -19 -21 -30 -38
-24 -38 6 0 26 16 44 35 40 42 55 44 62 9 4 -21 -4 -32 -41 -62 -25 -20 -54
-45 -64 -55 -11 -10 -21 -17 -24 -15 -2 3 21 29 51 59 53 53 74 85 36 58 -84
-62 -141 -109 -168 -139 -35 -37 -45 -64 -15 -37 23 21 43 22 36 2 -5 -11 -2
-13 10 -9 9 3 16 10 16 15 0 12 47 11 55 -1 11 -18 60 -11 74 11 9 15 10 24 2
28 -12 8 22 51 41 51 6 0 3 -9 -7 -20 -10 -11 -15 -23 -12 -27 4 -3 41 29 82
72 42 43 79 75 82 71 4 -4 -23 -37 -61 -75 -37 -37 -66 -73 -64 -79 2 -6 -6
-18 -17 -26 -16 -12 -17 -15 -4 -16 9 0 19 3 23 8 4 4 18 7 29 7 15 0 22 6 22
20 0 18 6 21 34 17 5 -1 11 -12 14 -23 5 -18 11 -20 34 -14 15 3 35 13 44 21
8 8 18 14 21 14 10 0 16 -38 7 -49 -6 -8 -5 -8 3 -1 7 6 23 10 36 10 13 0 33
5 44 11 14 8 23 8 31 0 17 -17 52 -13 72 9 21 23 44 28 25 5 -10 -12 -10 -18
1 -32 7 -10 14 -20 16 -22 1 -2 14 6 29 18 32 25 52 28 33 4 -13 -15 -11 -16
13 -10 17 5 28 3 30 -5 5 -14 58 15 58 32 0 6 5 10 12 10 6 0 3 -9 -7 -20 -14
-16 -15 -20 -4 -20 8 0 20 5 27 12 9 9 12 9 12 0 0 -7 -4 -12 -10 -12 -5 0
-10 -5 -10 -11 0 -6 9 -8 20 -4 12 4 28 1 36 -6 11 -9 18 -9 26 -1 8 8 26 -1
68 -34 31 -24 61 -44 67 -44 13 0 43 -44 43 -63 0 -7 11 -19 24 -27 14 -7 27
-24 31 -39 4 -14 15 -34 26 -44 10 -10 19 -25 19 -34 0 -10 6 -14 20 -10 16 4
18 2 11 -11 -10 -20 -7 -30 30 -108 16 -34 29 -71 29 -83 0 -11 5 -21 10 -21
6 0 10 -8 10 -18 0 -10 9 -37 20 -60 11 -22 20 -46 20 -52 0 -5 4 -10 9 -10 5
0 11 -12 13 -27 3 -28 4 -28 52 25 27 28 55 52 62 52 19 0 23 -24 9 -50 -10
-18 -10 -30 -3 -45 15 -27 19 -83 7 -90 -5 -4 -9 -13 -9 -22 0 -14 4 -13 23 5
13 12 26 22 30 22 19 0 2 -26 -53 -79 -39 -39 -56 -62 -49 -67 7 -4 29 12 55
40 24 25 47 46 52 46 5 0 9 -24 9 -52 0 -76 13 -138 29 -138 23 0 16 -16 -30
-67 -44 -47 -45 -48 -61 -28 -9 11 -21 33 -27 48 -5 15 -15 26 -22 24 -11 -4
-10 -58 2 -67 4 -3 8 -21 9 -40 1 -19 6 -36 12 -38 6 -2 8 -16 5 -31 -3 -16 0
-39 7 -52 7 -14 12 -50 11 -83 -2 -46 1 -61 15 -71 15 -11 15 -15 4 -29 -12
-14 -11 -19 5 -31 18 -14 18 -16 2 -29 -17 -12 -17 -14 1 -30 11 -10 23 -35
26 -57 4 -21 11 -39 16 -39 5 0 9 -9 9 -20 0 -12 7 -20 16 -20 11 0 15 -6 11
-19 -3 -14 -1 -18 10 -14 13 5 13 1 -1 -25 -9 -17 -16 -38 -16 -47 0 -12 -6
-15 -20 -10 -16 5 -20 2 -20 -19 0 -33 18 -33 49 -1 13 14 26 24 28 21 8 -7
-19 -50 -49 -78 -15 -14 -28 -34 -28 -43 0 -14 3 -14 27 4 14 12 28 19 31 16
3 -3 -1 -11 -10 -18 -26 -21 -69 -85 -61 -90 15 -8 58 0 56 11 -6 24 17 62 36
62 15 0 22 9 26 38 3 20 13 52 21 70 17 40 18 59 2 64 -16 6 42 110 70 123 37
19 53 38 49 56 -3 10 1 23 9 30 20 16 17 32 -6 47 -17 10 -18 15 -8 32 10 15
10 26 0 53 -7 18 -12 52 -12 74 0 26 -6 46 -18 57 -15 13 -18 27 -15 76 3 43
1 60 -8 60 -8 0 -4 9 8 23 15 16 20 37 21 79 1 59 30 118 58 118 6 0 19 12 29
26 16 25 16 26 -4 19 -29 -9 -26 5 8 37 25 26 27 33 23 84 -3 41 -1 59 9 66
11 7 11 11 2 15 -7 2 -13 11 -13 19 0 8 -7 14 -15 14 -8 0 -15 5 -15 10 0 6 7
10 15 10 17 0 21 26 4 32 -5 2 -13 23 -16 46 -5 37 -10 44 -33 48 -23 5 -26
10 -22 35 3 17 0 29 -7 29 -6 0 -11 6 -11 14 0 7 -7 19 -15 26 -8 7 -13 16
-10 20 3 4 -5 20 -16 34 -15 19 -27 25 -40 21 -14 -5 -17 -2 -13 9 5 12 2 15
-12 9 -14 -5 -16 -3 -11 11 5 14 3 17 -8 12 -10 -4 -15 1 -15 14 0 11 -6 20
-14 20 -8 0 -18 9 -21 20 -3 11 -11 20 -17 20 -21 0 -78 33 -78 45 0 14 -96
49 -120 43 -7 -2 -16 8 -20 22 -7 29 -64 62 -97 56 -29 -4 -29 13 -3 47 31 39
24 42 -20 7 -23 -18 -44 -30 -47 -26 -4 3 -1 12 5 18 18 18 14 32 -4 17 -15
-12 -16 -11 -10 8 9 28 -10 39 -41 22 -22 -12 -26 -11 -44 11 -10 14 -18 30
-17 35 2 20 -14 44 -27 39 -7 -3 -23 0 -35 6 -18 9 -20 17 -14 43 6 29 5 30
-10 18 -22 -19 -33 -6 -12 14 30 30 17 48 -14 20 -15 -14 -19 -14 -29 -1 -9
11 -10 20 -1 35 16 32 -2 25 -40 -14 -18 -19 -37 -32 -41 -29 -4 2 -10 0 -14
-6 -9 -15 -25 -12 -25 5 0 8 -9 15 -19 15 -11 0 -21 4 -23 8 -1 4 -18 18 -35
31 -19 12 -33 31 -33 42 0 11 -6 19 -12 17 -21 -4 -58 22 -58 40 0 10 14 31
30 47 17 16 26 33 22 37 -14 14 -39 -2 -66 -43 -27 -40 -62 -54 -54 -21 5 19
4 19 -71 24 -29 2 -46 -2 -49 -10 -2 -6 -9 -12 -15 -12 -8 0 -7 4 1 12 23 23
13 38 -23 38 -24 0 -35 -5 -35 -15 0 -9 -9 -15 -21 -15 -16 0 -20 5 -16 20 6
24 -10 26 -41 4 -27 -19 -30 -48 -4 -42 11 3 30 0 43 -7 l24 -13 -27 -13 c-23
-10 -31 -9 -52 5 -14 9 -32 16 -41 16 -24 0 -18 18 12 32 36 18 41 38 9 38
-14 0 -26 -4 -26 -10 0 -19 -52 -60 -75 -60 -20 0 -25 5 -25 25 0 19 5 25 23
25 26 0 66 25 56 35 -13 12 -99 10 -116 -4z m370 -98 c-3 -10 -10 -24 -16 -30
-18 -24 13 -14 38 11 14 14 27 20 31 15 3 -6 12 -8 20 -5 25 10 15 -16 -18
-45 -36 -32 -66 -37 -74 -14 -4 8 -17 15 -31 15 -20 0 -23 4 -18 21 7 20 6 20
-19 4 -23 -15 -26 -15 -26 -2 0 22 19 31 56 29 18 -2 35 2 39 8 10 17 25 11
18 -7z m-208 -23 c-3 -5 -10 -10 -16 -10 -5 0 -9 5 -9 10 0 6 7 10 16 10 8 0
12 -4 9 -10z m325 -39 c0 -13 -70 -64 -78 -56 -4 4 8 20 26 36 32 29 52 37 52
20z m30 -31 c0 -5 -5 -10 -11 -10 -5 0 -7 5 -4 10 3 6 8 10 11 10 2 0 4 -4 4
-10z m60 -19 c0 -5 -9 -11 -20 -14 -22 -6 -28 8 -7 16 19 8 27 8 27 -2z m-446
-33 c3 -17 2 -36 -4 -42 -9 -9 -13 3 -9 30 0 4 -5 10 -11 14 -7 4 -9 13 -6 19
12 19 23 12 30 -21z m346 25 c-1 -16 -28 -43 -44 -43 -20 0 -21 14 0 34 16 16
44 22 44 9z m123 -33 c-3 -11 -9 -18 -13 -15 -4 3 -19 -5 -34 -16 -34 -27 -33
-14 2 21 33 33 52 38 45 10z m177 -35 c-7 -8 -17 -15 -22 -15 -6 0 -5 7 2 15
7 8 17 15 22 15 6 0 5 -7 -2 -15z m-200 -20 c0 -8 -7 -15 -15 -15 -26 0 -18
20 13 29 1 1 2 -6 2 -14z m80 -20 c-7 -9 -15 -13 -18 -10 -3 2 1 11 8 20 7 9
15 13 18 10 3 -2 -1 -11 -8 -20z m-620 -10 c-7 -9 -15 -13 -17 -11 -7 7 7 26
19 26 6 0 6 -6 -2 -15z m330 1 c0 -3 -4 -8 -10 -11 -5 -3 -10 -1 -10 4 0 6 5
11 10 11 6 0 10 -2 10 -4z m540 -120 c0 -3 -4 -8 -10 -11 -5 -3 -10 -1 -10 4
0 6 5 11 10 11 6 0 10 -2 10 -4z m70 -1 c0 -12 -40 -48 -47 -42 -3 4 2 16 13
26 19 19 34 26 34 16z m219 -106 c-16 -10 -23 -4 -14 10 3 6 11 8 17 5 6 -4 5
-9 -3 -15z m-118 -32 c-8 -8 -11 -7 -11 4 0 20 13 34 18 19 3 -7 -1 -17 -7
-23z m215 -63 c-30 -22 -38 -17 -20 12 13 18 20 22 28 14 8 -8 6 -15 -8 -26z
m54 6 c0 -5 -5 -10 -11 -10 -5 0 -7 5 -4 10 3 6 8 10 11 10 2 0 4 -4 4 -10z
m-150 -29 c0 -13 -29 -41 -41 -41 -10 0 -5 13 14 38 11 14 27 16 27 3z m117
-12 c-5 -17 -3 -18 9 -8 31 26 24 -1 -8 -30 -27 -24 -34 -27 -41 -15 -7 12
-12 13 -23 3 -25 -20 -26 -3 -2 23 20 22 56 47 67 48 2 0 1 -9 -2 -21z m-72 1
c3 -6 -2 -13 -12 -17 -10 -4 -21 -11 -25 -17 -4 -6 -10 -7 -14 -3 -8 7 24 47
37 47 4 0 11 -5 14 -10z m153 -47 c4 -28 41 -37 64 -16 24 22 23 8 -4 -36 -11
-20 -15 -30 -8 -23 8 6 21 12 29 12 12 0 11 -3 -2 -18 -19 -21 -23 -37 -6 -26
6 3 15 0 20 -7 6 -11 11 -11 21 -1 20 20 32 13 13 -8 -18 -20 -18 -22 2 -58
12 -20 24 -51 28 -69 3 -17 12 -34 19 -36 15 -6 14 -34 -2 -64 -16 -30 -15
-38 3 -23 23 19 38 0 26 -33 -8 -21 -7 -25 4 -21 10 4 12 0 8 -15 -3 -12 -13
-21 -25 -21 -10 0 -16 5 -13 10 3 6 2 10 -4 10 -21 0 -24 -24 -3 -38 19 -13
19 -15 4 -31 -10 -9 -27 -15 -39 -13 -18 3 -21 8 -13 22 13 25 13 31 -2 28 -9
-2 -12 9 -11 34 2 29 -1 36 -12 31 -8 -3 -15 -1 -15 5 0 5 7 12 15 16 19 7 20
36 1 36 -7 0 -19 -7 -26 -15 -7 -9 -15 -13 -18 -10 -3 3 7 18 22 34 22 23 26
34 20 53 -4 12 -7 31 -5 41 4 26 -7 21 -52 -23 -22 -22 -43 -38 -46 -34 -3 3
11 21 32 40 20 19 37 40 37 47 0 7 5 18 10 25 7 9 7 9 -2 2 -20 -17 -29 -11
-22 15 8 33 -19 44 -46 20 -28 -25 -25 -10 6 31 29 37 26 42 -11 18 -14 -9
-25 -12 -25 -6 0 6 4 14 10 17 5 3 15 16 21 28 12 21 12 21 -15 3 -27 -17 -28
-17 -22 2 4 11 2 23 -4 27 -5 3 -10 -1 -10 -9 0 -21 -19 -30 -26 -13 -3 8 5
31 17 51 24 40 52 45 57 9z m-141 -86 c16 -9 20 -16 13 -27 -14 -21 -12 -30 5
-30 22 0 18 -17 -5 -23 -12 -3 -20 0 -20 8 0 7 -7 16 -16 19 -9 3 -14 13 -10
21 3 8 1 17 -4 20 -14 9 -12 25 3 25 6 -1 22 -6 34 -13z m353 -6 c0 -12 -20
-25 -27 -18 -7 7 6 27 18 27 5 0 9 -4 9 -9z m-256 -56 c-4 -8 -13 -15 -21 -15
-13 0 -13 3 -3 15 7 8 16 15 21 15 5 0 6 -7 3 -15z m-34 -34 c0 -10 -30 -24
-37 -17 -3 3 -2 9 2 15 8 13 35 15 35 2z m344 -29 c-4 -12 -10 -22 -16 -22 -7
0 -7 15 1 60 1 2 5 0 11 -6 5 -5 7 -19 4 -32z m-326 -54 c-22 -27 -44 -48 -49
-48 -15 0 -10 30 6 36 8 4 15 11 15 16 0 6 -7 5 -15 -2 -26 -21 -31 -1 -6 23
16 15 25 18 28 10 3 -7 12 -13 20 -13 10 0 13 6 9 16 -4 9 -1 23 6 31 10 13
13 12 19 -4 4 -12 -6 -32 -33 -65z m43 -11 c-29 -43 -70 -77 -91 -77 -17 0 23
46 72 86 24 18 44 34 46 34 2 0 -11 -20 -27 -43z m339 -56 c-5 -11 -15 -23
-20 -26 -14 -9 -12 19 2 33 19 19 30 14 18 -7z m20 -110 c-11 -22 -69 -66 -76
-58 -5 4 72 77 81 77 3 0 1 -9 -5 -19z m-90 -78 c0 -13 -14 -27 -38 -41 -34
-19 -37 -9 -6 21 26 27 44 34 44 20z m-180 -313 c0 -5 -4 -10 -10 -10 -5 0
-10 5 -10 10 0 6 5 10 10 10 6 0 10 -4 10 -10z m-25 -47 c13 -31 16 -81 5 -88
-5 -3 -10 3 -10 14 0 12 -9 30 -21 42 -22 22 -19 49 5 49 7 0 17 -8 21 -17z
m22 -150 c-4 -3 -2 -12 4 -19 12 -14 -4 -29 -21 -19 -17 10 -12 45 7 45 9 0
13 -3 10 -7z m9 -78 c-3 -8 -9 -22 -12 -31 -5 -10 0 -17 15 -21 22 -6 28 -27
11 -38 -7 -4 -8 -11 -1 -18 5 -7 12 -28 16 -48 5 -26 2 -39 -9 -49 -22 -18
-25 -12 -31 55 -3 33 -10 64 -15 69 -13 13 -13 52 0 77 12 22 35 26 26 4z m89
-291 c-12 -18 -20 -23 -25 -15 -4 7 -13 11 -21 9 -8 -2 -14 4 -14 12 0 9 13
17 35 20 45 7 46 6 25 -26z"/>
                <path d="M3307 7353 c-4 -3 -7 -11 -7 -17 0 -6 5 -5 12 2 6 6 9 14 7 17 -3 3
-9 2 -12 -2z"/>
                <path d="M3360 7350 c0 -5 4 -10 9 -10 6 0 13 5 16 10 3 6 -1 10 -9 10 -9 0
-16 -4 -16 -10z"/>
                <path d="M3530 7305 c-27 -29 -55 -32 -68 -9 -8 15 -11 15 -36 -1 -34 -23 -33
-40 5 -59 31 -15 31 -15 82 34 29 26 49 51 46 54 -3 3 -16 -5 -29 -19z"/>
                <path d="M3570 7275 c-7 -8 -24 -21 -38 -28 -44 -21 -50 -42 -19 -71 l27 -25
35 41 c19 23 35 46 35 52 0 6 -5 3 -11 -6 -11 -19 -39 -14 -39 7 0 8 9 17 20
20 11 3 20 11 20 16 0 14 -16 11 -30 -6z m-10 -75 c0 -5 -5 -10 -11 -10 -5 0
-7 5 -4 10 3 6 8 10 11 10 2 0 4 -4 4 -10z"/>
                <path d="M3590 7161 c-25 -21 -42 -42 -39 -46 13 -13 74 11 78 31 1 10 10 27
19 37 30 34 -11 18 -58 -22z"/>
                <path d="M2106 7140 c-22 -17 -46 -30 -53 -30 -7 0 -13 -8 -13 -17 0 -24 -57
-83 -80 -83 -22 0 -53 -28 -45 -41 10 -16 22 -10 72 31 26 22 53 45 60 50 7 6
20 10 30 10 34 1 102 77 88 100 -9 15 -16 13 -59 -20z"/>
                <path d="M2204 7121 c3 -5 -2 -8 -12 -7 -23 1 -30 -52 -8 -60 26 -10 64 21 62
51 -1 19 -6 25 -24 25 -13 0 -21 -4 -18 -9z"/>
                <path d="M2076 6999 c-74 -75 -110 -102 -99 -73 5 14 3 15 -16 4 -30 -16 -151
-136 -151 -150 0 -6 -3 -9 -8 -6 -4 2 -7 -12 -7 -32 -1 -41 -45 -115 -99 -162
-22 -21 -31 -37 -32 -64 0 -20 3 -36 8 -36 4 0 8 -4 8 -10 0 -5 -7 -7 -15 -4
-11 5 -15 -1 -15 -19 0 -14 -4 -29 -10 -32 -5 -3 -10 -15 -10 -26 0 -10 -7
-19 -15 -19 -8 0 -15 -9 -15 -21 0 -11 -5 -29 -11 -40 -26 -50 4 -38 61 24 35
37 67 67 71 67 22 0 5 -31 -33 -64 -66 -56 -79 -70 -89 -88 -21 -38 14 -16 82
52 38 39 74 70 80 70 6 0 -15 -29 -46 -65 -32 -36 -63 -65 -70 -65 -7 0 -15
-7 -19 -15 -16 -42 62 10 132 87 41 44 72 61 72 38 0 -5 12 -3 28 5 15 7 40
18 55 24 22 9 27 16 22 31 -5 15 0 22 17 30 38 16 74 53 87 90 8 19 31 51 53
71 33 30 37 37 25 48 -12 10 -22 4 -52 -34 -36 -44 -65 -58 -65 -32 0 19 29
57 44 57 15 0 44 30 60 62 6 12 24 25 40 29 16 5 41 20 57 35 l28 26 3 -31 3
-32 53 49 c28 26 52 50 52 53 0 4 16 23 35 44 20 20 43 51 52 68 l16 32 -37
-33 c-20 -17 -40 -32 -45 -32 -4 0 -20 -11 -36 -26 -15 -14 -30 -23 -33 -20
-3 3 7 15 21 27 15 11 27 27 27 34 0 8 9 17 20 20 20 6 26 20 13 28 -5 2 -3 2
4 1 7 -2 22 10 33 26 24 34 14 39 -21 11 -13 -10 -28 -20 -34 -22 -5 -2 -9
-10 -9 -17 1 -7 -3 -11 -10 -9 -16 6 -66 -25 -66 -40 0 -7 5 -13 10 -13 6 0
10 -4 10 -8 0 -5 -24 -7 -53 -4 -45 3 -57 1 -82 -20 -17 -14 -38 -28 -48 -31
-11 -4 -15 -12 -11 -19 4 -7 3 -10 -1 -5 -14 12 -55 -35 -55 -64 0 -17 -9 -32
-25 -43 -14 -9 -25 -26 -25 -37 0 -11 -13 -34 -30 -51 -32 -31 -32 -31 -32 20
0 32 -1 33 -17 18 -18 -17 -41 -21 -41 -8 0 4 20 29 45 55 55 59 59 80 8 41
-35 -26 -36 -26 -20 -4 9 13 14 33 11 45 -4 15 3 27 25 43 29 21 43 18 21 -4
-7 -7 0 -9 21 -8 28 2 68 24 43 24 -6 0 -15 -5 -22 -12 -8 -8 -12 -8 -12 -1 0
6 7 16 16 24 8 7 14 20 11 28 -2 9 5 25 15 36 16 16 18 17 13 2 -7 -17 9 -24
19 -8 3 4 18 11 34 14 16 3 34 17 42 32 15 29 35 28 34 -2 0 -15 5 -19 23 -15
28 5 93 92 69 92 -8 0 -16 -3 -18 -7 -2 -5 -17 -19 -33 -33 -27 -23 -27 -21 4
12 38 41 36 65 -2 30 -25 -23 -46 -29 -48 -12 -1 6 -2 15 -3 22 -3 26 -24 13
-90 -53z m174 -155 c0 -8 5 -12 11 -8 7 4 10 -1 7 -11 -4 -23 -28 -32 -28 -11
0 9 -4 16 -9 16 -13 0 -81 -67 -81 -80 0 -5 -4 -10 -10 -10 -20 0 -9 18 41 69
52 53 69 62 69 35z m-100 -33 c0 -5 -12 -16 -26 -26 l-25 -16 16 25 c17 26 35
34 35 17z m-320 -191 c0 -5 -5 -10 -11 -10 -5 0 -7 5 -4 10 3 6 8 10 11 10 2
0 4 -4 4 -10z m100 -160 c-28 -22 -40 -25 -40 -10 0 6 7 10 15 10 8 0 15 5 15
10 0 6 8 10 18 10 14 0 12 -4 -8 -20z m-110 -44 c0 -2 -7 -9 -15 -16 -13 -11
-14 -10 -9 4 5 14 24 23 24 12z"/>
                <path d="M2650 7040 c-8 -5 -24 -7 -36 -4 -16 4 -27 -2 -43 -25 -15 -20 -27
-28 -38 -24 -13 5 -15 1 -10 -18 4 -18 -1 -31 -24 -53 -16 -16 -27 -31 -24
-34 7 -7 45 21 83 59 23 23 35 30 43 22 15 -15 72 0 100 26 12 11 26 21 31 21
4 0 8 5 8 11 0 6 -9 8 -21 4 -12 -4 -27 -1 -37 9 -12 10 -22 12 -32 6z"/>
                <path d="M3830 6990 c0 -5 5 -10 10 -10 6 0 10 5 10 10 0 6 -4 10 -10 10 -5 0
-10 -4 -10 -10z"/>
                <path d="M3851 6966 c-18 -19 -19 -25 -7 -29 18 -7 47 24 37 41 -5 9 -13 6
-30 -12z"/>
                <path d="M2560 6905 c-8 -9 -8 -15 -2 -15 12 0 26 19 19 26 -2 2 -10 -2 -17
-11z"/>
                <path d="M2058 6889 c-19 -11 -24 -29 -8 -29 5 0 14 9 20 20 12 23 12 23 -12
9z"/>
                <path d="M1707 6689 c-15 -29 -25 -54 -22 -57 8 -9 35 20 35 38 0 10 7 23 15
30 16 13 21 40 7 40 -4 0 -20 -23 -35 -51z"/>
                <path d="M2158 6713 c-29 -34 -30 -48 -2 -21 15 15 26 30 23 33 -3 3 -13 -3
-21 -12z"/>
                <path d="M1918 6363 c-8 -18 -77 -75 -94 -78 -11 -2 -21 -4 -24 -5 -3 -1 5 -5
18 -11 17 -6 29 -5 44 5 24 17 72 85 65 92 -3 3 -7 2 -9 -3z"/>
                <path d="M1756 6239 c-13 -10 -26 -15 -30 -11 -4 3 -42 -31 -86 -76 -43 -45
-83 -82 -89 -82 -6 0 -11 -11 -11 -25 0 -14 -7 -28 -15 -31 -8 -4 -15 -13 -15
-22 0 -17 -4 -21 80 63 22 22 40 36 40 30 0 -5 -23 -32 -51 -60 -44 -44 -50
-54 -45 -82 3 -23 -2 -41 -23 -70 -26 -36 -35 -86 -16 -90 24 -4 25 -71 3
-100 -6 -7 -7 -32 -4 -55 4 -24 8 -55 9 -70 1 -14 5 -30 10 -34 4 -4 7 -16 7
-26 0 -13 4 -17 13 -12 6 4 4 -2 -7 -14 -16 -18 -17 -24 -6 -38 10 -11 10 -18
3 -22 -12 -7 -15 -87 -6 -134 2 -16 11 -28 19 -28 17 0 14 -51 -5 -74 -15 -18
-23 -96 -10 -96 5 0 9 -6 9 -14 0 -18 27 -46 45 -46 18 0 28 30 14 46 -9 11
-8 14 5 14 11 0 14 -5 10 -12 -5 -7 -2 -9 8 -5 12 4 18 -2 23 -20 3 -15 13
-36 20 -47 14 -19 15 -19 26 12 6 18 15 32 20 32 5 0 19 11 31 25 12 14 30 25
40 25 27 0 22 -13 -12 -34 -24 -14 -29 -22 -24 -39 9 -29 6 -28 42 -21 32 7
40 18 22 29 -16 10 -11 42 8 50 16 6 16 7 0 16 -10 5 -15 16 -11 24 4 11 1 13
-11 9 -10 -4 -16 -1 -17 7 0 8 -4 4 -10 -9 -5 -13 -14 -20 -19 -17 -14 9 -42
-14 -33 -28 3 -6 1 -7 -5 -3 -16 9 -16 8 18 51 24 30 29 45 25 66 -4 15 -1 30
5 34 6 3 10 22 8 40 -1 18 4 40 11 49 11 14 11 16 -4 16 -14 0 -11 7 14 36 23
26 29 39 22 48 -6 7 -8 16 -4 19 3 4 1 7 -6 7 -15 0 -6 76 13 101 6 8 -5 -2
-25 -23 -20 -21 -39 -38 -42 -38 -15 0 -13 32 4 54 14 17 16 24 6 20 -24 -9
-29 26 -7 61 25 41 25 48 0 40 -14 -5 -20 -2 -20 9 0 9 -7 16 -15 16 -8 0 -15
-4 -15 -8 0 -5 -11 -15 -25 -22 -29 -16 -31 -28 -8 -45 16 -12 16 -14 1 -29
-21 -20 -52 -22 -45 -2 5 12 2 12 -21 0 -14 -7 -28 -11 -31 -9 -2 3 40 47 94
98 57 55 93 97 87 101 -6 4 -16 -3 -22 -14 -6 -11 -17 -20 -24 -20 -8 0 -28
-13 -45 -29 -17 -16 -31 -27 -31 -25 0 6 41 78 52 92 7 8 7 16 -1 26 -7 8 -8
17 -3 20 17 10 24 58 10 67 -10 7 -10 11 0 21 10 10 14 10 21 0 5 -8 8 -2 8
17 0 20 -6 31 -16 33 -13 3 -10 9 12 29 28 27 38 51 12 29 -24 -20 -29 -5 -11
31 10 21 13 35 6 39 -6 4 3 23 21 48 25 34 28 45 19 62 -14 26 11 55 40 47 11
-3 22 -2 25 3 11 17 -36 17 -59 -1z m-18 -71 c-2 -6 -10 -14 -16 -16 -7 -2
-10 2 -6 12 7 18 28 22 22 4z m-67 -122 c-10 -21 -25 -36 -39 -39 -21 -4 -19
0 14 34 21 22 39 39 40 39 1 0 -6 -15 -15 -34z m-95 -113 c-10 -10 -19 5 -10
18 6 11 8 11 12 0 2 -7 1 -15 -2 -18z m74 -18 c-7 -9 -15 -13 -19 -10 -3 3 1
10 9 15 21 14 24 12 10 -5z m-58 -277 c-7 -7 -12 -8 -12 -2 0 14 12 26 19 19
2 -3 -1 -11 -7 -17z m-22 -253 c-7 -9 -15 -13 -17 -11 -7 7 7 26 19 26 6 0 6
-6 -2 -15z m70 -159 c0 -2 -7 -9 -15 -16 -13 -11 -14 -10 -9 4 5 14 24 23 24
12z m-85 -86 c-10 -11 -20 -18 -23 -15 -7 6 18 35 31 35 5 0 2 -9 -8 -20z
m115 0 c0 -5 -4 -10 -10 -10 -5 0 -10 5 -10 10 0 6 5 10 10 10 6 0 10 -4 10
-10z"/>
                <path d="M1558 6212 c-10 -2 -18 -9 -18 -16 0 -24 13 -26 28 -5 16 23 14 27
-10 21z"/>
                <path d="M1847 6195 c-28 -27 -33 -35 -19 -35 5 0 18 14 30 30 28 37 25 38
-11 5z"/>
                <path d="M1777 6203 c-12 -11 -8 -23 8 -23 8 0 15 7 15 15 0 16 -12 20 -23 8z"/>
                <path d="M1589 6173 c-8 -20 -21 -33 -31 -33 -10 0 -18 -4 -18 -10 0 -5 9 -10
20 -10 24 0 53 42 47 67 -3 14 -7 11 -18 -14z"/>
                <path d="M4141 6161 c-8 -5 -19 -7 -25 -5 -7 3 -13 -7 -14 -22 -1 -19 2 -25
12 -21 7 3 19 0 25 -6 15 -15 22 -5 25 32 2 33 -1 36 -23 22z"/>
                <path d="M1841 6136 c-13 -14 -21 -30 -19 -37 5 -15 48 28 48 48 0 18 -3 17
-29 -11z"/>
                <path d="M4155 6080 c-31 -33 -21 -41 15 -12 13 10 21 24 19 31 -3 7 -15 0
-34 -19z"/>
                <path d="M1520 6079 c0 -5 5 -7 10 -4 6 3 10 8 10 11 0 2 -4 4 -10 4 -5 0 -10
-5 -10 -11z"/>
                <path d="M4161 6031 l-21 -29 25 11 c14 7 25 20 25 30 0 24 -5 22 -29 -12z"/>
                <path d="M1820 6010 c-14 -10 -21 -22 -17 -26 4 -4 17 2 29 14 28 28 20 36
-12 12z"/>
                <path d="M4100 6020 c0 -5 5 -10 10 -10 6 0 10 5 10 10 0 6 -4 10 -10 10 -5 0
-10 -4 -10 -10z"/>
                <path d="M1477 5963 c-4 -3 -7 -11 -7 -17 0 -6 5 -5 12 2 6 6 9 14 7 17 -3 3
-9 2 -12 -2z"/>
                <path d="M1795 5920 c-10 -11 -13 -20 -8 -20 13 0 38 29 31 35 -3 3 -13 -4
-23 -15z"/>
                <path d="M4532 5898 c-14 -14 -16 -28 -2 -28 5 0 14 9 20 20 12 22 1 27 -18 8z"/>
                <path d="M4195 5859 c-11 -17 1 -21 15 -4 8 9 8 15 2 15 -6 0 -14 -5 -17 -11z"/>
                <path d="M1865 5761 c-35 -30 -99 -101 -93 -101 7 0 85 75 107 103 17 22 12
21 -14 -2z"/>
                <path d="M1747 5599 c-25 -14 -21 -26 8 -26 14 0 25 5 25 13 0 19 -13 24 -33
13z"/>
                <path d="M1835 5599 c-4 -6 -5 -13 -2 -16 7 -7 27 6 27 18 0 12 -17 12 -25 -2z"/>
                <path d="M3490 5550 c0 -5 5 -10 10 -10 6 0 10 5 10 10 0 6 -4 10 -10 10 -5 0
-10 -4 -10 -10z"/>
                <path d="M3585 5540 c-3 -5 1 -10 9 -10 8 0 18 5 21 10 3 6 -1 10 -9 10 -8 0
-18 -4 -21 -10z"/>
                <path d="M3645 5540 c-8 -13 4 -32 16 -25 12 8 12 35 0 35 -6 0 -13 -4 -16
-10z"/>
                <path d="M2499 5492 c-20 -17 -29 -33 -25 -41 6 -9 11 -9 23 0 11 10 19 10 33
1 22 -13 26 -8 25 32 0 40 -17 42 -56 8z"/>
                <path d="M2447 5482 c-25 -27 -21 -35 8 -16 25 16 33 34 17 34 -5 0 -16 -8
-25 -18z"/>
                <path d="M1800 5464 c0 -8 5 -12 10 -9 6 4 8 11 5 16 -9 14 -15 11 -15 -7z"/>
                <path d="M1825 5300 c-3 -5 -1 -10 4 -10 6 0 11 5 11 10 0 6 -2 10 -4 10 -3 0
-8 -4 -11 -10z"/>
                <path d="M1706 5004 c-23 -23 -20 -30 4 -9 11 10 20 20 20 22 0 7 -9 2 -24
-13z"/>
                <path d="M4281 4786 c-14 -14 -22 -28 -19 -31 9 -9 51 31 47 44 -3 8 -13 3
-28 -13z"/>
                <path d="M3440 4731 c-8 -5 -17 -8 -21 -5 -4 2 -12 -3 -19 -11 -7 -8 -18 -15
-25 -15 -16 0 -50 -38 -42 -46 4 -4 14 -1 23 7 16 13 17 11 10 -13 -5 -23 -3
-28 13 -28 10 0 24 7 31 15 7 8 17 15 23 15 6 0 -1 -13 -16 -28 -33 -34 -34
-47 -4 -48 12 -1 33 -5 46 -9 21 -7 23 -5 18 9 -9 22 9 56 28 56 18 0 20 -21
3 -38 -6 -6 -9 -14 -6 -17 3 -4 25 12 49 35 42 39 43 41 25 55 -11 8 -28 15
-38 15 -16 0 -16 3 -6 20 7 10 9 23 4 27 -4 4 -12 0 -17 -10 -13 -22 -31 -22
-27 1 3 20 -28 28 -52 13z"/>
                <path d="M2914 4706 c-10 -8 -17 -16 -14 -19 3 -2 14 4 24 14 23 22 18 25 -10
5z"/>
                <path d="M3315 4700 c-10 -11 -14 -20 -8 -20 5 0 18 9 28 20 10 11 14 20 8 20
-5 0 -18 -9 -28 -20z"/>
                <path d="M1890 4684 c0 -8 5 -12 10 -9 6 3 10 10 10 16 0 5 -4 9 -10 9 -5 0
-10 -7 -10 -16z"/>
                <path d="M4266 4679 c-14 -11 -26 -28 -26 -37 0 -12 9 -7 30 16 43 47 41 56
-4 21z"/>
                <path d="M3594 4629 c-27 -27 -33 -39 -22 -39 9 0 20 5 23 10 3 6 14 10 24 10
29 0 46 26 28 44 -12 13 -19 10 -53 -25z"/>
                <path d="M2979 4638 c-6 -12 -18 -27 -25 -31 -19 -11 -18 -27 1 -27 8 0 22 16
30 37 17 41 13 57 -6 21z"/>
                <path d="M2836 4634 c-5 -14 -4 -15 9 -4 17 14 19 20 6 20 -5 0 -12 -7 -15
-16z"/>
                <path d="M2926 4628 c-9 -12 -13 -24 -11 -27 5 -5 45 34 45 44 0 13 -20 3 -34
-17z"/>
                <path d="M3697 4643 c-4 -3 -7 -11 -7 -17 0 -6 5 -5 12 2 6 6 9 14 7 17 -3 3
-9 2 -12 -2z"/>
                <path d="M2780 4585 c-13 -14 -20 -28 -17 -32 8 -7 57 35 57 49 0 15 -16 8
-40 -17z"/>
                <path d="M4261 4575 c-34 -39 -43 -67 -14 -44 25 20 62 63 63 72 0 16 -20 5
-49 -28z"/>
                <path d="M3690 4585 c-16 -19 0 -19 26 0 16 12 16 14 3 15 -9 0 -22 -7 -29
-15z"/>
                <path d="M2880 4579 c0 -5 5 -7 10 -4 6 3 10 8 10 11 0 2 -4 4 -10 4 -5 0 -10
-5 -10 -11z"/>
                <path d="M2704 4558 c-11 -13 -26 -32 -34 -43 -14 -18 -14 -18 7 -4 27 19 68
69 55 69 -4 0 -17 -10 -28 -22z"/>
                <path d="M3801 4546 c-41 -42 -42 -63 -1 -39 17 9 30 23 30 30 0 7 6 10 13 7
7 -2 21 4 30 14 17 18 16 19 -12 20 -20 0 -38 -9 -60 -32z"/>
                <path d="M2616 4534 c-9 -35 -6 -36 23 -12 21 16 22 21 10 29 -22 14 -26 11
-33 -17z"/>
                <path d="M3710 4545 c-8 -9 -8 -15 -2 -15 12 0 26 19 19 26 -2 2 -10 -2 -17
-11z"/>
                <path d="M3735 4530 c-16 -16 -25 -30 -19 -30 11 1 34 19 53 43 23 29 -3 19
-34 -13z"/>
                <path d="M2795 4530 c-10 -11 -14 -20 -8 -20 5 0 18 9 28 20 10 11 14 20 8 20
-5 0 -18 -9 -28 -20z"/>
                <path d="M4267 4515 c-10 -14 -14 -25 -9 -25 10 0 42 33 42 43 0 14 -16 5 -33
-18z"/>
                <path d="M4260 4448 l-23 -33 31 29 c34 31 37 36 24 36 -5 0 -19 -15 -32 -32z"/>
                <path d="M2390 4449 c0 -5 5 -7 10 -4 6 3 10 8 10 11 0 2 -4 4 -10 4 -5 0 -10
-5 -10 -11z"/>
                <path d="M3547 4438 c-8 -30 2 -37 19 -14 18 25 18 36 0 36 -7 0 -16 -10 -19
-22z"/>
                <path d="M3572 4405 c-30 -35 -29 -65 2 -65 22 0 24 4 22 35 -2 19 1 35 5 35
5 0 9 5 9 10 0 17 -15 11 -38 -15z"/>
                <path d="M4254 4407 c-11 -12 -26 -31 -34 -42 -13 -16 -10 -16 18 4 32 23 49
47 40 56 -3 3 -13 -5 -24 -18z"/>
                <path d="M2750 4410 c-8 -5 -29 -10 -47 -10 -17 0 -35 -4 -38 -10 -3 -5 -15
-10 -26 -10 -10 0 -19 -7 -19 -15 0 -22 27 -18 44 7 12 17 16 18 16 7 0 -9
-10 -28 -21 -43 -12 -15 -19 -29 -17 -32 9 -8 58 15 58 28 0 7 17 29 37 50 37
38 41 46 13 28z"/>
                <path d="M4270 4359 c0 -5 5 -7 10 -4 6 3 10 8 10 11 0 2 -4 4 -10 4 -5 0 -10
-5 -10 -11z"/>
                <path d="M2135 4329 c-11 -17 1 -21 15 -4 8 9 8 15 2 15 -6 0 -14 -5 -17 -11z"/>
                <path d="M4235 4329 c-11 -17 1 -21 15 -4 8 9 8 15 2 15 -6 0 -14 -5 -17 -11z"/>
                <path d="M3480 4304 c0 -8 5 -12 10 -9 6 3 10 10 10 16 0 5 -4 9 -10 9 -5 0
-10 -7 -10 -16z"/>
                <path d="M4230 4269 c0 -5 5 -7 10 -4 6 3 10 8 10 11 0 2 -4 4 -10 4 -5 0 -10
-5 -10 -11z"/>
                <path d="M4227 4222 c-32 -33 -36 -54 -6 -26 20 18 44 54 36 54 -2 0 -15 -13
-30 -28z"/>
                <path d="M4210 4148 l-33 -43 41 40 c44 41 47 45 34 45 -5 0 -24 -19 -42 -42z"/>
                <path d="M3894 4086 c-10 -8 -15 -18 -11 -22 4 -4 15 0 24 9 22 21 12 31 -13
13z"/>
                <path d="M4024 4058 l-19 -23 23 19 c12 11 22 21 22 23 0 8 -8 2 -26 -19z"/>
                <path d="M4106 4044 c-21 -19 -36 -38 -32 -41 7 -8 32 13 57 49 27 37 22 35
-25 -8z"/>
                <path d="M4190 4045 c-11 -13 -10 -14 4 -9 9 3 16 10 16 15 0 13 -6 11 -20 -6z"/>
                <path d="M2500 4040 c-8 -5 -11 -12 -7 -16 4 -4 13 -2 19 4 15 15 7 24 -12 12z"/>
                <path d="M4140 4000 c0 -5 -5 -10 -12 -10 -6 0 -22 -10 -35 -22 -20 -19 -25
-20 -33 -8 -7 11 -12 12 -21 3 -9 -9 -8 -16 5 -28 15 -15 18 -15 43 3 39 28
79 72 65 72 -7 0 -12 -4 -12 -10z"/>
                <path d="M2395 3929 c-11 -17 1 -21 15 -4 8 9 8 15 2 15 -6 0 -14 -5 -17 -11z"/>
                <path d="M4053 3879 c-50 -48 -66 -59 -85 -54 -18 5 -32 -3 -65 -37 -40 -42
-47 -55 -44 -90 2 -26 34 -22 61 7 12 13 27 22 31 19 5 -3 14 -2 20 2 8 5 8 9
-1 14 -9 5 11 32 62 86 86 92 104 114 92 114 -5 0 -37 -27 -71 -61z m-93 -82
c0 -8 -58 -67 -65 -67 -4 0 0 9 9 19 10 11 15 24 12 30 -4 5 4 12 16 14 13 2
24 5 26 6 1 0 2 0 2 -2z"/>
                <path d="M4025 3900 c-3 -5 -1 -10 4 -10 6 0 11 5 11 10 0 6 -2 10 -4 10 -3 0
-8 -4 -11 -10z"/>
                <path d="M2525 3890 c-3 -5 -2 -10 4 -10 5 0 13 5 16 10 3 6 2 10 -4 10 -5 0
-13 -4 -16 -10z"/>
                <path d="M2110 3869 c0 -5 5 -7 10 -4 6 3 10 8 10 11 0 2 -4 4 -10 4 -5 0 -10
-5 -10 -11z"/>
                <path d="M4075 3840 c-10 -11 -16 -23 -13 -26 7 -6 38 24 38 37 0 13 -5 11
-25 -11z"/>
                <path d="M2183 3806 c-29 -25 -26 -50 2 -26 17 14 39 50 31 50 -3 0 -18 -11
-33 -24z"/>
                <path d="M2308 3776 c-30 -23 -37 -46 -15 -46 19 0 61 50 50 60 -4 5 -20 -1
-35 -14z"/>
                <path d="M4087 3793 c-4 -3 -7 -11 -7 -17 0 -6 5 -5 12 2 6 6 9 14 7 17 -3 3
-9 2 -12 -2z"/>
                <path d="M2352 3690 c-45 -48 -48 -55 -31 -65 17 -11 81 62 77 88 -3 20 -7 18
-46 -23z"/>
                <path d="M3664 3688 l-19 -23 23 19 c12 11 22 21 22 23 0 8 -8 2 -26 -19z"/>
                <path d="M2455 3629 c-14 -17 -23 -34 -20 -37 6 -6 65 48 65 60 0 17 -19 7
-45 -23z"/>
                <path d="M3815 3650 c-3 -5 -2 -10 4 -10 5 0 13 5 16 10 3 6 2 10 -4 10 -5 0
-13 -4 -16 -10z"/>
                <path d="M3826 3621 c-16 -16 -26 -35 -24 -41 2 -7 16 4 32 24 35 46 29 56 -8
17z"/>
                <path d="M3884 3605 c-15 -20 -23 -39 -19 -43 4 -4 10 -1 13 7 3 8 15 24 28
36 25 24 30 35 15 35 -6 0 -22 -16 -37 -35z"/>
                <path d="M2487 3594 c-36 -35 -46 -54 -29 -54 8 0 82 77 82 86 0 12 -20 0 -53
-32z"/>
                <path d="M3690 3615 c-7 -8 -8 -15 -2 -15 5 0 15 7 22 15 7 8 8 15 2 15 -5 0
-15 -7 -22 -15z"/>
                <path d="M3760 3600 c0 -5 5 -10 10 -10 6 0 10 5 10 10 0 6 -4 10 -10 10 -5 0
-10 -4 -10 -10z"/>
                <path d="M2555 3544 c-22 -19 -41 -30 -43 -24 -2 6 -12 -6 -23 -27 -24 -47
-17 -54 21 -18 34 32 41 23 9 -11 -31 -33 -9 -35 34 -4 35 27 36 29 20 45 -16
17 -16 19 10 41 15 13 27 26 27 29 0 12 -17 2 -55 -31z"/>
                <path d="M2696 3545 c-14 -13 -26 -27 -26 -31 0 -4 14 5 30 21 17 16 30 30 30
32 0 7 -9 2 -34 -22z"/>
                <path d="M4250 3545 c-10 -12 -10 -19 -2 -27 7 -7 12 -20 12 -30 0 -10 16 -33
35 -50 20 -17 48 -55 62 -84 14 -30 33 -54 41 -54 12 0 12 -2 1 -17 -12 -15
-12 -16 4 -10 10 4 21 7 23 7 3 0 9 12 15 27 8 21 6 30 -12 49 -11 12 -18 27
-15 32 5 9 -50 76 -122 149 -27 27 -26 27 -42 8z"/>
                <path d="M3781 3506 c-24 -18 -50 -44 -57 -58 l-13 -25 34 16 c19 9 37 23 40
32 3 9 17 29 30 43 33 35 19 32 -34 -8z"/>
                <path d="M3639 3503 c-14 -17 -20 -63 -8 -63 11 0 59 67 52 74 -11 11 -30 6
-44 -11z"/>
                <path d="M3475 3460 c-27 -27 -47 -52 -44 -54 4 -5 109 92 109 100 0 13 -22
-2 -65 -46z"/>
                <path d="M2761 3467 c-13 -6 -31 -22 -39 -34 -25 -39 9 -28 41 12 15 19 27 35
25 35 -2 0 -14 -6 -27 -13z"/>
                <path d="M2587 3441 c-31 -33 -37 -53 -8 -27 11 10 25 15 31 11 12 -8 41 25
34 37 -10 15 -29 8 -57 -21z"/>
                <path d="M3642 3430 c-6 -11 -12 -23 -12 -27 0 -14 63 -9 68 5 2 7 -2 11 -10
10 -7 -2 -12 5 -12 15 2 23 -18 22 -34 -3z"/>
                <path d="M2770 3420 c0 -5 7 -10 15 -10 8 0 15 5 15 10 0 6 -7 10 -15 10 -8 0
-15 -4 -15 -10z"/>
                <path d="M2612 3390 c-13 -16 -20 -30 -17 -30 9 0 55 43 55 52 0 17 -17 7 -38
-22z"/>
                <path d="M2797 3390 c-20 -33 -9 -41 15 -12 25 29 30 42 16 42 -8 0 -22 -13
-31 -30z"/>
                <path d="M2930 3395 c-7 -9 -10 -18 -7 -22 8 -7 37 15 37 28 0 14 -16 11 -30
-6z"/>
                <path d="M3447 3368 c-51 -48 -56 -58 -30 -58 13 0 14 -3 5 -12 -18 -18 -15
-28 10 -28 12 0 18 3 15 7 -4 3 0 17 8 30 14 20 14 23 1 23 -10 0 -13 6 -10
15 4 8 12 15 19 15 17 0 38 26 33 41 -2 7 -24 -6 -51 -33z"/>
                <path d="M2735 3380 c-10 -11 -24 -20 -32 -20 -7 0 -13 -4 -13 -10 0 -18 16
-11 45 20 16 17 26 30 23 30 -3 0 -13 -9 -23 -20z"/>
                <path d="M3053 3380 c-33 -13 -31 -44 2 -36 27 7 36 -11 10 -20 -8 -3 -21 -19
-30 -36 -14 -30 -14 -30 7 -16 12 8 31 27 42 42 17 22 18 29 7 35 -8 5 -11 16
-8 25 7 18 2 19 -30 6z"/>
                <path d="M3385 3370 c-10 -11 -13 -20 -7 -20 6 0 16 9 22 20 6 11 9 20 7 20
-2 0 -12 -9 -22 -20z"/>
                <path d="M2822 3357 c-24 -25 -28 -37 -12 -37 5 0 16 14 25 30 19 36 16 38
-13 7z"/>
                <path d="M3233 3353 c-18 -15 -44 -37 -59 -48 -18 -14 -25 -28 -22 -45 3 -24
3 -23 33 10 17 18 43 46 58 62 38 39 30 57 -10 21z"/>
                <path d="M3535 3360 c-3 -5 -1 -10 4 -10 6 0 11 5 11 10 0 6 -2 10 -4 10 -3 0
-8 -4 -11 -10z"/>
                <path d="M2951 3326 c-32 -33 -33 -36 -13 -36 12 0 22 -4 22 -10 0 -16 18 -12
40 10 24 24 26 34 6 27 -10 -4 -16 2 -18 19 l-3 25 -34 -35z"/>
                <path d="M3551 3324 c-18 -19 -31 -37 -28 -40 4 -5 77 61 77 70 0 15 -20 3
-49 -30z"/>
                <path d="M2857 3343 c-12 -11 -8 -23 7 -23 7 0 19 7 26 15 10 12 9 15 -7 15
-11 0 -23 -3 -26 -7z"/>
                <path d="M3280 3325 c-8 -9 -8 -15 -2 -15 12 0 26 19 19 26 -2 2 -10 -2 -17
-11z"/>
                <path d="M3317 3300 c-39 -38 -37 -51 11 -50 21 1 62 34 62 51 0 8 -6 7 -18
-4 -19 -17 -42 -23 -42 -10 0 3 7 15 17 25 31 35 8 26 -30 -12z"/>
                <path d="M3215 3267 c-16 -14 -24 -26 -18 -30 11 -7 60 39 51 48 -3 4 -18 -5
-33 -18z"/>
                <path d="M4420 3249 c0 -5 5 -7 10 -4 6 3 10 8 10 11 0 2 -4 4 -10 4 -5 0 -10
-5 -10 -11z"/>
                <path d="M0 175 c0 -8 5 -15 10 -15 6 0 10 7 10 15 0 8 -4 15 -10 15 -5 0 -10
-7 -10 -15z"/>
        </g>
</svg>
