<svg xmlns="http://www.w3.org/2000/svg" xmlns:xlink="http://www.w3.org/1999/xlink" version="1.1" x="0px" y="0px" viewBox="0 0 100 125" style="enable-background:new 0 0 100 100;" xml:space="preserve"><style type="text/css">
	.st0{display:none;}
	.st1{display:inline;}
</style><g class="st0"><g class="st1"><g><path d="M42.5,7.4c-3,1.3-7.5,3.1-9.3,6c-1.8,2.8,0.1,6.8,1.4,9.5c0.4,0.7,1.5,0.9,2.1,0.3c1.7-2,3.3-4.1,4.6-6.4     c0.6-1.1,1.2-2.2,1.8-3.3c0.5-0.9,1.2-1.6,1.7-2.5c0.3-0.5,0.2-1.1-0.2-1.6l-0.1-0.1c-1.1-1.3-3,0.6-1.9,1.9l0.1,0.1     c-0.1-0.5-0.1-1.1-0.2-1.6c-0.4,0.6-1,1.2-1.4,1.9c-0.6,1-1,2.1-1.6,3.1c-1.3,2.4-2.9,4.6-4.7,6.6c0.7,0.1,1.4,0.2,2.1,0.3     c-0.6-1.2-1.1-2.5-1.5-3.8c-0.5-2.2-0.1-3.2,1.7-4.5c2.1-1.5,4.4-2.6,6.7-3.6C45.4,9,44,6.8,42.5,7.4L42.5,7.4z"/></g></g><g class="st1"><g><path d="M46.1,10.9c-2.1,1.2-3.8,2.8-5.2,4.7c-1,1.4,1.3,2.7,2.3,1.3c1.1-1.6,2.6-2.8,4.3-3.8C48.9,12.3,47.6,10.1,46.1,10.9     L46.1,10.9z"/></g></g><g class="st1"><g><path d="M46.6,12.7c-1.5,0.1-3.1,0.8-3.5,2.4c-0.5,1.7,1,3.4,2.7,3.5c1.6,0.1,3.3-1.3,3.5-3c0.1-2.1-2-2.9-3.8-2.9     c-1.7-0.1-1.7,2.6,0,2.6c0.2,0,1.1,0,1.2,0.2c0,0.2-0.6,0.6-0.8,0.5c-0.1,0-0.1-0.1-0.2-0.2s0,0,0,0.1c0-0.1,0-0.1,0.1-0.1     c0.3-0.2,0.5-0.3,0.9-0.4C48.3,15.2,48.3,12.6,46.6,12.7L46.6,12.7z"/></g></g><g class="st1"><g><path d="M55.1,12.2c1.3,1.7,2.5,3.4,3.6,5.2c0.9,1.4,3.2,0.1,2.3-1.3c-1.1-1.8-2.3-3.5-3.6-5.2C56.3,9.5,54.1,10.8,55.1,12.2     L55.1,12.2z"/></g></g><g class="st1"><g><path d="M58.3,12c-2.2,0-6.3,1.3-4.7,4.3c1.1,2,4.4,2.4,5.6,0.2c0.8-1.5-1.5-2.8-2.3-1.3c-0.2,0.4-0.8,0-1-0.2     c0.1,0.1-0.2,0.1,0.1,0.1c0.2,0,0.5-0.2,0.6-0.3c0.6-0.2,1.1-0.3,1.7-0.3C60,14.6,60,12,58.3,12L58.3,12z"/></g></g><g class="st1"><g><path d="M58.9,10.4c1,1.1,2.3,1.8,3.6,2.6c0.7,0.4,2.5,1.1,3,1.7c2,2.4-0.3,3.1-1.6,4.1c-2,1.5-2.9,3.4-1.9,5.7     c0.6,1.3,2.3,0.5,2.4-0.7c0.3-3.6,0.7-8.9-1.7-11.9c-1.1-1.3-2.9,0.6-1.9,1.9c1.9,2.3,1.2,7.3,1,10.1c0.8-0.2,1.6-0.4,2.5-0.7     c-0.8-1.8,3.2-3.5,4.2-4.8c0.7-1,1.1-2.2,0.8-3.4c-0.9-3.4-6.2-4-8.4-6.4C59.6,7.3,57.7,9.2,58.9,10.4L58.9,10.4z"/></g></g><g class="st1"><g><path d="M43.1,9.4c3.5-0.7,5.9,0.3,9.2,0.7c2.8,0.4,5.7-0.1,8.5,0.3c1.7,0.2,1.7-2.4,0-2.6c-3.6-0.4-7-0.1-10.7-0.9     c-2.8-0.6-5-0.6-7.8,0C40.7,7.1,41.4,9.7,43.1,9.4L43.1,9.4z"/></g></g><g class="st1"><g><path d="M61.4,18.5c-1.1,3-3.2,4.3-3.4,7.6c-0.1,1.8,0.8,4.8-1.9,5.4c-0.9,0.2-3-1-4.1-1.1c-1.7-0.2-3,0.2-4.6,0.4     c-1.7,1.1-2.5,0.2-2.5-2.5c0.1-0.5,0.2-1,0.2-1.6c-0.5-3.5-2.7-7.2-2.2-10.8c0.3-1.7-2.3-2.4-2.5-0.7c-0.3,2.1-0.3,3.9,0.4,5.9     c0.8,2.5,1.7,3.5,1.6,6.4c0,1-0.4,1.8-0.3,2.8c0.4,5,4,3.1,7.3,2.7c3.4-0.4,8.5,3.2,10.7-0.9c0.8-1.5,0.4-3.4,0.5-5     c0.2-3.6,2.2-5.1,3.3-8.1C64.6,17.6,62,17,61.4,18.5L61.4,18.5z"/></g></g><g class="st1"><g><path d="M49.8,26.8c0.5,0.1,0.6,0,0.1-0.5c0.2-0.3,0.4-0.5,0.6-0.8c-0.3,0.2-0.8,0.8-1.2,0.3c-0.3-0.4,0.3-0.5,0.7-0.7     c0.8-0.4,1.8-0.6,2.7-0.6c0.8,0,2.8,0.5,1.8,1.6c-0.4,0.5-1.5,0.7-2.1,0.7c0.3,0.1,0.6,0.3,0.9,0.4c0.1,0.4,0.3,0.4,0.7,0.1     c1.5-0.7,0.2-3-1.3-2.3c-1.4,0.6-2.7,2.3-1.4,3.8c1.1,1.3,3.4,0.4,4.5-0.4c1.4-0.9,2-2.7,1.2-4.3c-1-1.9-3.2-2.4-5.1-2.2     c-1.8,0.2-4.1,0.8-5.1,2.5c-0.9,1.4-0.5,3.4,1.1,4.1c1.4,0.6,3.9,0,4.5-1.5c0.7-1.8-1.2-2.8-2.7-2.9     C48.1,24.1,48.1,26.8,49.8,26.8L49.8,26.8z"/></g></g><g class="st1"><g><path d="M45,33.5c1.3,2.5,3.5,4.5,6.5,4.6c2.6,0.1,5.2-1.5,5.4-4.3c0.1-1.7-2.5-1.7-2.6,0c-0.1,2-3.1,1.8-4.2,1.3     c-1.3-0.6-2.1-1.7-2.7-2.9C46.5,30.7,44.3,32,45,33.5L45,33.5z"/></g></g><g class="st1"><g><path d="M61.3,58c1.6,4.5,1.2,7.7,0.9,12.2c-0.2,2.1,0.1,4.1,0.7,6.1c0.1,0.5,1.2,2.3,1.1,2.7c-1.1,0.3-2.2,0.6-3.3,0.9     c0.3-0.4,0.6-0.7,0.9-1.1c0.6-3.1,1.4-5.4,1.1-8.9c-0.4-4.3-2.8-7.4-3.9-11.5c-0.4-1.6-3-0.9-2.5,0.7c1,3.8,3.4,6.7,3.8,10.8     c0.1,1.3,0.3,3,0.1,4.4c-0.5,4.8-1.4,2.5-2.3,5c-1.2,3.4,0.9,6.2,4.8,5.5c5.2-0.9,4.4-4.6,3.1-8.4c-1.4-3.9-0.2-7.1,0-11     c0.1-2.7-0.9-5.6-1.8-8.1C63.2,55.7,60.7,56.4,61.3,58L61.3,58z"/></g></g><g class="st1"><g><path d="M56.7,64.9c-3.8,2.6-8,5.6-9.6,10.2c-1,2.9-1.3,6.6-1.6,9.7c-0.2,1.6-0.2,3.2,0.8,4.5c1.5,2.2,5.5,2.5,6.4-0.5     c0.8-2.8-2.4-4.1-1-7.3c1.3-3,7.3-4.3,9.7-6.1c1.4-1,0-3.3-1.3-2.3C56,76,47.4,77.6,48.7,84.4c0,0.1,0.6,1.6,0.6,1.6     c0,1.6-1-1.3-1-1.9c-0.1-1.5,0.6-4.1,0.8-5.6c0.9-5.5,4.6-8.4,9-11.4C59.4,66.3,58.1,64,56.7,64.9L56.7,64.9z"/></g></g><g class="st1"><g><path d="M44.3,61.7c0.1,1.9,1.1,3.5,2.8,4.5c1.5,0.8,2.8-1.4,1.3-2.3c-0.8-0.5-1.4-1.3-1.5-2.2c0-0.7-0.6-1.3-1.3-1.3     C45,60.4,44.3,61,44.3,61.7L44.3,61.7z"/></g></g><g class="st1"><g><path d="M37.3,57.5c-1.3,2.1-0.8,5.1-0.8,7.5c0,3.7,0.4,7.2,1.2,10.8c1.2,5.2,2,9,0.8,14.2c-0.3,1.2-0.7,1.8,0.2,2.8     c2.6,3.2,6.9-0.1,7.5-2.9c0.7-3.5-0.3-7.7,0-11.4c0.2-2.1,0.4-4.2,0.4-6.2c0-1.7-1-5.4,0.1-6.8c1-1.3-1.2-2.7-2.3-1.3     c-2.3,3-0.4,8.3-0.7,11.7c-0.2,3-0.6,5.9-0.5,8.9c0.1,2.3,0.7,3-1,5c-2.8,3.3-0.9,1.1-0.7,0c0.8-4.3,0.5-7.8-0.6-12.1     c-0.8-3.3-1.5-6.6-1.7-10c-0.1-2.1-0.8-7,0.4-8.8C40.4,57.5,38.2,56.1,37.3,57.5L37.3,57.5z"/></g></g><g class="st1"><g><path d="M35.4,60.8c-2.1,1.6-3.1,4.1-2.8,6.8c0.1,1.2,0.5,2.3,1,3.3c0.3,0.5,0.6,1,1,1.4c0.3,0.4,1,1.6,1.2,1     c-0.5,1.6,2,2.3,2.5,0.7c0.5-1.6-1.2-2.5-2-3.7c-1.8-2.5-1.5-5.7,0.9-7.6C38.6,61.6,36.7,59.8,35.4,60.8L35.4,60.8z"/></g></g><g class="st1"><g><path d="M37.9,80.4c-1.3,1.2-2.5,2.6-2.4,4.4c0.1,1.7,1.5,3.1,3.2,3s1.7-2.7,0-2.6c-0.8,0.1-0.6-0.8-0.4-1.3     c0.3-0.7,0.9-1.2,1.4-1.6C41,81.1,39.2,79.3,37.9,80.4L37.9,80.4z"/></g></g><g class="st1"><g><path d="M34.8,60.9c-1.2,0.1-2.4,0-3.5-0.7c-0.9-0.6-1.4-1.8-2.5-1.9c-0.4,0-0.9,0.3-1.1,0.7c-0.5,1-0.4,2.3-0.4,3.4     c0,1.1,0,2.2,0.6,3.2c1.2,2,3.6,2.2,5.7,2.1c1.7-0.1,1.7-2.7,0-2.6c-1,0-3,0.3-3.6-0.9c-0.2-0.5-0.1-1.2-0.1-1.7     c0-0.4-0.1-1.7,0-2c-0.4,0.2-0.8,0.4-1.1,0.7h0.1c-0.4-0.2-0.8-0.4-1.1-0.7c1.6,2.3,4.2,3.6,7,3.3C36.4,63.3,36.4,60.7,34.8,60.9     L34.8,60.9z"/></g></g><g class="st1"><g><path d="M40.1,22.7c-1.5,3.1-1.6,5.6-1.4,9c0.3,4.6-2.3,6.5-2.7,10.7c-0.3,3.3,0.7,7.3,1.4,10.5c0.6,2.9,1.4,5.3,3.6,7.3     c1.2,1.2,3.1-0.7,1.9-1.9C38.8,54.4,37.7,43.6,40,39c0.7-1.4,1.7-2.9,1.8-4.5c0.4-3.9-1.3-6.5,0.7-10.6     C43.1,22.5,40.9,21.2,40.1,22.7L40.1,22.7z"/></g></g><g class="st1"><g><path d="M57.6,34.5c1.3,3.6-0.5,7.1,1.7,10.4c1.6,2.5,3.6,4.1,3.5,7.3c0,2.5-1.6,4.5-1.7,6.9c-0.1,1.7,2.5,1.7,2.6,0     c0.3-4.4,2.8-7.1,0.7-11.7c-1.1-2.3-3.2-3.8-3.6-6.5c-0.4-2.6,0.3-4.4-0.7-7.1C59.6,32.2,57,32.9,57.6,34.5L57.6,34.5z"/></g></g><g class="st1"><g><path d="M45.6,52.2c1.5,1.7,3.4,3,5.5,3.8c1.6,0.6,2.3-1.9,0.7-2.5c-1.7-0.7-3.2-1.7-4.4-3.1C46.3,49,44.5,50.9,45.6,52.2     L45.6,52.2z"/></g></g></g><path d="M46.3,6.9c-0.1,0-0.2,0.1-0.3,0.1c-0.2,0.1-0.4,0.2-0.6,0.3c-0.1,0.1-0.2,0.1-0.4,0.2c-0.2,0.1-0.4,0.2-0.6,0.4  c-0.1,0-0.1,0-0.2,0.1c-0.5,0.2-0.9,0.3-1.4,0.5c-0.4,0.2-0.8,0.4-1.2,0.7c-0.2,0.1-0.4,0.3-0.7,0.5c-0.2,0.1-0.3,0.3-0.5,0.5  c-0.2,0.2-0.4,0.4-0.5,0.6c-0.1,0.2-0.3,0.4-0.4,0.6c-0.3,0.4-0.4,0.9-0.6,1.4c-0.1,0.3-0.2,0.6-0.2,1c-0.3-0.3-0.7-0.4-1.1-0.4  c-0.1,0-0.2,0-0.3,0c-0.1,0-0.2,0.1-0.3,0.1c-0.2,0.1-0.4,0.2-0.6,0.3c-0.4,0.2-0.7,0.5-1,0.8c-0.3,0.3-0.6,0.7-0.8,1.1  c0,0.1-0.1,0.1-0.1,0.2c-0.1-0.1-0.2-0.2-0.3-0.3c-0.1,0-0.1-0.1-0.2-0.1c-0.2,0-0.3,0-0.5,0c-0.3,0-0.5,0.2-0.8,0.3  c-0.3,0.2-0.6,0.4-0.8,0.6c-0.5,0.4-0.9,0.9-1.2,1.4c-0.4,0.5-0.6,1.1-0.9,1.6c0,0.1-0.1,0.2-0.1,0.3c-0.2,0-0.3,0-0.5,0  c-0.2,0.1-0.3,0.1-0.5,0.2c-0.1,0.1-0.2,0.1-0.4,0.2c-0.1,0.1-0.2,0.1-0.3,0.2c-0.1,0.1-0.2,0.1-0.2,0.2c-0.3,0.2-0.6,0.4-0.8,0.6  c-0.2,0.2-0.4,0.4-0.6,0.6c-0.2,0.2-0.4,0.4-0.6,0.6c-0.1,0.1-0.3,0.3-0.4,0.4c-0.1,0.1-0.2,0.2-0.3,0.4c-0.2,0.2-0.3,0.4-0.4,0.6  c0,0.1,0,0.2-0.1,0.4c0,0.2,0,0.4,0.1,0.5c0.1,0.2,0.3,0.4,0.5,0.5c0.2,0.1,0.5,0.2,0.7,0.2c0,0,0,0,0,0c-0.1,0.1-0.1,0.2-0.1,0.3  c-0.4,0.8-0.7,1.5-1.1,2.3c-0.2,0.4-0.4,0.9-0.6,1.3c-0.1,0.3-0.2,0.5-0.3,0.8c-0.1,0.2-0.2,0.5-0.2,0.8c0,0.1-0.1,0.3-0.1,0.5  c0,0.2,0,0.4,0,0.5c0,0.2,0,0.3,0.1,0.5c-0.1,0.2-0.2,0.5-0.3,0.7c-0.1,0.3-0.1,0.6-0.2,0.8c-0.1,0.3-0.1,0.6-0.1,0.9  c0,0.2-0.1,0.5-0.1,0.7c0,0.4-0.1,0.7-0.1,1.1c-0.1,0.5-0.1,0.9-0.2,1.4c0,0.2,0,0.3,0,0.5c0,0.1,0,0.3,0,0.4c0,0.1,0,0.2,0,0.2  c0,0.2,0,0.5,0,0.7c0,0.2,0,0.4,0,0.6c0,0.4,0.1,0.8,0.1,1.2c0,0.1,0,0.2,0,0.3c0,0.1,0,0.1,0,0.2c0,0.2,0,0.4,0.1,0.6  c0.1,0.3,0.2,0.5,0.4,0.7c0.3,0.3,0.7,0.4,1,0.5c0,0.1,0,0.1,0,0.2c0,0-0.1,0.1-0.1,0.1c-0.1,0.1-0.1,0.3-0.2,0.4  c0,0.1,0,0.3-0.1,0.5c0,0.3,0,0.7,0.1,1c0,0.3,0.1,0.6,0.2,0.8c0.1,0.2,0.1,0.4,0.2,0.5c0.1,0.2,0.1,0.5,0.2,0.7  c0.1,0.3,0.2,0.6,0.3,0.9c0.2,0.5,0.3,1.1,0.4,1.6c0.1,0.5,0.2,1,0.3,1.6c0,0.1,0,0.2,0,0.3c0,0.2,0,0.4,0.1,0.6c0,0.2,0,0.5,0,0.7  c0,0.2,0,0.5,0,0.7c0,0.2,0.1,0.5,0.1,0.7c0.1,0.8,0.1,1.5,0.1,2.3c0,0.8,0,1.6,0,2.4c0,0.3,0.1,0.6,0.2,0.9  c0.1,0.2,0.1,0.4,0.2,0.6c0.1,0.4,0.2,0.7,0.4,1.1c0.1,0.3,0.2,0.7,0.3,1c0.1,0.2,0.1,0.3,0.2,0.5c0,0.1,0.1,0.1,0.2,0.2  c0,0,0,0,0,0c0,0.1,0,0.2,0,0.4c0,0.3,0,0.6-0.1,0.9c0,0.3-0.1,0.6-0.1,0.8c0,0.2,0,0.5,0,0.7c0,0.3-0.1,0.6-0.1,0.9  c0,0.1,0,0.3,0,0.4c0,0.1,0,0.1,0,0.2c0,0.1,0,0.1,0,0.2c0,0.2,0,0.4,0,0.6c0,0.1,0,0.2,0,0.3c0,0.2,0,0.3,0,0.5  c0,0.1,0.1,0.2,0.1,0.3c0,0.3,0.1,0.6,0.1,0.9c0,0.3,0.1,0.6,0.2,0.9c0.1,0.3,0.1,0.7,0.2,1c0,0.1,0,0.2,0.1,0.2  c0,0.4,0.1,0.9,0.1,1.3c0,0.2,0.1,0.5,0.2,0.7c0.1,0.2,0.3,0.4,0.5,0.5c0.2,0.1,0.5,0.2,0.7,0.2c0.1,0,0.3,0,0.4-0.1  c0.2,0,0.3-0.1,0.4-0.2c0.1,0.1,0.1,0.2,0.2,0.3c0.2,0.3,0.4,0.6,0.6,0.9c0,0,0-0.1-0.1-0.1c0.3,0.4,0.6,0.8,0.8,1.2  c0.3,0.4,0.5,0.7,0.8,1.1c-0.1,0.1-0.3,0.3-0.3,0.4c0,0.1-0.1,0.2-0.1,0.3c0,0.1-0.1,0.3,0,0.4c0,0.1,0,0.2,0,0.3  c0,0.1,0.1,0.3,0.2,0.4c0.1,0.2,0.2,0.3,0.3,0.4c0.1,0.1,0.1,0.2,0.2,0.3c0.3,0.3,0.5,0.6,0.8,0.9c0.3,0.3,0.5,0.5,0.8,0.8  c0.3,0.3,0.5,0.5,0.8,0.8c0.3,0.3,0.5,0.5,0.8,0.8c0.1,0.1,0.2,0.2,0.3,0.3c0.1,0.1,0.3,0.2,0.4,0.4c0.3,0.3,0.8,0.3,1.2,0.2  c0.2-0.1,0.4-0.2,0.6-0.4c0.3-0.3,0.4-0.6,0.4-1c0-0.4-0.1-0.9-0.2-1.3c0-0.2-0.1-0.4-0.1-0.6c-0.1-0.2-0.1-0.5-0.2-0.7  c0-0.2-0.1-0.3-0.1-0.5c0-0.1,0-0.1,0-0.2c0-0.1-0.1-0.3-0.1-0.4c-0.1-0.2-0.3-0.3-0.5-0.4c0,0,0,0,0,0c0-0.1,0-0.3-0.1-0.4  c-0.1-0.1-0.1-0.3-0.2-0.4c-0.2-0.4-0.4-0.7-0.7-1c-0.2-0.3-0.5-0.6-0.8-0.8c-0.2-0.2-0.3-0.3-0.5-0.4c-0.1-0.1-0.2-0.1-0.4-0.2  c-0.1,0-0.1,0-0.2,0c-0.1,0-0.2,0-0.3,0c-0.2,0.1-0.4,0.2-0.5,0.4c-0.1,0.1-0.1,0.3-0.1,0.4c0,0.1,0,0.2,0.1,0.3  c0.1,0.2,0.1,0.4,0.2,0.7c-0.1,0-0.2,0-0.4-0.1c-0.1-0.2-0.3-0.4-0.4-0.7c-0.1-0.1-0.1-0.3-0.2-0.4c-0.1-0.1-0.1-0.3-0.2-0.4  c-0.1-0.2-0.2-0.5-0.3-0.7c-0.1-0.2-0.2-0.4-0.3-0.6c-0.1-0.2-0.2-0.4-0.3-0.6c-0.1-0.2-0.3-0.4-0.4-0.6c-0.2-0.4-0.3-0.8-0.4-1.3  c-0.1-0.5-0.2-1.1-0.4-1.6c-0.1-0.3-0.2-0.6-0.3-0.9c0,0,0-0.1-0.1-0.1c-0.1-0.1-0.1-0.2-0.2-0.3c-0.1-0.1-0.2-0.2-0.3-0.2  C30,70,29.9,70,29.8,69.9c-0.2,0-0.3,0-0.5,0c0-0.1-0.1-0.3-0.1-0.4c-0.1-0.4-0.3-0.9-0.7-1.2c0-0.2-0.1-0.4-0.1-0.6  c0-0.3,0-0.6,0-0.9c0-0.2,0-0.4,0.1-0.5c0-0.2,0-0.4,0-0.5c0-0.4,0-0.8,0-1.2c0-0.2,0-0.4-0.1-0.6c0-0.2-0.1-0.4-0.1-0.7  c0,0,0,0.1,0,0.1c0-0.3-0.1-0.8-0.4-0.9c0,0,0,0,0,0c-0.1-0.1-0.2-0.1-0.3-0.1c0,0,0,0,0,0c0-0.1-0.1-0.2-0.1-0.4  c-0.1-0.3-0.1-0.5-0.2-0.8c-0.1-0.3-0.1-0.5-0.2-0.8c-0.1-0.4-0.2-0.7-0.3-1.1c0-0.2,0-0.3,0-0.5c0-0.2,0-0.4,0-0.6  c0-0.4,0-0.8,0-1.2c0-0.8,0-1.6-0.1-2.4c0-0.2,0-0.3,0-0.5c0.1,0,0.3-0.1,0.4-0.2c0,0,0.1-0.1,0.1-0.1c0.1-0.1,0.1-0.2,0.1-0.3  c0-0.4,0.1-0.7,0.1-1.1c0-0.4,0.1-0.8,0.1-1.1c0-0.2,0-0.4,0-0.6c0-0.2,0-0.4,0-0.6c0-0.4,0-0.8-0.1-1.2c0-0.3-0.1-0.7-0.1-1  c0-0.3,0-0.5-0.1-0.8c0-0.4-0.1-0.9-0.2-1.3c-0.1-0.4-0.2-0.7-0.2-1.1c0-0.2-0.1-0.4-0.1-0.5c0-0.2-0.1-0.4-0.1-0.5  c0-0.2,0-0.3-0.1-0.5c-0.1-0.5-0.1-1,0-1.4c0-0.3,0.1-0.5,0.2-0.8c0.1-0.2,0.1-0.4,0.2-0.7c0.1-0.4,0.2-0.8,0.4-1.2  c0.1-0.4,0.2-0.9,0.3-1.3c0.1-0.3,0.1-0.5,0.1-0.8c0-0.4,0.1-0.7,0.1-1.1c0-0.3,0-0.7,0-1c0-0.2,0-0.4-0.1-0.6  c0-0.2-0.2-0.3-0.2-0.5c-0.1-0.2-0.2-0.3-0.4-0.4c0,0,0,0,0,0c0,0,0.1,0,0.1-0.1c0.8-0.6,1.5-1.3,1.9-2.2c0.1-0.4,0.2-0.8,0-1.2  c-0.1-0.2-0.2-0.3-0.4-0.4c-0.1-0.1-0.3-0.1-0.4-0.1c-0.1,0-0.2,0-0.3,0c-0.1,0-0.3,0.1-0.4,0.2c-0.1,0-0.1,0.1-0.2,0.1  c-0.1,0.1-0.2,0.1-0.3,0.2c-0.4,0.3-0.7,0.5-1.1,0.8c0,0,0,0,0,0c-0.2-0.1-0.5-0.2-0.8-0.2c0.1-0.3,0.2-0.5,0.3-0.8  c0.5-1,0.9-2.1,1.4-3.1c0.1-0.2,0.2-0.4,0.3-0.6c0-0.1,0.1-0.1,0.1-0.2c0.1-0.2,0.3-0.4,0.4-0.7c0.1,0.1,0.3,0.1,0.4,0.2  c0.5,0.2,1,0.4,1.4,0.6c0.2,0.1,0.5,0.2,0.7,0.3c0.1,0,0.3,0.1,0.4,0.1c0.3,0.1,0.6,0.2,0.9,0.2c0.2,0,0.4-0.1,0.6-0.2  c0.3-0.1,0.5-0.4,0.5-0.7c0.1-0.2,0-0.4,0-0.6c0-0.2-0.2-0.4-0.3-0.5c-0.1-0.2-0.2-0.4-0.3-0.6c-0.1-0.2-0.1-0.3-0.2-0.5  c0,0.1,0.1,0.2,0.1,0.3c-0.2-0.5-0.3-1-0.4-1.5c0-0.4,0-0.7,0-1.1c0.1-0.5,0.2-1.1,0.4-1.6c-0.1,0.6-0.1,1.2,0,1.8  c0.1,0.5,0.1,1,0.3,1.5c0.1,0.2,0.2,0.5,0.3,0.7c0.1,0.1,0.1,0.2,0.2,0.3c0.1,0.1,0.2,0.1,0.4,0.2c0.2,0.1,0.4,0,0.5-0.1  c0.1-0.1,0.2-0.2,0.3-0.4c0,0,0,0,0.1,0.1c0.2,0.3,0.5,0.6,0.9,0.7c0.1,0,0.1,0.1,0.2,0.1c0.2,0,0.3,0,0.5,0  c0.3-0.1,0.6-0.3,0.6-0.6c0.1-0.2,0.1-0.5,0-0.7c0-0.1-0.1-0.2-0.1-0.3c-0.1-0.2-0.1-0.4-0.2-0.5c-0.2-0.7-0.4-1.4-0.5-2.1  c-0.1-0.7-0.1-1.5,0-2.2c0-0.2,0.1-0.5,0.1-0.7c0.1-0.2,0.1-0.5,0.2-0.7c0.2-0.4,0.4-0.8,0.6-1.1c0.1-0.1,0.2-0.3,0.3-0.4  c0.1-0.2,0.3-0.3,0.5-0.4c0.1-0.1,0.2-0.2,0.4-0.2c0.1,0,0.1,0,0.2-0.1c0,0,0,0,0,0c0,0,0,0,0,0c0,0,0,0,0,0c0,0,0,0,0,0  c0,0,0,0,0,0c0,0.1,0.1,0.2,0.1,0.3c0,0.5,0.1,1,0.1,1.5c-0.1,0.1-0.2,0.2-0.3,0.3c-0.2,0.2-0.4,0.5-0.5,0.8  c-0.1,0.2-0.2,0.5-0.3,0.7c-0.1,0.2-0.1,0.4-0.2,0.6c-0.1,0.3-0.1,0.6-0.1,0.8c0,0.2,0,0.4,0,0.7c0,0.3,0.1,0.6,0.1,0.8  c0,0.2,0.1,0.4,0.1,0.6c0.1,0.5,0.4,1,0.6,1.4c0,0.1,0.1,0.1,0.1,0.2c0,0,0,0.1,0,0.1c0.1,0.2,0.1,0.3,0.2,0.5  c0.1,0.2,0.3,0.5,0.5,0.7c0.2,0.2,0.4,0.4,0.7,0.6c0.3,0.2,0.5,0.2,0.8,0.2c0.4,0,0.9-0.2,1.2-0.5s0.5-0.7,0.5-1.2  c0-0.1,0-0.3-0.1-0.4c0-0.1-0.1-0.3-0.2-0.4c0,0,0,0,0,0c0,0,0,0,0,0c0-0.1-0.1-0.1-0.1-0.2c0,0-0.1-0.1-0.1-0.2  c0,0.1,0.1,0.1,0.1,0.2c0.2,0.2,0.4,0.5,0.6,0.7c0.1,0.1,0.3,0.2,0.4,0.3c0.1,0,0.1,0.1,0.2,0.1c0.1,0.1,0.3,0.1,0.4,0.2  c0.2,0.1,0.5,0.1,0.7,0c0.2-0.1,0.4-0.2,0.6-0.3c0.2-0.2,0.4-0.6,0.4-1c0-0.3-0.1-0.5-0.1-0.8c0,0,0.1,0,0.1,0.1  c0.1,0.1,0.3,0.1,0.4,0.2c0.2,0.1,0.5,0.1,0.7,0c0,0,0.1,0,0.1,0c0.1,0,0.3-0.1,0.4-0.2c0,0,0.1,0,0.1-0.1c0,0,0.1,0,0.1,0  c0.3,0.1,0.5,0.2,0.7,0.4c0,0,0,0,0,0c0.1,0.2,0.2,0.3,0.3,0.4c0.2,0.2,0.4,0.3,0.6,0.4c0.1,0,0.3,0.1,0.5,0c0.1,0,0.1,0,0.2,0.1  c0.2,0.1,0.3,0.1,0.5,0.1c0.1,0,0.3,0,0.4,0c0.1,0,0.3,0,0.4-0.1c0.1,0,0.3-0.1,0.4-0.2c0.1,0,0.1-0.1,0.2-0.1  c0.1-0.1,0.3-0.2,0.4-0.3c0.1-0.1,0.2-0.2,0.3-0.3c0.1-0.1,0.1-0.3,0.2-0.4c0-0.1,0.1-0.2,0.1-0.4c0,0.1,0,0.2,0,0.3  c0,0.2,0,0.3,0.1,0.5c0,0.1,0,0.1,0,0.2c0,0.1,0,0.2,0,0.3c0,0.2,0.1,0.5,0.1,0.7c0,0.1,0,0.2,0,0.3c0,0.2,0.1,0.5,0.2,0.7  c0.1,0.2,0.3,0.4,0.5,0.6c0.1,0,0.1,0.1,0.2,0.1c-0.1,0.3-0.1,0.7,0.1,1c0,0,0,0,0,0c0.1,0.2,0.3,0.3,0.5,0.5c0.1,0,0.2,0.1,0.3,0.1  c0.2,0.1,0.4,0.1,0.7,0c0.2,0,0.4-0.1,0.5-0.2c0.1,0,0.1-0.1,0.2-0.1c0.2-0.1,0.3-0.2,0.5-0.3c0.3-0.2,0.6-0.4,0.9-0.5  c0.3-0.2,0.6-0.4,1-0.6c0.3-0.2,0.7-0.4,1-0.5c0.1,0,0.1,0,0.2-0.1c0,0,0,0.1,0,0.1c0,0.1,0.1,0.2,0.1,0.4c0.1,0.3,0.2,0.5,0.4,0.7  c0.2,0.2,0.3,0.4,0.5,0.6c0.1,0.1,0.3,0.2,0.5,0.3c0.2,0.1,0.3,0.2,0.5,0.2c0.3,0.1,0.6,0.2,0.9,0.2c0.1,0,0.2,0,0.3,0  c0.1,0,0.3,0,0.4-0.1c0.1,0,0.2,0,0.4-0.1c0.3-0.1,0.5-0.1,0.8-0.2c0.7-0.2,1.3-0.5,1.9-0.9c0.3-0.2,0.5-0.4,0.8-0.7  c0.1-0.1,0.1-0.1,0.2-0.2c0.1-0.1,0.2-0.2,0.2-0.3c0.1-0.2,0.2-0.3,0.2-0.5c0.2-0.5-0.2-1.1-0.7-1.2c-0.2-0.1-0.5-0.1-0.7,0  c-0.1,0-0.1,0-0.2,0.1c-0.1,0.1-0.3,0.1-0.4,0.2c-0.4,0.1-0.8,0.3-1.3,0.4c-0.3,0-0.5,0-0.8,0c-0.1,0-0.2,0-0.3-0.1  c0.1-0.1,0.3-0.2,0.4-0.4c0.4-0.4,0.8-0.7,1.2-1.1c0.4-0.4,0.8-0.7,1.2-1.1c0.1-0.1,0.2-0.2,0.2-0.2c0.1-0.1,0.2-0.2,0.3-0.2  c0.1-0.1,0.2-0.2,0.3-0.3c0.1-0.1,0.3-0.2,0.3-0.4c0.1-0.1,0.1-0.2,0.2-0.4c0.1-0.2,0-0.4,0-0.6c-0.1-0.4-0.4-0.7-0.8-0.8  c-0.2-0.1-0.4-0.1-0.6,0c-0.2,0.1-0.4,0.2-0.5,0.3c-0.5,0.4-0.9,0.8-1.3,1.3c-0.1,0.1-0.2,0.3-0.4,0.4c-0.1,0.1-0.1,0.1-0.2,0.2  c-0.4,0.4-0.8,0.8-1.2,1.1c0,0-0.1,0-0.1,0c0,0-0.1,0-0.1,0c0.1-0.3,0.3-0.6,0.4-0.8c0.2-0.4,0.4-0.7,0.5-1.1c0-0.1,0.1-0.2,0.1-0.3  c0.1,0,0.1-0.1,0.2-0.2c0.1-0.1,0.2-0.3,0.2-0.5c0.1-0.2,0.1-0.3,0.2-0.5c0.1-0.3,0.3-0.6,0.4-1c0.1-0.3,0.2-0.6,0.3-0.8  c0.1-0.5,0.2-0.9,0.2-1.4c0-0.1,0-0.2,0-0.4c0,0,0,0,0.1,0c0.2,0,0.4,0,0.6,0c0.1,0,0.3,0,0.4,0c0.1,0.1,0.2,0.2,0.2,0.3  c0,0,0,0,0,0.1c0.1,0.2,0.3,0.3,0.4,0.4c0.2,0.1,0.3,0.3,0.5,0.4c0.1,0.1,0.2,0.2,0.3,0.2c0.1,0.1,0.2,0.1,0.4,0.2  c0,0.1,0,0.2,0,0.3c0,0.2,0.1,0.3,0.2,0.4c0.1,0.1,0.1,0.3,0.2,0.4c0,0.1,0,0.1,0.1,0.2c0,0.1,0.1,0.2,0.2,0.3  c0.1,0.1,0.1,0.2,0.2,0.2c0.1,0.1,0.3,0.2,0.5,0.4c0.2,0.2,0.5,0.2,0.7,0.2c0.3,0,0.6,0,0.9,0c0.1,0,0.1,0,0.2,0  c-0.1,0-0.1,0.1-0.2,0.1c-0.1,0.1-0.3,0.2-0.4,0.3c-0.2,0.2-0.4,0.5-0.4,0.7c-0.1,0.2-0.1,0.4,0,0.6c0,0.1,0.1,0.3,0.2,0.4  c0.1,0.1,0.1,0.2,0.2,0.3c0.1,0.1,0.1,0.1,0.2,0.2c0,0,0.1,0.1,0.1,0.1c0,0,0,0.1,0,0.1c0,0.2,0,0.3,0.1,0.5c0,0.3,0.2,0.6,0.3,0.8  c0.1,0.2,0.2,0.4,0.3,0.6c0.2,0.3,0.3,0.6,0.5,0.9c0,0.1,0,0.1,0.1,0.2c-0.1,0.1-0.2,0.1-0.3,0.2c-0.3,0.1-0.6,0.3-0.8,0.4  c-0.4,0.2-0.9,0.4-1.4,0.6c-0.2,0.1-0.5,0.2-0.7,0.3c-0.5,0.2-1,0.4-1.5,0.5c-0.1,0-0.1,0-0.2,0c-0.7,0.2-1.2,0.9-1.2,1.6  c0,0.4,0.2,0.8,0.5,1.1c0.1,0.1,0.2,0.2,0.3,0.3c0.3,0.1,0.5,0.2,0.8,0.2c0.3,0,0.5-0.1,0.8-0.1c0.2,0,0.3-0.1,0.5-0.2  c0.2-0.1,0.4-0.1,0.6-0.2c0.4-0.2,0.8-0.3,1.3-0.5c0.3-0.1,0.5-0.2,0.7-0.4c0,0.1,0,0.3,0,0.4c0,0.1,0.1,0.2,0.1,0.3  c0,0,0.1,0.1,0.1,0.1c-0.2,0.2-0.5,0.4-0.7,0.7c-0.3,0.3-0.5,0.7-0.6,1.1c-0.1,0.3,0,0.5,0,0.8c0.1,0.4,0.4,0.6,0.7,0.8  c0.2,0.1,0.5,0.2,0.7,0.2c0.1,0,0.3,0,0.4-0.1c0.1,0,0.1,0,0.2,0c0.3-0.1,0.5-0.2,0.7-0.3c0.6-0.3,1.2-0.7,1.6-1.1c0,0,0,0,0,0.1  c0,0.2,0,0.5,0,0.7c0,0.3,0,0.5,0,0.8c0,0.5,0.1,1.1,0.3,1.6c0.1,0.4,0.2,0.8,0.3,1.2c0.1,0.4,0.2,0.8,0.3,1.2c0,0,0,0.1,0,0.1  C74.2,37.3,74,38,74,38.7c0,0.2,0,0.4,0,0.6c0,0.2,0,0.4,0,0.6c0,0.4,0,0.8,0,1.1c0,0.7,0,1.4,0,2.2c0,0,0,0.1,0,0.1  c0-0.2-0.1-0.4-0.1-0.6c0,0,0-0.1,0-0.1c0-0.3,0-0.6-0.1-0.9c-0.1-0.2-0.2-0.4-0.4-0.6c-0.2-0.2-0.4-0.3-0.6-0.4  c-0.5-0.1-1,0-1.4,0.4c-0.1,0.1-0.2,0.2-0.3,0.3c-0.1,0.1-0.1,0.3-0.2,0.4c0,0.1,0,0.2,0,0.2c0,0.1,0,0.3-0.1,0.4  c0,0.3-0.1,0.6-0.1,0.9c0,0.3-0.1,0.6-0.1,0.9c-0.1,0.5-0.2,0.9-0.2,1.4c0,0.3-0.1,0.6-0.1,0.9c0,0.4,0,0.7,0,1.1  c0,0.6-0.1,1.2-0.1,1.8c0,0.1,0,0.2,0,0.4c0,0,0-0.1,0-0.1c0,0.1,0,0.3-0.1,0.4c0,0.2-0.1,0.4-0.1,0.5c0,0.2,0,0.3,0,0.5  c0,0.1,0.1,0.2,0.2,0.4c0.1,0.2,0.3,0.3,0.5,0.5c0.2,0.1,0.3,0.1,0.5,0.2c0,0,0,0,0,0c0,0.4-0.1,0.8-0.1,1.1c0,0.4-0.1,0.7-0.1,1.1  c0,0.8-0.1,1.6-0.1,2.3c0,0.2,0,0.4,0,0.6c0,0.1,0,0.1,0,0.2c0,0.1,0,0.2,0,0.2c0,0.2,0.1,0.3,0.2,0.4c0.1,0.1,0.3,0.2,0.4,0.2  c0.1,0,0.1,0,0.2,0c0,0,0,0,0,0.1c0.1,0.1,0.2,0.2,0.3,0.3c0.2,0.1,0.5,0.2,0.7,0.1c0.2-0.1,0.4-0.2,0.5-0.4c0-0.1,0.1-0.1,0.1-0.2  c0-0.2,0-0.3,0-0.5c0-0.1,0-0.2,0-0.3c0-0.1,0-0.2,0-0.3c0-0.2,0-0.3,0.1-0.5c0-0.2,0-0.3,0.1-0.5c0-0.1,0-0.1,0-0.2  c0-0.3-0.1-0.7-0.3-0.9c-0.1-0.1-0.2-0.1-0.2-0.2C72.6,55,72.5,55,72.2,55c-0.1,0-0.3,0-0.4,0.1c0,0,0,0,0,0c0-0.3-0.1-0.6,0-0.8  c0-0.3,0.1-0.6,0.1-0.9c0-0.3,0-0.6,0-0.9c0-0.2,0-0.3,0-0.5c0,0,0,0,0,0c0.1-0.1,0.1-0.2,0.2-0.3l0,0c0.1-0.2,0.2-0.3,0.2-0.5  c0-0.1,0-0.1,0.1-0.2c0,0,0,0,0-0.1c0,0,0,0,0,0c0.1-0.1,0.2-0.2,0.3-0.3c0.2-0.2,0.4-0.5,0.6-0.7c0.1-0.1,0.2-0.2,0.4-0.3  c0.2-0.2,0.3-0.4,0.5-0.5c0.1-0.2,0.2-0.3,0.3-0.5c0,0,0.1-0.1,0.1-0.1c0.2-0.1,0.3-0.3,0.3-0.6c0-0.4-0.3-0.6-0.6-0.6  c-0.2,0-0.3,0-0.5,0.1c-0.1,0.1-0.3,0.1-0.4,0.2c-0.1,0.1-0.3,0.1-0.4,0.2c0,0,0,0-0.1,0c0-0.2,0-0.4,0-0.6c0,0,0-0.1,0-0.1  c0,0,0.1,0,0.1,0.1c0,0,0,0,0.1,0c0.1,0.1,0.3,0.1,0.4,0.1c0.1,0,0.2,0,0.3,0c0.1,0,0.1-0.1,0.2-0.1c0.1-0.1,0.1-0.1,0.2-0.2  c0.1-0.1,0.2-0.2,0.3-0.4c0.1-0.2,0.2-0.5,0.3-0.7c0.1-0.2,0.1-0.3,0.2-0.5c0.1-0.2,0.1-0.4,0.2-0.6c0.1-0.4,0.2-0.8,0.3-1.3  c0.2-0.9,0.2-1.8,0.2-2.6c0-0.8,0-1.5,0-2.3c0-0.1,0-0.2,0-0.3c0.3-0.1,0.6-0.3,0.7-0.6c0.1-0.2,0.2-0.5,0.3-0.8  c0.1-0.3,0.2-0.6,0.3-0.9c0.1-0.4,0.2-0.9,0.3-1.3c0-0.2,0.1-0.4,0.1-0.6c0-0.3,0.1-0.5,0.1-0.8c0-0.2,0.1-0.4,0.1-0.6  c0-0.2,0.1-0.4,0.1-0.7c0-0.4,0.1-0.8,0.1-1.2c0-0.3,0-0.6-0.1-0.9c0-0.3-0.1-0.5-0.3-0.8c-0.3-0.6-0.8-1-1.3-1.3  c-0.1-0.1-0.3-0.1-0.5-0.2c-0.1,0-0.2-0.1-0.4-0.1c-0.2-0.1-0.5-0.1-0.7-0.2c0,0,0,0,0,0c0.1-0.1,0.1-0.3,0.1-0.4  c0.1-0.2,0.1-0.3,0.2-0.5c0.1-0.2,0.1-0.3,0.2-0.5c0.1-0.2,0.1-0.5,0.1-0.7c0-0.4-0.2-0.8-0.5-1.1c-0.2-0.2-0.5-0.4-0.7-0.5  c-0.1,0-0.3-0.1-0.4-0.1c-0.2,0-0.3,0-0.5,0c-0.1-0.1-0.1-0.3-0.2-0.4c-0.1-0.2-0.3-0.4-0.5-0.7c0,0,0,0,0.1,0  c0.1,0,0.2-0.1,0.3-0.1c0.1,0,0.1-0.1,0.2-0.1c0.1-0.1,0.1-0.2,0.2-0.3c0.1-0.1,0.1-0.3,0.1-0.4c0-0.1,0-0.3-0.1-0.4  c0-0.1-0.1-0.2-0.1-0.3c0.1-0.1,0.2-0.2,0.3-0.3c0-0.1,0.1-0.2,0.1-0.3c0.1-0.2,0.1-0.4,0-0.6c0-0.1-0.1-0.2-0.1-0.3  c-0.1-0.2-0.3-0.3-0.4-0.4c0,0-0.1-0.1-0.2-0.1c0-0.2,0.1-0.4,0.2-0.7c0-0.1,0.1-0.2,0.1-0.3c0,0,0,0,0,0c0,0,0,0,0,0  c0.1-0.1,0.1-0.3,0.1-0.4c0-0.2-0.1-0.4-0.2-0.6c-0.1-0.1-0.4-0.3-0.6-0.2c-0.1,0-0.2,0-0.3,0c-0.2,0-0.3,0.2-0.4,0.3c0,0,0,0,0,0  c-0.2,0.1-0.4,0.1-0.6,0.2c-0.2,0-0.3,0-0.5,0c-0.2,0-0.4,0-0.6,0c-0.2,0-0.4,0-0.6,0c-0.2,0-0.3,0-0.5,0.1c0,0,0,0,0,0  c0,0-0.1-0.1-0.1-0.1c0-0.1,0-0.1-0.1-0.2c0.1,0,0.2,0.1,0.4,0.1c0.2,0.1,0.5,0.1,0.8,0.1c0.2,0,0.5,0,0.7-0.1  c0.2-0.1,0.5-0.2,0.6-0.4c0.3-0.3,0.4-0.7,0.4-1c0-0.3-0.1-0.5-0.2-0.7c-0.1-0.1-0.2-0.2-0.2-0.3c-0.2-0.2-0.4-0.3-0.6-0.4  c-0.1-0.1-0.3-0.1-0.4-0.1c-0.1,0-0.3-0.1-0.4-0.1c-0.1,0-0.2-0.1-0.3-0.1c-0.4-0.2-0.9-0.4-1.3-0.6c-0.2-0.1-0.4-0.2-0.6-0.3  c0-0.1-0.1-0.2-0.1-0.2c-0.1-0.2-0.3-0.4-0.5-0.5c-0.3-0.1-0.3-0.1-0.7-0.2c-0.2,0-0.4,0-0.5,0.1c-0.1,0-0.2,0.1-0.3,0.1  c-0.1,0.1-0.2,0.1-0.3,0.2c-0.1,0-0.2,0-0.3,0c-0.3,0-0.5,0.1-0.8,0.1c-0.1,0-0.1,0-0.2,0c-0.1-0.1-0.2-0.1-0.3-0.2  c-0.2-0.1-0.4-0.2-0.6-0.2c-0.2,0-0.3,0-0.4,0.1c-0.1,0.1-0.2,0.2-0.3,0.3c-0.1,0.2-0.2,0.6,0,0.8c0,0,0,0,0,0  c0,0.2,0.1,0.3,0.1,0.5c0,0.1,0,0.2,0,0.3c0,0.4,0,0.8,0,1.2c-0.1,0.4-0.2,0.7-0.3,1.1c0,0,0,0.1,0,0.1c-0.1,0-0.2,0-0.3,0.1  c-0.2,0.1-0.3,0.3-0.4,0.5c-0.1,0.4-0.2,0.8-0.4,1.2c-0.1,0.2-0.2,0.4-0.3,0.6c0-0.1,0-0.3,0-0.4c0-0.1,0-0.2-0.1-0.3  c0-0.2,0-0.4,0-0.5c0-0.2,0-0.5,0-0.7c0-0.3,0-0.6,0-1c0,0,0,0,0.1-0.1c0,0,0,0,0,0c0.1-0.1,0.2-0.2,0.2-0.3c0.1-0.2,0-0.4-0.1-0.6  c0-0.1-0.1-0.1-0.1-0.2c0-0.1,0-0.2,0-0.3c0.1-0.4,0.1-0.8,0.2-1.2c0.1,0,0.1,0,0.2-0.1c0.2-0.1,0.4-0.2,0.5-0.3  c0.1-0.1,0.2-0.1,0.3-0.2c0.2-0.2,0.2-0.3,0.3-0.5c0-0.1,0-0.2,0.1-0.4c0-0.1,0-0.3,0-0.4c0-0.2-0.1-0.3-0.2-0.5  c-0.1-0.1-0.2-0.2-0.3-0.3c-0.1-0.1-0.2-0.2-0.3-0.2c-0.4-0.3-0.8-0.5-1.3-0.8c-0.2-0.1-0.4-0.2-0.6-0.3c-0.1-0.1-0.2-0.1-0.3-0.1  c-0.1,0-0.2-0.1-0.2-0.1c-0.2-0.1-0.3-0.1-0.5-0.1c-0.3,0-0.6-0.1-0.9-0.1c-0.1,0-0.3,0-0.4,0c-0.1,0-0.2,0-0.3,0  c0.1-0.1,0.2-0.3,0.2-0.4c0.1-0.4,0-0.9-0.3-1.2c-0.2-0.2-0.4-0.3-0.6-0.4c-0.1,0-0.3,0-0.4-0.1c-0.1,0-0.2,0-0.2,0  c-0.2,0-0.4,0-0.7,0.1c-0.2,0-0.5,0.1-0.7,0.1c-0.3,0-0.5,0.1-0.8,0.1c-0.2,0-0.5,0-0.8,0.1c-0.4,0-0.9,0.1-1.3,0.1  c-0.4,0-0.9,0-1.3,0c-0.2,0-0.3-0.1-0.5-0.1c-0.2-0.1-0.5-0.2-0.7-0.3C48.3,7,48.1,7,48,7c-0.2-0.1-0.5-0.1-0.7-0.1  c-0.1,0-0.2,0-0.3,0C46.8,6.8,46.5,6.9,46.3,6.9L46.3,6.9L46.3,6.9z M47.8,8.9c0.1,0,0.1,0,0.2,0c0.3,0.1,0.6,0.3,0.9,0.4  c0.2,0.1,0.5,0.2,0.7,0.2c0.1,0,0.3,0,0.4,0.1c0.2,0,0.5,0.1,0.7,0.1c0.2,0,0.5,0,0.7,0c0.1,0,0.2,0,0.3,0c0,0,0,0,0,0  c0,0.1,0,0.2,0,0.4c0.1,0.2,0.2,0.4,0.3,0.6c0.1,0.1,0.2,0.2,0.3,0.3c0.1,0,0.2,0.1,0.3,0.1c0.1,0,0.2,0,0.3,0  c-0.1,0.1-0.2,0.3-0.3,0.4c-0.3,0.4-0.5,0.8-0.6,1.3c-0.1,0.2-0.1,0.3-0.1,0.5c0,0.2-0.1,0.3,0,0.5c0,0.1,0,0.2,0,0.4  c0,0.1,0.1,0.3,0.2,0.4c0.1,0.2,0.2,0.3,0.3,0.4c0,0.1,0,0.1-0.1,0.2c-0.1,0.2-0.1,0.5-0.2,0.7c-0.1,0.4-0.2,0.7-0.3,1.1  c0,0.2-0.1,0.4-0.1,0.6c0,0.1-0.1,0.3-0.1,0.4c-0.1,0.5-0.2,0.9-0.2,1.4c-0.1,0.4-0.1,0.8-0.1,1.2c0,0.1,0,0.2,0,0.3  c0-0.1,0-0.2,0-0.2c0-0.2,0-0.4-0.1-0.5c0-0.1,0-0.2-0.1-0.3c0-0.1-0.1-0.2-0.1-0.3c-0.1-0.2-0.3-0.3-0.5-0.5  c-0.2-0.1-0.4-0.2-0.6-0.2c-0.2,0-0.4,0.1-0.6,0.2c-0.1,0.1-0.2,0.1-0.3,0.2c-0.1,0.1-0.2,0.2-0.2,0.3c0,0,0-0.1,0-0.1  c0-0.3,0-0.6,0.1-0.8c0.1-0.7,0.3-1.4,0.5-2c0.1-0.2,0.2-0.4,0.3-0.6c0.1-0.2,0.1-0.3,0.2-0.5c0.1-0.2,0.1-0.3,0.1-0.5  c0-0.2,0-0.4-0.1-0.6c-0.1-0.1-0.1-0.2-0.2-0.3c-0.1-0.1-0.1-0.1-0.2-0.2C49.4,14,49.2,14,49,14c-0.2,0-0.3,0-0.4,0.1  c-0.4,0.1-0.7,0.3-1,0.6c-0.1,0.1-0.2,0.1-0.3,0.2c-0.2,0.1-0.3,0.3-0.4,0.5c-0.2,0.2-0.4,0.4-0.5,0.7c0,0,0-0.1,0-0.1  c0-0.1,0-0.2,0-0.3c-0.1-0.2-0.2-0.4-0.3-0.5c-0.2-0.2-0.4-0.3-0.7-0.4c-0.3-0.1-0.7,0-1,0.1c-0.5,0.2-1,0.4-1.5,0.7  c-0.3,0.1-0.6,0.2-1,0.3c-0.1,0-0.2,0-0.3,0c-0.1,0-0.1,0-0.2-0.1c0,0,0,0-0.1,0c0,0,0,0,0,0c0-0.1-0.1-0.1-0.1-0.2  C41,15,41,14.8,41,14.6c0-0.2,0-0.5,0-0.7c0.1-0.4,0.2-0.8,0.3-1.2c0.2-0.4,0.4-0.8,0.6-1.1c0.1-0.1,0.1-0.1,0.2-0.2  c0.3,0.2,0.8,0.2,1.2,0c0.2-0.1,0.3-0.2,0.5-0.4c0,0,0.1,0,0.1-0.1c0.3-0.2,0.7-0.5,1-0.7c0.3-0.2,0.6-0.4,0.9-0.6  c0.4-0.2,0.7-0.5,1.1-0.7C47,9,47.1,9,47.3,8.9C47.4,8.9,47.6,8.9,47.8,8.9L47.8,8.9L47.8,8.9z M57.7,11.7c0,0.2,0,0.4,0,0.6  c0.1,0.6,0.2,1.2,0.4,1.7c0,0.1,0.1,0.2,0.1,0.3c0,0.1,0,0.2,0,0.2c-0.1,0.6-0.1,1.2-0.1,1.7C58,17.1,58,18,58.2,18.9  c0.1,0.3,0.2,0.6,0.4,0.9c0.1,0.1,0.2,0.2,0.3,0.2c0.1,0.1,0.3,0.1,0.4,0.1c0.1,0,0.2,0,0.4-0.1c-0.1,0.2-0.3,0.4-0.4,0.6  c-0.1,0.1-0.2,0.3-0.3,0.4c-0.1,0.2-0.3,0.5-0.3,0.8c-0.1,0.2,0,0.5,0,0.7c0,0,0,0,0,0c-0.1,0-0.2,0-0.3,0c-0.3,0-0.7,0.1-1,0.2  c-0.3,0.1-0.5,0.2-0.7,0.3c0-0.3,0.1-0.5,0.1-0.8c0-0.2,0-0.5,0-0.7c0-0.1,0-0.2,0-0.3c0,0,0,0,0,0c0.1-0.4,0.2-0.7,0.2-1.1  c0.1-0.5,0.1-0.9,0.2-1.4c0-0.3,0.1-0.7,0.1-1c0-0.3,0-0.7-0.1-1c-0.1-0.2-0.2-0.4-0.3-0.6c-0.1-0.1-0.3-0.2-0.5-0.3  c-0.1,0-0.2,0-0.3,0c-0.2,0-0.4,0.1-0.6,0.2c-0.2,0.1-0.4,0.4-0.5,0.7c0,0.1,0,0.2-0.1,0.4c0,0.2,0,0.4-0.1,0.5  c0,0.2-0.1,0.4-0.1,0.7c0,0.4-0.1,0.8-0.1,1.3c0,0.4,0,0.8,0,1.2c0,0.1,0,0.1,0,0.2c-0.1,0.2-0.1,0.3-0.2,0.5  c-0.2,0.4-0.3,0.7-0.5,1.1c-0.2,0.3-0.3,0.6-0.5,0.9c-0.1,0.1-0.1,0.2-0.2,0.2c0-0.1,0-0.3,0-0.4c0-0.1,0-0.2,0-0.3  c0-0.1,0-0.2,0-0.3c0,0,0,0,0-0.1c0-0.1,0-0.2-0.1-0.3c0-0.2,0-0.5,0.1-0.7c0.1-0.5,0.1-0.9,0.2-1.4c0-0.2,0.1-0.4,0.1-0.7  c0.1-0.3,0.1-0.6,0.2-0.9c0.1-0.4,0.2-0.9,0.3-1.3c0.1-0.2,0.1-0.5,0.2-0.7c0.1-0.3,0.2-0.5,0.3-0.8c0-0.1,0.1-0.2,0.1-0.3  c0.1-0.1,0.1-0.3,0.2-0.4c0.1-0.3,0.3-0.5,0.5-0.8c0,0,0,0,0,0c0.1-0.1,0.1-0.1,0.2-0.2c0,0,0,0,0.1-0.1c0.2-0.2,0.3-0.4,0.4-0.6  c0.1-0.3,0-0.7-0.2-1c0.2-0.1,0.5-0.3,0.7-0.4c0.3-0.1,0.6-0.2,0.9-0.3C57.5,11.7,57.6,11.7,57.7,11.7L57.7,11.7L57.7,11.7z   M66.7,14.4C66.7,14.4,66.7,14.4,66.7,14.4C66.7,14.4,66.7,14.4,66.7,14.4C66.7,14.4,66.7,14.4,66.7,14.4L66.7,14.4L66.7,14.4z   M37.8,14.4C37.8,14.4,37.8,14.4,37.8,14.4C37.8,14.4,37.8,14.4,37.8,14.4L37.8,14.4L37.8,14.4z M37.8,14.4  C37.8,14.4,37.8,14.5,37.8,14.4C37.8,14.5,37.8,14.4,37.8,14.4L37.8,14.4L37.8,14.4z M37.9,14.5C37.9,14.5,37.9,14.5,37.9,14.5  C37.9,14.5,37.9,14.5,37.9,14.5C37.9,14.5,37.9,14.5,37.9,14.5L37.9,14.5L37.9,14.5z M37.9,14.5C37.9,14.5,37.9,14.5,37.9,14.5  C37.9,14.5,37.9,14.5,37.9,14.5C37.9,14.5,37.9,14.5,37.9,14.5L37.9,14.5L37.9,14.5z M40,17.5C40,17.5,40,17.5,40,17.5  C40,17.5,40,17.5,40,17.5C40,17.5,40,17.5,40,17.5L40,17.5L40,17.5z M42.7,17.8c0.1,0,0.2,0,0.3-0.1c-0.1,0.4-0.1,0.7-0.1,1.1  c0,0.1,0,0.3,0,0.4c0,0.2,0,0.4,0.1,0.6c0,0-0.1,0.1-0.1,0.1c0,0,0,0.1-0.1,0.1c0,0-0.1,0.1-0.1,0.1c0-0.2-0.1-0.3-0.1-0.5  c-0.1-0.6-0.1-1.2-0.1-1.8C42.6,17.9,42.6,17.9,42.7,17.8L42.7,17.8L42.7,17.8z M33.7,19c0,0.2,0,0.5,0,0.7c0-0.1-0.1-0.2-0.1-0.3  C33.7,19.3,33.7,19.2,33.7,19L33.7,19L33.7,19z M72.5,19.4C72.5,19.4,72.5,19.4,72.5,19.4C72.5,19.4,72.5,19.4,72.5,19.4L72.5,19.4  L72.5,19.4z M40.3,20.9c0,0.1,0,0.2,0.1,0.2c0.1,0.3,0.2,0.6,0.4,1c0,0,0,0,0,0.1c-0.1-0.1-0.1-0.2-0.2-0.3  C40.4,21.6,40.3,21.3,40.3,20.9L40.3,20.9L40.3,20.9z M50.8,21.3c0,0-0.1,0.1-0.1,0.1C50.7,21.4,50.7,21.4,50.8,21.3  C50.7,21.4,50.8,21.4,50.8,21.3L50.8,21.3L50.8,21.3z M29.4,22.9C29.4,22.9,29.4,22.9,29.4,22.9c0,0.1,0,0.2,0.1,0.3  c0,0.1,0.1,0.3,0.1,0.4c0,0-0.1-0.1-0.1-0.1c0,0,0-0.1,0-0.1c-0.1-0.1-0.1-0.1-0.2-0.2C29.3,23.1,29.3,23,29.4,22.9L29.4,22.9  L29.4,22.9z M72.1,27c0,0.1-0.1,0.1-0.1,0.2c0,0-0.1,0-0.1,0C71.9,27.1,72,27,72.1,27L72.1,27L72.1,27z M74.1,29.9  c0.1-0.2,0.2-0.4,0.2-0.6c0,0,0,0,0,0c0.2,0.1,0.5,0.1,0.7,0.2c0.1,0.1,0.2,0.1,0.4,0.2c0.1,0,0.1,0.1,0.1,0.1  c0,0.1,0.1,0.1,0.1,0.2c0,0.1,0.1,0.2,0.1,0.4c0,0.5,0,0.9,0,1.4c0,0.3-0.1,0.6-0.1,1c0,0.1,0,0.2,0,0.3c-0.1-0.2-0.1-0.5-0.2-0.7  c-0.1-0.3-0.2-0.7-0.2-1c0-0.2,0-0.3-0.1-0.5c0-0.2-0.1-0.3-0.2-0.4c-0.2-0.2-0.4-0.3-0.6-0.3c-0.1,0-0.2,0-0.3,0  C74,30.1,74,30,74.1,29.9L74.1,29.9L74.1,29.9z M71.1,31.4C71.1,31.5,71.1,31.5,71.1,31.4C71.1,31.5,71.1,31.5,71.1,31.4  C71.1,31.4,71.1,31.4,71.1,31.4L71.1,31.4L71.1,31.4z M25.3,33.1c0.1,0,0.1,0,0.2,0c0,0.1,0.1,0.2,0.1,0.2c0.1,0.1,0.1,0.2,0.2,0.3  c-0.1,0-0.1,0-0.1,0.1c-0.3,0.1-0.4,0.4-0.6,0.6c0,0,0,0,0,0c0-0.3,0-0.7,0-1c0,0,0-0.1,0-0.1C25.2,33.1,25.3,33.1,25.3,33.1  L25.3,33.1L25.3,33.1z M25.5,51.5C25.5,51.5,25.5,51.5,25.5,51.5C25.5,51.5,25.5,51.5,25.5,51.5L25.5,51.5L25.5,51.5z"/><path d="M70.9,59.3c-0.1,0-0.3,0.1-0.3,0.3c-0.1,0.2-0.2,0.3-0.2,0.5c-0.1,0.2-0.1,0.3-0.2,0.5c-0.1,0.3-0.3,0.7-0.4,1  c-0.1,0.2-0.2,0.4-0.2,0.5c-0.1,0.2-0.2,0.3-0.2,0.5c-0.1,0.2-0.2,0.3-0.3,0.5c0,0.1-0.1,0.1-0.1,0.2c-0.1,0.1-0.1,0.3-0.2,0.4  c-0.1,0.2-0.1,0.3-0.2,0.5c0,0.1-0.1,0.3-0.1,0.5c0,0.1,0,0.2,0,0.3c0,0.3,0,0.7,0,1c0,0.4,0.1,0.8,0.1,1.2c0,0.4,0.1,0.8,0.1,1.1  c0,0.7,0,1.4,0,2c0,0.2,0,0.3,0,0.5c0,0.1,0,0.2,0,0.4c0,0,0,0,0,0c-0.2,0.1-0.3,0.3-0.3,0.5c-0.1,0.1-0.1,0.3-0.1,0.5  c0,0.2-0.1,0.4-0.1,0.5c-0.1,0.3-0.1,0.6-0.2,0.9c0,0,0,0.1,0,0.1c-0.1,0-0.1,0-0.2,0c-0.1,0-0.2,0-0.3,0.1c0,0,0,0,0,0  c-0.1,0.1-0.2,0.1-0.2,0.2c0,0.1-0.1,0.1-0.1,0.2c-0.1,0.3-0.3,0.7-0.4,1c0,0.1-0.1,0.2-0.1,0.3c-0.1,0-0.2,0-0.3,0  c-0.2,0.1-0.3,0.2-0.4,0.4c0,0.1-0.1,0.3-0.1,0.4c0,0.1,0,0.2,0,0.3c0,0.2,0,0.4-0.1,0.6c0,0.2,0,0.4,0,0.5c0,0.1,0,0.2,0,0.3  c-0.1-0.1-0.2-0.3-0.4-0.4c-0.3-0.2-0.7-0.2-0.9,0c-0.1,0.1-0.1,0.1-0.2,0.2c-0.1,0.1-0.1,0.1-0.2,0.2c0,0-0.1,0.1-0.1,0.1  c-0.1,0.1-0.1,0.1-0.1,0.2c-0.1,0.2-0.2,0.3-0.3,0.5c-0.1,0.2-0.2,0.4-0.3,0.5c-0.1,0-0.2,0-0.2,0c0-0.1-0.1-0.2-0.1-0.3  c0,0,0,0.1,0,0.1c-0.1-0.3-0.2-0.6-0.4-0.9c-0.1-0.2-0.2-0.3-0.3-0.4c-0.1-0.1-0.2-0.2-0.3-0.2c0,0,0,0,0,0  c-0.2-0.1-0.4-0.2-0.6-0.2c-0.1,0-0.3,0-0.4,0.1c-0.2,0-0.4,0.2-0.6,0.3c-0.1,0.1-0.3,0.4-0.3,0.6c0,0.1,0,0.3-0.1,0.4  c0,0.1,0,0.1,0,0.2c0,0.1,0,0.3,0.1,0.4c0.1,0.3,0.1,0.6,0.2,0.9c0,0.3,0.1,0.5,0.1,0.8c0,0.3,0.1,0.7,0.1,1c0,0.1,0,0.2,0,0.3  c0,0.2,0,0.4,0,0.6c0,0.1,0,0.2,0,0.3c-0.1,0-0.1,0-0.2,0c-0.2,0-0.3,0.2-0.4,0.3c-0.2,0.2-0.3,0.5-0.4,0.7c0,0.1-0.1,0.2-0.1,0.3  c0,0,0,0,0,0c-0.1-0.1-0.3-0.2-0.4-0.2c-0.1,0-0.2,0-0.3,0c-0.2,0-0.3,0-0.5,0.1c-0.2,0.1-0.3,0.3-0.4,0.4c-0.1,0.1-0.1,0.2-0.2,0.3  c-0.1,0.1-0.2,0.3-0.2,0.5c0,0.1-0.1,0.2-0.1,0.3c-0.1,0-0.2-0.1-0.3-0.1c-0.2-0.1-0.3,0-0.5,0c-0.2,0-0.3,0.1-0.5,0.3  c-0.2,0.1-0.2,0.3-0.3,0.5c-0.1,0.1-0.1,0.3-0.2,0.4c-0.1,0.2-0.1,0.4-0.2,0.6c0,0,0,0,0,0c-0.1-0.1-0.1-0.2-0.2-0.2  c-0.2-0.2-0.5-0.3-0.7-0.3c-0.1,0-0.2,0-0.3,0c-0.1,0-0.3,0.2-0.4,0.2c0,0,0,0,0,0c-0.1,0.1-0.2,0.2-0.2,0.4c0,0,0,0.1,0,0.1  c0,0.1,0,0.1,0,0.2c-0.3,0.1-0.6,0.4-0.6,0.7c0,0.3,0,0.6,0,0.8c0,0.3,0,0.5-0.1,0.8c-0.1-0.3-0.2-0.6-0.3-0.8  c-0.1-0.1-0.1-0.3-0.2-0.4c-0.1-0.2-0.2-0.4-0.3-0.5c0-0.1-0.1-0.1-0.1-0.1c-0.1,0-0.1-0.1-0.2-0.1c-0.1,0-0.1-0.1-0.2-0.1  c-0.1,0-0.1,0-0.2,0c-0.1,0-0.1,0-0.2,0c0,0-0.1,0-0.1,0c0,0-0.1,0-0.1,0.1c-0.1,0-0.1,0.1-0.2,0.1c-0.1,0.1-0.1,0.2-0.2,0.2  c-0.1,0.1-0.1,0.2-0.1,0.3c0,0.1-0.1,0.2-0.1,0.3c0,0,0,0,0,0c-0.1-0.5-0.1-1-0.2-1.5c0-0.1-0.1-0.2-0.1-0.2  c-0.1-0.1-0.2-0.1-0.3-0.1c-0.1,0-0.2,0-0.2,0.1c-0.1,0.1-0.2,0.2-0.2,0.3c-0.1,0.3-0.1,0.6-0.1,0.8c0,0.1,0,0.2,0,0.3c0,0,0,0,0,0  c0,0-0.1-0.1-0.2-0.1c0,0-0.1,0-0.1,0c-0.1,0-0.1,0-0.2,0c-0.1,0-0.2,0.1-0.3,0.2c-0.1,0.1-0.2,0.2-0.2,0.3  c-0.1,0.1-0.1,0.1-0.2,0.2c-0.1,0.1-0.2,0.2-0.2,0.4c-0.2,0.3-0.4,0.6-0.6,1c0,0-0.1,0.1-0.1,0.1c0-0.1,0-0.2,0.1-0.3  c0.1-0.3,0.1-0.7,0.2-1c0.1-0.6,0-1.1-0.1-1.7c-0.1-0.3-0.2-0.6-0.4-0.8c-0.3-0.3-0.7-0.4-1.1-0.3c-0.1,0-0.2,0.1-0.3,0.2  c0-0.3,0-0.5-0.1-0.8c0-0.2-0.1-0.4-0.2-0.6c-0.1-0.1-0.2-0.2-0.3-0.3c-0.1-0.1-0.2-0.1-0.2-0.1c-0.1,0-0.2,0-0.3,0  c-0.2,0-0.3,0-0.5,0.1c-0.2,0.1-0.4,0.4-0.5,0.6c-0.1,0.3-0.2,0.5-0.4,0.8c-0.1,0.1-0.1,0.2-0.2,0.3c-0.1-0.1-0.2-0.1-0.3-0.2  c-0.1-0.1-0.2-0.1-0.3-0.2c-0.2-0.1-0.4-0.3-0.6-0.4c0,0,0,0-0.1-0.1c-0.1-0.1-0.1-0.2-0.2-0.2c0-0.1-0.1-0.1-0.1-0.2  c-0.1-0.2-0.2-0.3-0.4-0.5c-0.1-0.1-0.3-0.2-0.4-0.3c-0.2,0-0.3,0-0.5,0c-0.1,0-0.2,0.1-0.3,0.1c0,0,0,0-0.1,0c0,0-0.1-0.1-0.1-0.1  c-0.1-0.1-0.1-0.1-0.2-0.2c-0.1-0.2-0.2-0.4-0.3-0.6c-0.2-0.4-0.3-0.9-0.4-1.4c0-0.1-0.1-0.2-0.2-0.1c-0.1,0-0.1,0.1-0.1,0.2  c0.1,0.2,0.1,0.5,0.2,0.7c0.1,0.3,0.2,0.5,0.3,0.8c0.1,0.3,0.3,0.5,0.5,0.8c0,0.1,0.1,0.1,0.1,0.2c-0.1,0.2-0.2,0.4-0.2,0.6  c0,0.1,0,0.2,0,0.3c0,0,0,0.1,0,0.1c0.2,0.5,0.4,1,0.7,1.5c0.1,0.2,0.2,0.4,0.3,0.6c0,0.1,0.1,0.1,0.1,0.2c0.2,0.3,0.4,0.5,0.7,0.6  c0.1,0,0.2,0,0.3,0c0.2,0,0.3,0,0.5-0.1c0.2-0.1,0.2-0.2,0.3-0.3c0.1,0,0.2,0.1,0.3,0.1c0.2,0,0.3,0.1,0.5,0.1c0,0,0.1,0,0.1,0  c0.1,0,0.2,0,0.4,0c0,0,0.1,0,0.1,0c0,0.1,0,0.2-0.1,0.3c0,0.2-0.1,0.4-0.2,0.7c0,0.1,0,0.2-0.1,0.3c-0.1,0.3-0.2,0.6-0.1,0.9  c0,0.1,0.1,0.2,0.1,0.2c0.1,0.1,0.2,0.3,0.3,0.3c0.1,0.1,0.3,0.1,0.5,0.1c0.2,0,0.3,0,0.5-0.1c0.3-0.1,0.4-0.4,0.6-0.6  c0.1-0.2,0.2-0.3,0.3-0.5c0.1-0.1,0.1-0.3,0.2-0.4c0.1-0.3,0.2-0.5,0.3-0.8c0-0.1,0-0.1,0.1-0.2c0,0.5,0,1,0,1.5c0,0.2,0,0.4,0,0.6  c0,0.3-0.1,0.6,0.1,0.8c0.1,0.1,0.1,0.2,0.2,0.2c0.1,0,0.1,0.1,0.2,0.1c0.2,0,0.3,0,0.5,0c0.3,0,0.6-0.2,0.8-0.4  c0.3-0.3,0.5-0.6,0.7-0.9c0.2-0.3,0.4-0.6,0.6-0.9c0.1,0.3,0.1,0.5,0.2,0.8c0,0.1,0.1,0.3,0.1,0.4c0,0.2,0.1,0.4,0.2,0.6  c0.1,0.2,0.3,0.3,0.5,0.2c0.1,0,0.2-0.1,0.3-0.2c0.1-0.1,0.1-0.1,0.1-0.2c0,0,0,0,0,0c0.1,0,0.2,0,0.2-0.1c0.4-0.3,0.6-0.8,0.7-1.2  c0.1-0.2,0.1-0.4,0.2-0.6c0,0,0,0.1,0,0.1c0.2,0.4,0.3,0.9,0.5,1.3c0.1,0.2,0.1,0.4,0.2,0.5c0,0.1,0.1,0.1,0.1,0.2  c0.1,0.1,0.1,0.1,0.2,0.2c0.1,0.1,0.2,0.1,0.3,0.2c0.2,0,0.3,0,0.5,0c0.1,0,0.2-0.1,0.2-0.1c0.1,0.1,0.3,0.2,0.4,0.3  c0.1,0,0.3,0,0.5,0c0.2,0,0.3-0.1,0.4-0.2c0.1-0.1,0.2-0.4,0.3-0.6c0-0.2,0.1-0.3,0.1-0.5c0,0,0,0,0,0c0.1,0.1,0.2,0.1,0.3,0.1  c0.2,0.1,0.5,0,0.7-0.1c0.1-0.1,0.2-0.1,0.3-0.2c0.1-0.1,0.1-0.1,0.1-0.2c0,0,0,0,0,0c0.1,0.1,0.2,0.2,0.3,0.3  c0.1,0.1,0.3,0.1,0.5,0.1c0.4,0,0.8-0.3,0.9-0.7c0-0.1,0-0.3,0.1-0.4c0,0,0,0,0,0c0-0.1,0-0.2,0-0.4c0,0,0-0.1,0-0.1  c0-0.1,0-0.3,0.1-0.4c0.1-0.3,0.1-0.7,0.2-1c0.1-0.2,0.1-0.4,0.2-0.6c0,0,0-0.1,0-0.1c0.1,0.1,0.2,0.2,0.3,0.3  c0.2,0.1,0.4,0.1,0.6,0.1c0.1,0,0.1-0.1,0.2-0.1c0.1-0.1,0.2-0.2,0.3-0.3c0.1-0.1,0.1-0.2,0.1-0.3c0-0.1,0.1-0.2,0.1-0.3  c0.1,0.1,0.2,0.2,0.3,0.2C60,87,60.3,87,60.5,87c0.2-0.1,0.4-0.2,0.5-0.4c0,0,0.1-0.1,0.1-0.1c0.1-0.1,0.1-0.2,0.1-0.3  c0-0.1,0.1-0.2,0.1-0.3c0.1-0.3,0.1-0.5,0.2-0.8c0-0.1,0-0.3,0.1-0.4c0,0,0,0,0.1,0c0.4,0.1,0.9,0.1,1.2-0.2  c0.3-0.2,0.6-0.6,0.7-0.9c0-0.2,0.1-0.3,0.1-0.5c0,0,0-0.1,0-0.1c0-0.1,0-0.1,0-0.2c0.1-0.1,0.1-0.1,0.2-0.3c0,0,0,0,0.1-0.1  c0.2-0.4,0.3-0.8,0.3-1.3c0.1-0.3,0.3-0.7,0.4-1c0.1-0.3,0.2-0.6,0.3-0.9c0-0.1,0-0.1,0.1-0.2c0,0,0,0,0.1,0.1  c0.1,0.1,0.1,0.1,0.2,0.2c0.1,0,0.2,0.1,0.3,0.1c0.1,0,0.1,0,0.2,0c0.1,0,0.1,0,0.1-0.1c0.1-0.1,0.2-0.1,0.2-0.2  c0.1-0.1,0.1-0.3,0.2-0.5c0-0.1,0.1-0.3,0.1-0.4c0-0.2,0-0.3,0.1-0.5c0,0,0,0,0.1,0c0.1,0,0.1,0,0.2,0c0.1,0,0.1,0,0.2,0  c0.1,0,0.2-0.1,0.3-0.2c0.1-0.1,0.2-0.2,0.2-0.3c0-0.1,0-0.2,0-0.2c0.1-0.4,0.2-0.9,0.3-1.3c0-0.1,0.1-0.2,0.1-0.3  c0.1,0,0.1,0,0.2,0c0.1,0,0.2,0,0.3-0.1c0.1-0.1,0.2-0.1,0.2-0.2c0.1-0.1,0.1-0.2,0.1-0.3c0-0.1,0-0.2,0.1-0.3  c0.1-0.3,0.1-0.6,0.2-0.9c0-0.2,0.1-0.3,0.1-0.5c0.2,0.1,0.3,0.1,0.5,0c0.1,0,0.2-0.1,0.3-0.2c0.1-0.1,0.2-0.2,0.2-0.3  c0-0.1,0.1-0.3,0.1-0.4c0-0.1,0-0.2,0-0.3c0-0.2,0-0.4,0-0.5c0-0.2,0-0.4,0.1-0.6c0-0.2,0-0.4,0.1-0.5c0.1-0.7,0.1-1.4,0.1-2.1  c0-0.7-0.1-1.4-0.1-2.2c0-0.3,0-0.6,0-1c0-0.2,0-0.5-0.1-0.7c0-0.1,0-0.2-0.1-0.3c0-0.1,0.1-0.2,0.1-0.3c0.2-0.4,0.3-0.8,0.5-1.1  c0.1-0.2,0.1-0.3,0.2-0.5c0.1,0,0.1,0.1,0.2,0.1c0.1,0,0.2,0,0.3,0c0.1,0,0.3-0.1,0.3-0.2c0.1-0.1,0.1-0.2,0.1-0.4  c0-0.1,0-0.2,0-0.3c0-0.1,0-0.2,0-0.3c0-0.1,0-0.2-0.1-0.3c0-0.1,0-0.2,0-0.2c0-0.1,0-0.1,0-0.2c0-0.1,0-0.2,0-0.3  c0-0.1-0.1-0.2-0.1-0.2c0,0-0.1-0.1-0.1-0.1c-0.1-0.1-0.2-0.1-0.3-0.1C71,59.3,70.9,59.3,70.9,59.3L70.9,59.3L70.9,59.3z M70.7,62.3  C70.7,62.3,70.7,62.3,70.7,62.3C70.7,62.3,70.7,62.3,70.7,62.3L70.7,62.3L70.7,62.3z M64.4,78.6C64.5,78.6,64.5,78.6,64.4,78.6  C64.5,78.6,64.5,78.6,64.4,78.6L64.4,78.6L64.4,78.6z M65.3,78.6C65.3,78.6,65.3,78.6,65.3,78.6C65.3,78.6,65.3,78.6,65.3,78.6  L65.3,78.6L65.3,78.6z M43.9,87C43.9,87,43.8,87,43.9,87C43.8,87,43.9,87,43.9,87L43.9,87L43.9,87z M50.2,89.1  C50.2,89.1,50.2,89.2,50.2,89.1C50.2,89.2,50.2,89.2,50.2,89.1C50.2,89.2,50.2,89.1,50.2,89.1L50.2,89.1L50.2,89.1z M47.8,89.5  C47.8,89.5,47.8,89.5,47.8,89.5C47.8,89.5,47.8,89.5,47.8,89.5C47.8,89.5,47.8,89.5,47.8,89.5L47.8,89.5L47.8,89.5z M47.8,89.6  C47.8,89.6,47.8,89.6,47.8,89.6C47.8,89.6,47.8,89.6,47.8,89.6L47.8,89.6L47.8,89.6z"/><path d="M74.2,49.2c-0.2,0.1-0.3,0.2-0.4,0.4c0,0-0.1,0-0.1,0.1c-0.1,0.1-0.2,0.2-0.3,0.4c-0.3,0.6-0.3,1.3,0,1.9c0,0,0,0,0,0  c0.2,0.3,0.4,0.4,0.7,0.6c0,0,0,0,0,0c0,0.4,0,0.7,0.1,1.1c0,0.4,0.1,0.8,0.2,1.2c0,0.3,0.1,0.6,0.1,0.9c0,0.1,0,0.1,0,0.2  c0,0.2,0,0.3,0,0.5c0,0.1,0,0.2,0,0.4c-0.1,0.6-0.3,1.2-0.5,1.7c-0.2,0.4-0.3,0.9-0.5,1.3c0,0.1-0.1,0.1-0.1,0.2  c-0.1,0.1-0.2,0.2-0.3,0.3c-0.1,0.2-0.3,0.4-0.4,0.6c-0.1,0.2-0.2,0.4-0.3,0.6c0,0.1,0,0.2-0.1,0.2c-0.1,0.2-0.1,0.3-0.1,0.5  c0,0.2,0.1,0.4,0.2,0.5c0,0,0,0.1,0,0.1c-0.1,0.2-0.1,0.4-0.2,0.6c-0.1,0.2-0.2,0.3-0.2,0.5c-0.2,0.5-0.5,0.9-0.8,1.3  c-0.1,0.1-0.1,0.2,0,0.3c0,0.1,0.1,0.2,0.2,0.3c0.1,0.1,0.2,0.1,0.3,0c0.1,0,0.2-0.1,0.3-0.2c0.3-0.4,0.6-0.8,0.8-1.3  c0.1-0.2,0.2-0.4,0.3-0.6c0.1-0.3,0.2-0.6,0.4-0.8c0.1,0,0.1-0.1,0.1-0.1c0,0,0.1-0.1,0.1-0.2c0-0.1,0.1-0.2,0.1-0.2c0,0,0,0,0,0  c0,0,0,0,0,0c0,0,0,0,0,0c0,0,0,0,0,0c0,0,0,0,0,0c0-0.1,0.1-0.1,0.1-0.2c0-0.1,0.1-0.1,0.1-0.2c0-0.1,0-0.1,0.1-0.2  c0.1-0.2,0.2-0.5,0.3-0.7c0.2-0.3,0.3-0.7,0.4-1c0.1-0.3,0.2-0.5,0.3-0.8c0.1-0.2,0.2-0.5,0.3-0.7c0.2-0.4,0.3-0.8,0.5-1.2  c0.1-0.5,0.2-1,0.2-1.5c0-0.2,0-0.3,0-0.5c0-0.7-0.1-1.3-0.1-2c0-0.2,0-0.4,0-0.6c0-0.1,0-0.2,0-0.3c0.1-0.1,0.3-0.2,0.4-0.3  c0.2-0.2,0.4-0.5,0.5-0.8c0,0,0,0,0,0c0.1-0.3,0.1-0.7,0-1c-0.1-0.3-0.2-0.6-0.5-0.8c-0.1-0.1-0.2-0.2-0.3-0.3  c-0.1-0.1-0.2-0.1-0.3-0.2c-0.2-0.1-0.5-0.2-0.8-0.2C74.7,49,74.4,49.1,74.2,49.2L74.2,49.2L74.2,49.2z"/><path d="M45.7,67.4c-0.2,0.1-0.3,0.2-0.4,0.4c-0.1,0.1-0.2,0.4-0.2,0.6c0,0.2,0,0.4,0.1,0.6c0,0.1,0,0.1,0,0.2  c0.1,0.2,0.1,0.5,0.1,0.7c0.1,0.4,0.1,0.7,0.2,1.1c-0.1,0-0.2,0.1-0.2,0.1c0-0.1-0.1-0.2-0.1-0.3c-0.2-0.3-0.5-0.6-0.8-0.7  c-0.4-0.1-0.9,0-1.2,0.3c-0.1,0.2-0.3,0.3-0.4,0.5c0,0.1-0.1,0.1-0.1,0.2c-0.1,0.1-0.1,0.2-0.2,0.2c-0.2-0.2-0.5-0.3-0.8-0.4  c-0.2,0-0.4-0.1-0.6-0.1c-0.1,0-0.2,0-0.4,0c-0.2,0-0.4,0-0.6,0.1c-0.1,0-0.1,0-0.2,0.1c-0.1,0-0.2,0.1-0.4,0.2  c-0.2,0.1-0.4,0.2-0.6,0.4c-0.2,0.2-0.4,0.3-0.6,0.5c-0.1,0.1-0.2,0.2-0.3,0.3c-0.1,0.1-0.2,0.2-0.3,0.3c-0.2,0.2-0.3,0.4-0.4,0.5  c0,0.1-0.1,0.1-0.1,0.2c0,0.1-0.1,0.2-0.1,0.3c0,0.1,0,0.1,0,0.2c0,0.1,0,0.2,0,0.2c0,0.1,0.1,0.3,0.2,0.4c0.1,0.1,0.3,0.2,0.4,0.2  c0,0,0,0,0,0c0,0,0,0.1,0,0.1c0,0.3,0.2,0.5,0.4,0.7c0.3,0.2,0.8,0.3,1.2,0.4c0.3,0,0.6,0.1,0.9,0.1c0,0-0.1,0-0.1,0  c0.1,0,0.2,0,0.3,0c0,0-0.1,0-0.1,0c0.3,0,0.5,0.1,0.8,0.1c0,0,0,0,0,0c0,0,0.1,0,0.1,0c0.2,0,0.5,0.1,0.7,0.1  c0.3,0.1,0.5,0.1,0.8,0.1c0.2,0,0.4,0.1,0.6,0.1c0.2,0,0.5,0.1,0.7,0.1c0.2,0,0.5,0,0.7,0c0.1,0,0.2,0,0.3,0c0.1,0,0.2,0,0.3,0  c0.1,0,0.1,0,0.2,0.1c0.3,0.1,0.5,0.3,0.8,0.5c0.4,0.2,0.8,0.3,1.2,0.3c0.2,0,0.4,0,0.6-0.1c0.2,0,0.3-0.1,0.5-0.1  c0.3-0.1,0.6-0.2,0.9-0.2c0.1,0,0.2-0.1,0.3-0.1c0.2,0,0.3,0,0.5,0c0.1,0,0.2,0,0.4,0c0.2,0,0.3,0,0.5,0c0.2,0,0.4-0.1,0.7-0.1  c0.3-0.1,0.6-0.2,1-0.2c0.3-0.1,0.7-0.1,1-0.2c0.1,0,0.2,0,0.4-0.1c0.1,0,0.3,0,0.4,0c0.2,0,0.4-0.1,0.6-0.1c0,0,0,0,0.1,0  c0,0-0.1,0.1-0.1,0.1c-0.1,0.1-0.2,0.2-0.3,0.3c-0.1,0.1-0.1,0.2-0.1,0.4c0,0,0,0.1,0,0.1c0,0.2-0.1,0.5-0.2,0.7  c0,0.1-0.1,0.2-0.1,0.2c-0.1,0.1-0.2,0.2-0.3,0.3c-0.3,0.2-0.6,0.4-1,0.5c-0.3,0.1-0.6,0.2-1,0.3c-0.3,0-0.7,0-1,0  c-0.1,0-0.3,0-0.4,0c-0.2,0-0.3,0-0.5,0c-0.3,0-0.6,0-0.9,0c-0.3,0-0.6,0.1-0.9,0.1c-0.2,0-0.3,0-0.5,0c-0.2,0-0.4-0.1-0.6-0.2  c-0.2-0.1-0.5-0.2-0.7-0.3c-0.1-0.1-0.2-0.1-0.2-0.2c-0.1-0.1-0.2-0.2-0.3-0.3c-0.3-0.2-0.5-0.4-0.9-0.5c-0.1,0-0.1,0-0.2,0  c-0.2,0-0.3-0.1-0.5-0.1c-0.2,0-0.5,0-0.7,0.1c-0.4,0.1-0.6,0.3-0.9,0.5c-0.2,0.1-0.3,0.3-0.4,0.5c-0.1,0.1-0.1,0.3-0.2,0.4  c-0.1,0.2-0.1,0.3-0.1,0.5c0,0.3,0,0.5,0.1,0.8c0.1,0.3,0.2,0.5,0.3,0.8c0.1,0.3,0.3,0.6,0.6,0.9c0.1,0.1,0.3,0.3,0.4,0.4  c0.1,0.1,0.2,0.1,0.3,0.2c0.2,0.1,0.4,0.2,0.6,0.3c0.2,0.1,0.4,0.2,0.6,0.3c0,0,0,0,0,0c0,0,0,0,0,0c0,0.1,0,0.3,0.1,0.4  c0.1,0.2,0.3,0.3,0.5,0.3c0,0,0,0,0,0.1c0.1,0.4,0.2,0.5,0.5,0.9c0.1,0.2,0.5,0.4,0.8,0.4c0.2,0,0.3,0.1,0.5,0.1  c0.2,0,0.3,0,0.5-0.1c0.1,0,0.2-0.1,0.4-0.1c0.1,0,0.1,0.1,0.2,0.1c0.2,0.2,0.6,0.2,0.8,0.2c0.2,0,0.4,0,0.5-0.1  c0.2,0,0.3-0.1,0.5-0.2c0,0,0.1,0,0.1-0.1c0.1-0.1,0.2-0.2,0.4-0.3c0.1,0,0.1-0.1,0.1-0.1c0.1-0.1,0.2-0.2,0.3-0.3  c0,0,0.1,0,0.1,0.1c0.2,0.1,0.5,0,0.8,0c0.2,0,0.3-0.1,0.5-0.2c0.3-0.2,0.6-0.5,0.8-0.8c0.2-0.2,0.4-0.5,0.6-0.7c0.1,0,0.3,0,0.4,0  c0.2,0,0.4,0,0.5-0.1c0.1,0,0.1,0,0.2-0.1c0.1-0.1,0.3-0.1,0.5-0.2c0.2-0.1,0.3-0.2,0.4-0.3c0.1-0.1,0.2-0.2,0.2-0.3  c0.1-0.2,0.2-0.5,0.1-0.8c0,0,0-0.1,0-0.1c0.1-0.2,0.1-0.3,0.2-0.5c0.1-0.2,0.1-0.3,0.2-0.5c0-0.1,0.1-0.2,0.1-0.3  c0.1-0.2,0.1-0.4-0.1-0.5c-0.2-0.2-0.4-0.2-0.6,0c-0.2,0.2-0.4,0.5-0.6,0.7c-0.1,0.1-0.1,0.2-0.2,0.3c0,0,0,0.1-0.1,0.1  c-0.1,0-0.2,0-0.3,0.1c-0.1,0-0.2,0.1-0.3,0.1c0,0,0,0,0,0c-0.2,0-0.3-0.1-0.5-0.1c-0.3,0-0.7-0.1-1,0c-0.3,0.1-0.3,0.1-0.6,0.3  c0,0-0.1,0.1-0.1,0.1c0,0-0.1,0.1-0.1,0.1c-0.2,0.2-0.3,0.3-0.5,0.5c0,0,0,0-0.1,0.1c-0.2-0.3-0.6-0.5-1-0.5c-0.4,0-0.8,0.2-1.1,0.5  c-0.1,0.1-0.2,0.3-0.3,0.4c0-0.1-0.1-0.1-0.2-0.2c-0.2-0.2-0.4-0.3-0.7-0.4c0.1,0,0.1-0.1,0.2-0.1c0.1-0.1,0.2-0.1,0.3-0.2  c0.2-0.1,0.5-0.2,0.8-0.2c0.3-0.1,0.6-0.1,1-0.2c0.3-0.1,0.6-0.2,0.9-0.3c0.2-0.1,0.5-0.2,0.7-0.3c0.1-0.1,0.3-0.2,0.4-0.3  c0.1-0.1,0.1-0.1,0.2-0.2c0.1-0.1,0.2-0.1,0.2-0.2c0.4-0.3,0.8-0.5,1.1-0.8c0.1-0.1,0.2-0.2,0.3-0.4c0.1-0.1,0.2-0.3,0.2-0.5  c0-0.2,0.1-0.3,0.1-0.5c0,0,0-0.1,0.1-0.1c0,0,0.1-0.1,0.1-0.1c0.2-0.1,0.4-0.3,0.5-0.5c0.2-0.2,0.5-0.3,0.7-0.5  c0.1-0.1,0.2-0.1,0.4-0.2c0.1,0,0.2-0.1,0.2-0.1c0,0,0,0,0,0c0,0,0,0,0,0c0,0,0.1,0,0.1,0c0,0,0,0,0,0c0,0,0,0,0,0c0,0,0,0,0,0  c0,0,0,0,0,0c0.2-0.1,0.3-0.3,0.3-0.5c0-0.1,0-0.2-0.1-0.3c0-0.1-0.1-0.1-0.2-0.2c-0.1-0.1-0.2-0.1-0.3-0.1c0,0-0.1,0-0.1,0  c0,0-0.1,0-0.1,0c-0.3-0.1-0.5-0.1-0.8-0.2c-0.1-0.1-0.3-0.1-0.4-0.2c-0.1,0-0.3-0.1-0.4-0.1c-0.2,0-0.5-0.1-0.7,0  c-0.2,0-0.5,0.1-0.7,0.1c-0.3,0.1-0.7,0.2-1,0.3c-0.6,0.2-1.2,0.4-1.8,0.6c-0.3,0.1-0.6,0.2-0.9,0.2c-0.2,0-0.3,0.1-0.5,0.1  c-0.2,0-0.3,0.1-0.4,0.1c-0.4,0.1-0.8,0.2-1.2,0.3c-0.1,0-0.3,0-0.4,0c-0.1,0-0.3,0-0.4,0c-0.1,0-0.3-0.1-0.4-0.1  c-0.1,0-0.3-0.1-0.4-0.1c-0.2-0.1-0.5-0.1-0.8,0c-0.1,0-0.2,0.1-0.2,0.1c-0.1,0-0.1,0.1-0.2,0.1c-0.1,0-0.2,0.1-0.4,0.1  c-0.3,0-0.7,0-1,0c-0.3-0.1-0.6-0.2-0.9-0.2c-0.3-0.1-0.6-0.1-0.9-0.2c-0.3-0.1-0.6-0.2-0.9-0.3c-0.3-0.1-0.6-0.1-0.9-0.2  c-0.2-0.1-0.4-0.1-0.6-0.2c-0.2-0.1-0.5-0.1-0.7-0.2c0,0,0,0-0.1,0c0.1-0.1,0.1-0.1,0.2-0.2c0,0,0.1-0.1,0.1-0.1  c0.1,0,0.2-0.1,0.3-0.1c0.1-0.1,0.3-0.2,0.4-0.3c0,0,0,0,0,0c0,0,0.1-0.1,0.1-0.1c0.1-0.1,0.1-0.3,0.1-0.4c0-0.1-0.1-0.1-0.1-0.2  c0.2-0.1,0.3-0.2,0.5-0.3c0,0,0.1,0,0.1,0c0,0,0.1,0,0.1,0c0.1,0,0.1,0,0.2,0c0.1,0.1,0.1,0.1,0.2,0.2c0.1,0.1,0.1,0.1,0.2,0.2  c0,0.1,0.1,0.1,0.1,0.2c0.1,0.1,0.2,0.2,0.4,0.3c0.1,0,0.2,0.1,0.3,0.1c0.1,0,0.2,0,0.3,0c0.1,0,0.2,0,0.3-0.1  c0.2-0.1,0.4-0.2,0.5-0.3c0.1,0,0.1-0.1,0.2-0.1c0,0,0.1-0.1,0.1-0.1c0.1,0.1,0.1,0.2,0.2,0.2c0.1,0.1,0.2,0.1,0.3,0.2  c0.1,0.1,0.2,0.1,0.3,0.1c0.2,0,0.4,0,0.6,0c0,0,0.1,0,0.1,0c0.1,0,0.2-0.1,0.3-0.1c0.1-0.1,0.2-0.1,0.2-0.2  c0.1-0.1,0.1-0.1,0.2-0.2c0,0,0.1-0.1,0.1-0.1c0.1,0.1,0.2,0.2,0.3,0.2c0.2,0.1,0.6,0.2,0.8,0c0.1-0.1,0.2-0.2,0.3-0.3  c0.1-0.1,0.1-0.3,0.1-0.4c0,0,0,0,0,0c0,0,0,0,0,0c0.2,0.1,0.4,0.1,0.5,0.1c0,0,0,0.1,0,0.1c0.1,0.2,0.2,0.3,0.3,0.4  c0.2,0.2,0.4,0.3,0.7,0.4c0.3,0.1,0.3,0,0.7,0c0,0,0.1,0,0.1,0c0,0,0.1,0,0.1-0.1c0.3-0.1,0.4-0.2,0.6-0.4c0.1-0.1,0.1-0.1,0.2-0.2  c0.1,0.1,0.3,0.2,0.4,0.3c0.3,0.1,0.5,0.2,0.8,0.2c0.2,0,0.3,0,0.5-0.1c0.1,0,0.1,0,0.2-0.1c0.2-0.1,0.4-0.1,0.6-0.2  c0.3-0.1,0.5-0.4,0.6-0.6c0,0,0-0.1,0.1-0.1c0.1-0.2,0.2-0.4,0.2-0.5c0-0.1,0-0.1,0.1-0.2c0,0,0,0,0,0.1c0.1,0.2,0.2,0.3,0.3,0.5  c0.1,0.1,0.2,0.2,0.3,0.3c0.1,0.1,0.3,0.2,0.5,0.3c0.2,0.1,0.3,0,0.5,0c0.1,0,0.2-0.1,0.3-0.1c0.1,0,0.1-0.1,0.2-0.2  c0.1-0.1,0.1-0.1,0.2-0.2c0.1-0.1,0.1-0.2,0.1-0.2c0.1-0.1,0.1-0.3,0.2-0.4c0.1,0.1,0.2,0.2,0.3,0.4c0.1,0.2,0.3,0.3,0.4,0.5  c0.1,0.1,0.2,0.2,0.3,0.3c0.1,0.1,0.3,0.1,0.4,0.2c0.2,0.1,0.4,0.1,0.5,0c0,0,0.1,0,0.1,0c0,0,0,0.1,0,0.1c0,0.2,0.1,0.4,0.3,0.6  c0.1,0,0.1,0.1,0.2,0.1c0.1,0.1,0.2,0.1,0.4,0.1c0,0,0,0,0.1,0c0.1,0.3,0.3,0.5,0.4,0.8c0.1,0.2,0.2,0.5,0.4,0.7  c0.1,0.2,0.2,0.3,0.4,0.5c0.1,0,0.1,0.1,0.2,0.1c0.1,0.1,0.2,0.1,0.3,0.2c0.1,0.1,0.2,0.1,0.3,0c0.1,0,0.2-0.1,0.3-0.2  c0.1-0.1,0.1-0.2,0-0.3c0-0.1-0.1-0.2-0.2-0.3c-0.1-0.1-0.3-0.1-0.4-0.2c-0.1-0.2-0.2-0.4-0.3-0.6c-0.1-0.1-0.1-0.3-0.2-0.4  c-0.1-0.3-0.2-0.5-0.3-0.8c0-0.1-0.1-0.2-0.1-0.3c0,0,0-0.1,0-0.1c0-0.1,0-0.1,0-0.2c0-0.1,0-0.1,0-0.2c0-0.1,0-0.2,0-0.3  c0-0.2,0.1-0.3,0.1-0.5c0-0.1,0-0.2,0.1-0.3c0-0.2,0.1-0.5-0.1-0.8c-0.1-0.1-0.2-0.2-0.4-0.3c-0.1,0-0.2,0-0.3,0  c-0.1,0-0.2,0.1-0.3,0.2c-0.1,0.1-0.2,0.2-0.2,0.3c0,0.1-0.1,0.1-0.1,0.2c-0.2,0.2-0.4,0.5-0.6,0.7c0,0,0,0,0,0c0,0,0,0-0.1-0.1  c-0.1-0.2-0.2-0.3-0.3-0.5c-0.1-0.1-0.1-0.3-0.2-0.4c-0.1-0.3-0.3-0.6-0.5-0.8c-0.1-0.2-0.3-0.4-0.4-0.5c-0.1-0.1-0.2-0.1-0.2-0.2  c-0.1-0.1-0.4-0.2-0.5-0.1c-0.2,0-0.4,0-0.5,0.1c-0.1,0.1-0.2,0.1-0.3,0.2c-0.1,0.2-0.2,0.3-0.3,0.5c0,0,0,0,0,0c0,0,0-0.1,0-0.1  c0-0.3-0.1-0.5-0.2-0.8c-0.1-0.2-0.2-0.4-0.4-0.5c-0.1-0.1-0.2-0.2-0.3-0.2c0,0-0.1-0.1-0.1-0.1c-0.2-0.2-0.5-0.4-0.7-0.4  c-0.2,0-0.3-0.1-0.5-0.1c-0.4,0-0.6,0.1-0.9,0.2c0,0,0,0,0,0c-0.1,0.1-0.3,0.2-0.4,0.3c-0.1,0.1-0.2,0.2-0.3,0.4c0,0,0,0.1-0.1,0.1  c-0.1-0.1-0.2-0.2-0.2-0.2c-0.1,0-0.2-0.1-0.3-0.1c-0.2-0.1-0.5-0.1-0.7,0c0,0,0,0,0,0c-0.2,0.1-0.4,0.2-0.6,0.3  c-0.1,0.1-0.2,0.2-0.2,0.3c-0.1,0.1-0.1,0.2-0.2,0.3c-0.1,0-0.1-0.1-0.2-0.1c-0.2-0.1-0.4-0.1-0.5-0.1c-0.1,0-0.2,0-0.3,0  c0-0.2,0-0.3-0.1-0.5c0-0.1,0-0.1,0-0.2c0-0.3-0.2-0.5-0.3-0.6c-0.2-0.2-0.4-0.3-0.6-0.3c0,0-0.1,0-0.1,0c0,0,0,0,0-0.1  c0,0,0,0,0-0.1c-0.1-0.1-0.4-0.3-0.6-0.3c-0.1,0-0.2,0-0.3,0C46.1,67.2,45.9,67.3,45.7,67.4L45.7,67.4L45.7,67.4z M38.9,74.8  C38.9,74.8,38.9,74.8,38.9,74.8C38.9,74.8,38.9,74.8,38.9,74.8L38.9,74.8L38.9,74.8z M61.5,75.5C61.5,75.5,61.5,75.5,61.5,75.5  C61.5,75.5,61.5,75.5,61.5,75.5L61.5,75.5L61.5,75.5z M57.5,76C57.5,76,57.5,76,57.5,76C57.5,76,57.5,76,57.5,76  C57.5,76,57.5,76,57.5,76L57.5,76L57.5,76z M41.2,76.2C41.2,76.2,41.2,76.2,41.2,76.2C41.2,76.2,41.2,76.2,41.2,76.2L41.2,76.2  L41.2,76.2z M41.4,76.2C41.4,76.2,41.4,76.2,41.4,76.2C41.4,76.2,41.4,76.2,41.4,76.2L41.4,76.2L41.4,76.2z M44.1,79.7  c0.1,0,0.1,0,0.2,0.1c0,0,0.1,0,0.1,0.1c0,0,0,0,0,0c0.1,0.1,0.1,0.2,0.2,0.3c0.1,0.2,0.3,0.4,0.5,0.6c0.2,0.2,0.4,0.3,0.5,0.4  c0.1,0,0.1,0.1,0.2,0.1c0.1,0.1,0.3,0.1,0.4,0.2c-0.1,0.1-0.2,0.1-0.3,0.2c-0.2,0.2-0.3,0.5-0.4,0.8c-0.1,0-0.1-0.1-0.2-0.1  c-0.2-0.2-0.5-0.3-0.7-0.5c-0.1-0.1-0.2-0.2-0.3-0.3c0-0.1-0.1-0.1-0.1-0.2c-0.1-0.3-0.2-0.7-0.3-1c0-0.1,0-0.3,0-0.4  c0-0.1,0-0.1,0.1-0.2c0,0,0,0,0,0C44,79.8,44,79.8,44.1,79.7C44,79.8,44,79.8,44.1,79.7L44.1,79.7L44.1,79.7z"/><path d="M58.1,74.6c-0.1,0-0.2,0.1-0.3,0.1c0,0,0,0,0,0c-0.1,0-0.2,0-0.3,0c-0.1,0-0.2,0-0.2,0c-0.1,0-0.3,0-0.4,0  c-0.6,0-1.1,0.5-1.1,1.1c0,0.6,0.5,1.1,1.1,1.1c0.1,0,0.2,0,0.3,0c0.1,0.1,0.3,0.2,0.5,0.2c0.1,0,0.3,0.1,0.4,0.1c0,0,0.1,0,0.1,0  c0,0,0.1,0,0.1,0c0.1,0,0.3,0,0.4-0.1c0.1,0,0.2-0.1,0.3-0.1c0.1-0.1,0.3-0.2,0.3-0.3c0.1-0.1,0.1-0.1,0.1-0.2  c0.2-0.3,0.2-0.7,0.1-1c-0.1-0.3-0.3-0.6-0.6-0.8c-0.1,0-0.2-0.1-0.3-0.1c-0.1,0-0.2,0-0.3,0C58.4,74.5,58.2,74.5,58.1,74.6  L58.1,74.6L58.1,74.6z"/><path d="M54.6,59.7c-0.1,0.1-0.2,0.1-0.2,0.2c0,0.1-0.1,0.2-0.1,0.3c0,0,0,0.1,0,0.1c0,0.1,0,0.2,0,0.2c0,0.2-0.1,0.5-0.1,0.7  c0,0.3-0.1,0.6-0.1,1c0,0.2-0.1,0.4-0.1,0.6c0,0.2-0.1,0.3-0.1,0.5c0,0.2,0,0.4,0.1,0.6c0.1,0.2,0.4,0.4,0.7,0.4c0,0.2,0,0.3,0,0.5  c0,0.2,0,0.5,0,0.7c0,0.1,0,0.3-0.1,0.4c0,0,0,0,0,0c-0.1,0-0.2,0-0.4,0c-0.1,0-0.2,0.1-0.3,0.1c0,0-0.1,0-0.1,0.1  c-0.2,0.1-0.3,0.2-0.5,0.3c-0.4,0.3-0.8,0.6-1.2,0.9c-0.1,0.1-0.1,0.1-0.2,0.2c-0.1,0.2-0.1,0.3-0.1,0.5c0,0.3,0.1,0.5,0.3,0.7  c0.2,0.2,0.4,0.3,0.7,0.3c0.1,0,0.2,0,0.3,0c0.2,0,0.3-0.1,0.4-0.3c0.3-0.3,0.7-0.5,1-0.8c0.1-0.1,0.3-0.2,0.4-0.4  c0,0,0.1-0.1,0.1-0.1c0.1-0.1,0.1-0.2,0.2-0.3c0.1-0.2,0.1-0.3,0.1-0.5c0-0.1,0-0.2,0-0.2c0-0.1,0-0.2,0-0.3c0-0.1,0-0.3,0-0.4  c0-0.3,0-0.6,0-1c0-0.2,0-0.4-0.1-0.6c0,0,0.1-0.1,0.1-0.1c0.1-0.1,0.2-0.3,0.2-0.4c0,0,0-0.1,0-0.1c0,0,0-0.1,0-0.1  c0-0.1,0-0.2,0-0.3c0-0.1,0-0.2,0-0.4c0-0.3,0-0.6,0-0.8c0-0.3,0-0.5,0-0.8c0-0.2,0-0.3,0-0.5c0-0.1,0-0.3,0-0.4  c0-0.2-0.1-0.3-0.2-0.4c-0.1-0.1-0.3-0.2-0.4-0.2C54.8,59.6,54.7,59.6,54.6,59.7L54.6,59.7L54.6,59.7z"/><path d="M53.5,61.5c0,0-0.1,0.1-0.1,0.1c-0.1,0.1-0.1,0.2-0.1,0.2c-0.3,0.6-0.5,1.2-0.8,1.9c-0.1,0.3-0.2,0.6-0.3,0.8  c0,0.1,0,0.2,0,0.3c0,0.1,0,0.2,0,0.3c0,0.1,0,0.1,0,0.2c0,0.1,0,0.1,0,0.2c0,0.1,0,0.1,0.1,0.2c0,0,0.1,0.1,0.1,0.1  c0,0,0.1,0.1,0.1,0.1c0.1,0.1,0.3,0.1,0.4,0c0.1,0,0.2-0.1,0.3-0.2c0.1-0.1,0.1-0.2,0.1-0.4c0-0.1,0-0.2-0.1-0.3  c0-0.1,0-0.2-0.1-0.2c0,0,0,0,0-0.1c0-0.2,0.1-0.4,0.2-0.6c0.1-0.2,0.2-0.4,0.2-0.6c0.2-0.5,0.4-1,0.6-1.5c0,0,0-0.1,0-0.1  c0-0.1,0-0.2-0.1-0.3c-0.1-0.1-0.2-0.2-0.3-0.3c0,0-0.1,0-0.1,0C53.6,61.4,53.6,61.5,53.5,61.5L53.5,61.5L53.5,61.5z"/><path d="M43.2,59.4c-0.1,0.1-0.3,0.2-0.3,0.4c0,0.2,0,0.3,0,0.5c0,0.1,0,0.2,0,0.3c0,0.2,0,0.4,0,0.6c0,0.2,0,0.4,0,0.6  c0,0.1,0,0.2,0,0.2c0,0-0.1,0.1-0.1,0.1c-0.1,0.1-0.1,0.2-0.1,0.4c0,0.1,0,0.2,0,0.2c0,0.2,0,0.3,0,0.5c0,0.3,0,0.6,0,0.9  c0,0.4-0.1,0.7-0.1,1.1c0,0.3,0,0.5,0.1,0.7c0,0.3,0.1,0.5,0.2,0.8c0.2,0.4,0.6,0.7,1,0.9c0.3,0.1,0.5,0.3,0.8,0.4  c0.1,0,0.2,0.1,0.3,0.1c0.1,0.1,0.2,0.1,0.4,0.2c0.1,0,0.2,0,0.3,0c0.1,0,0.2,0,0.3,0c0,0,0.1,0,0.1-0.1c0.1,0.2,0.3,0.4,0.6,0.4  c0.2,0,0.3-0.1,0.4-0.2c0.1-0.1,0.2-0.3,0.2-0.4c0-0.2,0-0.3,0-0.5c0.1,0,0.1-0.1,0.2-0.1c0.1-0.1,0.2-0.3,0.2-0.4  c0-0.2,0.1-0.3,0-0.5c0-0.2-0.1-0.3-0.2-0.4c-0.1-0.1-0.2-0.2-0.3-0.2c0,0-0.1-0.1-0.2-0.1c-0.1-0.1-0.1-0.1-0.2-0.1  c-0.1,0-0.1-0.1-0.2-0.1c-0.1,0-0.3,0-0.4,0c-0.1,0-0.1,0.1-0.2,0.1c-0.1,0.1-0.2,0.2-0.3,0.3c0,0,0,0,0,0.1  c-0.3,0.1-0.6,0.3-0.7,0.5c-0.1-0.1-0.3-0.1-0.4-0.2c-0.1,0-0.2-0.1-0.3-0.1c0,0-0.1-0.1-0.1-0.1c0,0-0.1-0.1-0.1-0.1  c-0.1-0.2-0.1-0.3-0.1-0.5c0-0.3,0-0.6,0-0.9c0-0.2,0-0.5,0-0.7c0-0.4,0-0.8,0-1.2c0.1,0,0.1-0.1,0.2-0.2c0.1,0,0.1,0,0.2,0.1  c0.2,0,0.3,0,0.5-0.1c0.1-0.1,0.2-0.3,0.1-0.5c0-0.1-0.1-0.1-0.1-0.2c0-0.1-0.1-0.1-0.1-0.2c0,0,0,0,0-0.1c0,0-0.1-0.1-0.1-0.1  c-0.1-0.2-0.1-0.5-0.2-0.7c-0.1-0.3-0.1-0.7-0.2-1c0-0.1-0.1-0.2-0.2-0.3c-0.1-0.1-0.3-0.2-0.5-0.2C43.4,59.3,43.3,59.3,43.2,59.4  L43.2,59.4L43.2,59.4z M45.5,66.8C45.5,66.8,45.5,66.8,45.5,66.8C45.5,66.8,45.5,66.8,45.5,66.8C45.5,66.8,45.5,66.8,45.5,66.8  L45.5,66.8L45.5,66.8z"/><path d="M40.2,44.8c-0.4,0-0.8,0.1-1.2,0.3c-0.2,0.1-0.3,0.3-0.5,0.4c-0.1,0.1-0.2,0.3-0.3,0.4c-0.1,0-0.2,0-0.3,0  c-0.2,0-0.5-0.1-0.7-0.1c-0.2,0-0.5,0-0.7,0c-0.1,0-0.2,0-0.3,0c-0.2,0-0.4,0-0.6,0.1c0,0-0.1-0.1-0.1-0.1c-0.2-0.2-0.4-0.3-0.6-0.4  c-0.2,0-0.3-0.1-0.5-0.1c0,0-0.1,0-0.1,0c-0.2,0-0.3,0-0.5,0.1c-0.1,0-0.2,0-0.3,0.1c-0.1,0-0.2,0.1-0.3,0.1  c-0.2,0.1-0.4,0.2-0.5,0.2c-0.3,0.1-0.5,0.3-0.8,0.5c-0.2,0.2-0.4,0.3-0.6,0.5c-0.1,0.1-0.2,0.2-0.3,0.3c-0.1,0.1-0.2,0.2-0.2,0.3  c-0.1,0.1-0.2,0.4-0.2,0.4c0,0.1,0,0.2-0.1,0.2c0,0.2-0.1,0.3,0,0.5c-0.2,0.1-0.3,0.2-0.4,0.4c-0.2,0.2-0.3,0.4-0.4,0.6  c-0.2,0.3-0.4,0.6-0.5,1c-0.1,0.3-0.1,0.5-0.2,0.8c0,0.4,0.1,0.9,0.4,1.3c0,0.1,0.1,0.1,0.2,0.1c0.1,0.1,0.1,0.1,0.2,0.2  c0.3,0.2,0.6,0.1,0.8,0c0.1-0.1,0.3-0.2,0.4-0.3c0.2-0.1,0.3-0.2,0.3-0.5c0-0.2-0.2-0.4-0.4-0.5c-0.2-0.1-0.5-0.1-0.7,0  c0,0,0-0.1,0-0.1c0-0.1,0.1-0.2,0.1-0.4c0,0,0-0.1,0-0.1c0.1-0.1,0.2-0.2,0.3-0.3c0.2-0.2,0.3-0.4,0.5-0.6c0,0,0,0,0,0  c0.1,0.1,0.2,0.1,0.4,0.2c0.3,0.1,0.6,0,0.9-0.1c0.2-0.1,0.3-0.2,0.4-0.4c0.1-0.2,0.2-0.4,0.2-0.6c0-0.1,0-0.2,0-0.3  c0.1-0.1,0.2-0.1,0.4-0.2c0.1,0.1,0.2,0.1,0.3,0.1c0.1,0,0.2,0,0.4,0c0.1,0,0.2,0,0.4-0.1c0.2,0,0.4-0.2,0.6-0.3  c0.3-0.1,0.6-0.3,0.9-0.4c0.1,0,0.2-0.1,0.3-0.1c0.1,0,0.3,0,0.4,0c0.2,0,0.3,0.1,0.5,0.1c0.2,0.1,0.4,0.2,0.6,0.2  c0.2,0.1,0.4,0.1,0.6,0.2c0.1,0.1,0.2,0.3,0.3,0.3c0.2,0.2,0.4,0.3,0.6,0.4c0.1,0,0.1,0.1,0.2,0.1c0.3,0.2,0.7,0.3,1,0.5  c0.2,0.1,0.3,0.1,0.5,0.2c0.1,0,0.2,0.1,0.2,0.1c0.3,0.2,0.7,0.4,1.1,0.5c0.4,0.1,0.8,0.1,1.2,0.1c0.2,0,0.3,0.1,0.5,0.1  c0.1,0,0.1,0,0.2,0.1c0.1,0,0.2,0.1,0.3,0.1c0.1,0,0.2,0,0.2,0c0,0,0,0.1,0,0.1c0,0.2,0,0.5,0,0.7c0,0.1,0,0.2,0,0.4  c0,0.2,0,0.3,0.1,0.5c0,0.2,0.1,0.3,0.2,0.5c0,0.3,0,0.5,0,0.8c0,0.3,0,0.7,0,1c0,0.7,0,1.4-0.1,2c0,0.2,0,0.3,0,0.5  c0,0.5,0.4,0.9,0.9,0.9c0.2,0,0.5-0.1,0.6-0.3c0.2-0.2,0.3-0.4,0.3-0.6c0-0.8,0.1-1.6,0.1-2.4c0-0.6,0-1.3,0-1.9c0-0.1,0-0.2,0-0.2  c0-0.1,0-0.3,0-0.4c0-0.1-0.1-0.2-0.1-0.3c0-0.4,0-0.9,0-1.3c0-0.4,0.1-0.8,0.1-1.1c0-0.2,0.1-0.4,0.1-0.6c0-0.3,0-0.6-0.2-0.9  c-0.1-0.2-0.3-0.3-0.5-0.5C46.2,48,46.1,48,46,47.9c-0.1,0-0.1,0-0.2,0c0,0-0.1,0-0.1-0.1c-0.1-0.1-0.3-0.2-0.4-0.3  c-0.2-0.1-0.3-0.2-0.5-0.4c-0.3-0.2-0.7-0.4-1.1-0.6c-0.2-0.2-0.4-0.3-0.6-0.5c-0.2-0.1-0.4-0.3-0.6-0.4c-0.2-0.1-0.4-0.2-0.5-0.4  c-0.1-0.1-0.2-0.1-0.3-0.2C41.5,45,41.3,45,41,44.9c-0.2-0.1-0.4-0.1-0.6-0.1C40.3,44.7,40.3,44.7,40.2,44.8L40.2,44.8L40.2,44.8z   M46.6,50.3C46.7,50.3,46.7,50.3,46.6,50.3C46.7,50.2,46.7,50.2,46.6,50.3L46.6,50.3L46.6,50.3z"/><path d="M38.7,50.1c-0.1,0-0.3,0-0.4,0.1c-0.2,0-0.3,0-0.5,0c-0.1,0-0.2,0-0.2,0c-0.1,0-0.2,0-0.2,0c-0.1,0-0.3,0-0.4,0  c-0.2,0-0.4,0-0.6,0.1c-0.3,0-0.5,0.1-0.7,0.3c-0.1,0.1-0.3,0.2-0.4,0.2c-0.1-0.1-0.3-0.1-0.5-0.1c-0.2,0-0.3,0.1-0.5,0.1  c-0.2,0.1-0.3,0.3-0.4,0.4c-0.1,0.1-0.1,0.3-0.2,0.5c0,0.1,0,0.3-0.1,0.4c0,0.1,0,0.1,0,0.2c-0.1,0-0.1,0.1-0.2,0.1  c-0.2,0.1-0.3,0.3-0.3,0.4c-0.1,0.2,0,0.4,0.1,0.6c0.1,0.2,0.3,0.3,0.4,0.3c0.2,0.1,0.4,0,0.6-0.1c0,0,0,0,0.1,0c0,0,0.1,0,0.1,0.1  c0.1,0.1,0.4,0.2,0.6,0.1c0.1,0,0.2,0,0.3,0c0.2,0,0.3-0.1,0.4-0.3c0.2-0.2,0.3-0.4,0.3-0.7c0-0.1,0.1-0.3,0.1-0.4  c0-0.2,0.1-0.4,0.1-0.5c0-0.1,0-0.2,0.1-0.3c0.1-0.1,0.1-0.1,0.2-0.2c0.2-0.1,0.3-0.2,0.5-0.3c0.2-0.1,0.5-0.2,0.7-0.2  c0.1,0,0.3,0,0.4,0c0.2,0,0.4,0,0.6-0.1c0.3,0,0.5-0.1,0.8-0.1c0.1,0,0.2,0,0.3,0c0.1,0,0.3,0.1,0.4,0.1c0.2,0.1,0.4,0.2,0.6,0.3  c0.2,0.1,0.5,0.3,0.7,0.4c0.1,0.1,0.3,0.1,0.4,0.2c0.1,0.1,0.3,0.1,0.4,0.1c0.2,0.1,0.5,0.1,0.7,0.2c0.1,0,0.1,0.1,0.2,0.1  c0.1,0,0.1,0.1,0.1,0.2c0,0,0.1,0.1,0.1,0.1c0,0-0.1,0-0.1,0c0,0-0.1,0-0.1,0c-0.1,0-0.2,0-0.3,0.1c-0.1,0-0.2,0.1-0.2,0.2  c-0.1,0.1-0.1,0.2-0.1,0.3c0,0.1,0.1,0.3,0.2,0.4c0,0,0,0,0,0c0.1,0.2,0.4,0.2,0.6,0.1c0,0,0.1,0,0.1-0.1c0,0,0,0,0.1,0  c0.1,0,0.2,0,0.3,0c0.2,0,0.5-0.1,0.5-0.4c0-0.2,0-0.3-0.1-0.5c-0.1-0.1-0.1-0.2-0.2-0.3c-0.1-0.1-0.2-0.3-0.3-0.4  c-0.1-0.1-0.2-0.2-0.4-0.3c-0.1-0.1-0.3-0.1-0.4-0.2c-0.1,0-0.3-0.1-0.4-0.1c-0.1,0-0.3-0.1-0.4-0.1c-0.2-0.1-0.5-0.3-0.7-0.4  c-0.2-0.2-0.5-0.3-0.7-0.4c-0.1-0.1-0.2-0.1-0.4-0.2c-0.1,0-0.2-0.1-0.3-0.1c-0.2-0.1-0.3-0.1-0.5-0.1  C39.1,50.1,38.9,50.1,38.7,50.1L38.7,50.1L38.7,50.1z M36.1,51.6C36.1,51.7,36.1,51.7,36.1,51.6C36.1,51.7,36.1,51.7,36.1,51.6  L36.1,51.6L36.1,51.6z M43.6,52.8C43.6,52.8,43.6,52.8,43.6,52.8L43.6,52.8C43.6,52.8,43.6,52.8,43.6,52.8L43.6,52.8L43.6,52.8z"/><path d="M37.8,50.3c-0.1,0-0.2,0.1-0.4,0.2c-0.1,0.1-0.3,0.2-0.4,0.3c-0.3,0.3-0.5,0.8-0.5,1.2c0,0.3,0.1,0.7,0.3,0.9  c0.1,0.2,0.3,0.4,0.4,0.5c0.2,0.1,0.3,0.3,0.5,0.4c0.2,0.1,0.3,0.1,0.5,0.2c0.2,0.1,0.4,0.1,0.6,0.1c0.1,0,0.2,0,0.3,0  c0.2,0,0.3,0,0.5-0.1c0.1,0,0.1,0,0.2,0c0.2,0,0.5-0.2,0.7-0.2c0.5-0.2,0.8-0.6,0.9-1.1c0.1-0.2,0.1-0.5,0-0.8  c-0.1-0.4-0.4-0.7-0.8-0.9c-0.2-0.1-0.4,0-0.6,0c-0.1,0-0.2,0.1-0.4,0.2c-0.1-0.2-0.2-0.3-0.3-0.4c-0.1-0.1-0.2-0.1-0.3-0.2  c-0.2-0.1-0.4-0.2-0.7-0.2c0,0-0.1,0-0.1,0C38.1,50.2,37.9,50.3,37.8,50.3L37.8,50.3L37.8,50.3z M39.6,51.2  C39.6,51.2,39.6,51.2,39.6,51.2C39.6,51.2,39.6,51.2,39.6,51.2C39.6,51.2,39.6,51.2,39.6,51.2L39.6,51.2L39.6,51.2z"/><path d="M42.3,54.7c-0.1,0-0.2,0.1-0.2,0.1c-0.2,0.1-0.5,0.2-0.7,0.3c-0.4,0.1-0.7,0.3-1.1,0.4c-0.2,0.1-0.3,0.1-0.5,0.2  c-0.2,0-0.3,0.1-0.5,0.1c-0.1,0-0.3,0-0.4,0c-0.1,0-0.3,0-0.4,0c0,0-0.1,0-0.1,0c-0.1,0-0.3-0.1-0.4-0.1c-0.1,0-0.3-0.1-0.4-0.2  c-0.2-0.1-0.5-0.2-0.7-0.3c0,0-0.1-0.1-0.1-0.1c0,0,0,0,0,0c0,0,0,0-0.1-0.1c0,0,0,0,0,0c0,0,0,0,0,0c0,0-0.2-0.1-0.2-0.2  c-0.1-0.1-0.3-0.1-0.5-0.1c-0.2,0-0.3,0-0.5,0.1c-0.1,0.1-0.3,0.2-0.3,0.3c0,0.1-0.1,0.1-0.1,0.2c0,0.2,0,0.3,0,0.5  c0,0.2,0.1,0.3,0.2,0.4c0.1,0.1,0.3,0.2,0.4,0.3c0.1,0,0.2,0,0.4,0.1c0,0,0.1,0,0.1,0c0,0,0.1,0,0.1,0c0.1,0,0.2,0,0.3,0  c0,0,0.1,0,0.1,0c0.1,0,0.1,0,0.2,0c0.3,0,0.6,0.1,0.9,0.2c0.2,0,0.3,0,0.5,0.1c0.1,0,0.2,0,0.3,0c0,0,0.1,0,0.1,0  c0.2,0,0.4,0,0.6,0c0.3-0.1,0.6-0.1,0.9-0.2c0.3-0.1,0.5-0.2,0.8-0.3c0.1,0.1,0.2,0.1,0.3,0c0.4-0.2,0.9-0.3,1.3-0.4  c0.1,0,0.2-0.1,0.2-0.2c0,0,0,0,0-0.1c0,0,0.1,0,0.1,0c0,0,0.1-0.1,0.1-0.1c0,0,0.1-0.1,0.1-0.1c0,0,0.1-0.1,0.1-0.1  c0,0,0-0.1,0-0.1c0-0.1,0-0.1,0-0.2c0-0.1-0.1-0.2-0.3-0.3c0,0-0.1,0-0.1,0C42.6,54.6,42.4,54.6,42.3,54.7L42.3,54.7L42.3,54.7z   M36.5,54.9C36.5,54.9,36.5,54.9,36.5,54.9C36.5,54.9,36.5,54.9,36.5,54.9L36.5,54.9L36.5,54.9z"/><path d="M32.9,53.1c-0.2,0.1-0.2,0.3-0.2,0.4c0,0.1,0,0.2,0.1,0.3c0,0.1,0.1,0.1,0.2,0.2c0.1,0,0.1,0.1,0.2,0.1c0,0,0,0.1,0,0.1  c0,0.1,0.1,0.1,0.2,0.2c0.1,0,0.2,0,0.3,0c0.1,0,0.2-0.1,0.2-0.2c0-0.1,0-0.1,0-0.2c0-0.2,0-0.4-0.1-0.5c-0.1-0.2-0.3-0.2-0.4-0.3  c-0.1,0-0.1,0-0.2,0C33.1,53,33,53,32.9,53.1L32.9,53.1L32.9,53.1z"/><path d="M29.4,51.9c-0.2,0.1-0.3,0.2-0.4,0.4c-0.1,0-0.3,0.1-0.3,0.1c-0.1,0.1-0.2,0.1-0.3,0.2c-0.1,0.2-0.3,0.4-0.3,0.6  c-0.1,0.3,0,0.4,0,0.7c0,0.1,0.1,0.2,0.1,0.4c0,0,0,0,0,0c-0.2,0.1-0.2,0.3-0.3,0.5c0,0.1-0.1,0.3,0,0.4c0,0.1,0,0.2,0.1,0.3  c0,0.1,0.1,0.2,0.1,0.3c0,0,0,0,0,0.1c0,0,0,0.1,0.1,0.1c0.1,0.2,0.2,0.3,0.3,0.5c0.1,0.2,0.2,0.4,0.3,0.6c0,0.1,0.1,0.1,0.1,0.2  c0,0-0.1,0.1-0.1,0.1c-0.1,0.1-0.2,0.2-0.3,0.3c-0.1,0.1-0.2,0.2-0.3,0.3c-0.3,0.3-0.6,0.7-0.8,1.1c-0.1,0.2-0.2,0.5-0.3,0.7  c-0.1,0.3-0.1,0.6,0,0.9c0,0.1,0.1,0.3,0.2,0.4c0,0,0,0.1,0.1,0.1c0,0.1,0.1,0.1,0.1,0.2c0.1,0.2,0.2,0.4,0.3,0.6  c0.2,0.5,0.4,1,0.5,1.5c0,0.1,0,0.1,0,0.2c0,0.1-0.1,0.2-0.1,0.3c-0.1,0.4-0.2,0.8-0.2,1.2c-0.1,0.5-0.1,0.9-0.1,1.4  c0,0.2,0,0.4,0,0.6c0,0.3,0.1,0.6,0.1,0.8c0.1,0.3,0.2,0.6,0.4,0.9c0,0.1,0.1,0.1,0.1,0.2c0,0,0.1,0.1,0.1,0.1  c0.1,0.1,0.1,0.2,0.2,0.3c0.1,0.1,0.2,0.1,0.3,0.2c0.3,0.2,0.6,0.2,0.9,0.1c0,0.1,0.1,0.2,0.1,0.3c0.1,0.2,0.2,0.5,0.3,0.7  c0,0.1,0.1,0.1,0.1,0.2c0.1,0.1,0.2,0.3,0.3,0.4c0.3,0.3,0.7,0.5,1.2,0.4c0.1,0,0.2-0.1,0.3-0.1c0.1-0.1,0.2-0.1,0.2-0.2  c0.1-0.1,0.2-0.3,0.3-0.5c0,0,0-0.1,0-0.1c0-0.1,0.1-0.2,0.1-0.4c0-0.1,0.1-0.3,0.1-0.4c0-0.1,0.1-0.3,0.1-0.4  c0,0.1,0.1,0.2,0.1,0.3c0.1,0.2,0.1,0.4,0.2,0.5c0,0.1,0.1,0.2,0.1,0.4c0.1,0.3,0.2,0.7,0.3,1c0.1,0.2,0.1,0.4,0.2,0.7  c0,0.2,0.1,0.3,0.1,0.5c0.1,0.2,0.1,0.4,0.2,0.6c0,0,0,0,0,0c0,0.1,0.1,0.2,0.1,0.3c0.1,0.1,0.2,0.2,0.3,0.3c0.2,0.2,0.6,0.2,0.8,0  c0.2-0.1,0.4-0.4,0.4-0.7c0-0.1,0-0.1,0-0.2c0-0.2,0-0.3,0-0.5c0-0.3,0-0.6-0.1-1c0-0.4-0.1-0.7-0.1-1.1c0-0.2,0-0.3-0.1-0.5  c0-0.2-0.1-0.3-0.1-0.5c0-0.2-0.1-0.4-0.1-0.6c0,0,0,0,0,0c0,0.1,0.1,0.1,0.1,0.2c0.1,0.2,0.2,0.4,0.3,0.6c0.1,0.1,0.2,0.2,0.3,0.3  c0.1,0.1,0.3,0.1,0.5,0.1c0.2,0,0.3,0,0.4-0.1c0.1-0.1,0.2-0.1,0.3-0.2c0.1-0.1,0.1-0.1,0.2-0.2c0.1-0.1,0.2-0.2,0.3-0.3  c0.1-0.1,0.2-0.2,0.4-0.3c0.2-0.2,0.3-0.3,0.5-0.5c0,0,0.1,0.1,0.2,0.1c0.1,0,0.2,0,0.3,0c0.1-0.1,0.2-0.1,0.2-0.2  c0-0.1,0-0.2,0-0.3c0,0,0,0,0,0c0-0.1-0.1-0.2-0.2-0.3C38.7,68,38.5,68,38.3,68c-0.1,0-0.1,0-0.2,0.1c-0.1,0-0.1,0.1-0.2,0.1  c-0.1,0.1-0.2,0.2-0.3,0.2c-0.1,0.1-0.3,0.2-0.4,0.4c-0.3,0.2-0.5,0.4-0.8,0.5c0,0,0-0.1,0-0.1c-0.1-0.3-0.2-0.7-0.3-1  c0-0.1-0.1-0.3-0.2-0.4c-0.1-0.1-0.1-0.3-0.2-0.4c-0.1-0.1-0.1-0.2-0.2-0.3c-0.1,0-0.1-0.1-0.2-0.1c-0.1-0.1-0.3-0.1-0.4-0.1  c-0.1,0-0.2,0-0.3,0c-0.1,0-0.2,0.1-0.2,0.1c-0.1,0.1-0.1,0.1-0.2,0.2c-0.1,0.1-0.1,0.1-0.2,0.2c0,0.1-0.1,0.1-0.1,0.2  c-0.1-0.2-0.2-0.4-0.2-0.6c-0.1-0.4-0.3-0.8-0.5-1.1c0-0.1-0.1-0.1-0.1-0.2c-0.1-0.1-0.2-0.2-0.2-0.3c0,0-0.1-0.1-0.1-0.1  c-0.2-0.2-0.2-0.2-0.5-0.3c-0.1-0.1-0.4-0.1-0.5,0c-0.2,0.1-0.3,0.1-0.4,0.2c0-0.1,0-0.2-0.1-0.3c0-0.2-0.1-0.3-0.1-0.5  c-0.1-0.3-0.2-0.6-0.2-0.9c0-0.1-0.1-0.2-0.1-0.4c-0.1-0.3-0.2-0.5-0.4-0.7c-0.2-0.2-0.3-0.3-0.5-0.3c0-0.1-0.1-0.2-0.1-0.3  c-0.1-0.4-0.3-0.7-0.4-1.1c-0.1-0.3-0.3-0.5-0.4-0.7c0-0.1,0-0.1,0-0.2c0.2-0.5,0.6-1,0.9-1.4c0,0,0,0,0,0c0.1-0.1,0.2-0.3,0.3-0.4  c0.1-0.1,0.1-0.2,0.2-0.3c0-0.1,0-0.1,0.1-0.2c0-0.2,0-0.3,0-0.6c0-0.1,0-0.1,0-0.2c-0.1-0.2-0.2-0.5-0.2-0.7  c-0.1-0.2-0.2-0.4-0.2-0.6c0-0.1-0.1-0.2-0.1-0.3c0.1-0.1,0.1-0.1,0.1-0.2c0.1-0.1,0.1-0.2,0.2-0.4c0,0,0.1,0,0.1,0c0,0,0.1,0,0.1,0  c0,0,0.1,0,0.1,0c0.2,0,0.2,0,0.5,0c0.1,0,0.2-0.1,0.3-0.1c0.2-0.1,0.4-0.3,0.5-0.5c0.1-0.1,0.1-0.2,0.1-0.3c0.1-0.2,0.1-0.5,0-0.7  c-0.1-0.2-0.2-0.5-0.4-0.6c-0.2-0.2-0.5-0.3-0.8-0.4c-0.1,0-0.2,0-0.2-0.1c-0.2,0-0.3-0.1-0.5-0.1c0,0,0,0-0.1,0  C29.9,51.7,29.6,51.8,29.4,51.9L29.4,51.9L29.4,51.9z M29.2,56.9c0,0-0.1,0.1-0.1,0.1c0,0,0,0,0,0C29.1,56.9,29.2,56.9,29.2,56.9  L29.2,56.9L29.2,56.9z M35.2,68.1C35.2,68.1,35.2,68.1,35.2,68.1C35.2,68.1,35.2,68.1,35.2,68.1C35.2,68.1,35.2,68.1,35.2,68.1  L35.2,68.1L35.2,68.1z M36.4,69.4C36.4,69.4,36.4,69.4,36.4,69.4C36.4,69.4,36.4,69.4,36.4,69.4C36.4,69.4,36.4,69.4,36.4,69.4  L36.4,69.4L36.4,69.4z M28.7,52.4C28.7,52.4,28.7,52.4,28.7,52.4C28.7,52.4,28.7,52.4,28.7,52.4L28.7,52.4L28.7,52.4z"/><path d="M28.9,36.9c-0.1,0.1-0.2,0.3-0.2,0.5c0,0.1,0,0.1-0.1,0.2c0,0.1-0.1,0.2-0.1,0.3c-0.1,0.2-0.1,0.3-0.2,0.5  c-0.1,0.2-0.2,0.5-0.3,0.7c0,0,0,0.1,0,0.1c-0.1-0.1-0.1-0.2-0.2-0.3c0-0.1-0.1-0.1-0.2-0.2c-0.1-0.1-0.2-0.3-0.3-0.4  c-0.1-0.2-0.3-0.3-0.5-0.4c-0.3-0.1-0.5-0.2-0.8-0.2c-0.4,0-0.9,0.2-1.2,0.5c-0.2,0.2-0.3,0.4-0.4,0.7c0,0.1,0,0.3-0.1,0.4  c0,0.2,0,0.4,0.1,0.5c0.1,0.2,0.2,0.4,0.2,0.5c0.2,0.4,0.3,0.8,0.5,1.2c0-0.1-0.1-0.2-0.1-0.3c0.1,0.3,0.2,0.5,0.3,0.7  c0.1,0.1,0.1,0.2,0.2,0.4c0.1,0.1,0.2,0.3,0.3,0.4c0.1,0.1,0.1,0.2,0.2,0.3c0.1,0.2,0.3,0.4,0.4,0.6c0,0,0.1,0.1,0.1,0.1  c0,0,0,0,0,0c-0.1,0.2-0.2,0.4-0.2,0.6c0,0.1,0,0.2,0,0.3c0.1,0.2,0.2,0.4,0.3,0.6c0,0.1,0.1,0.1,0.2,0.1c0,0,0.1,0.1,0.1,0.1  c0,0.1,0,0.2,0,0.3c0,0.3,0.1,0.5,0.1,0.7c0.1,0.4,0.3,0.8,0.5,1.1c0.1,0.1,0.2,0.3,0.2,0.4c0,0.1,0.1,0.2,0.1,0.2  c0.1,0.1,0.1,0.2,0.2,0.3c0,0.1,0.1,0.1,0.1,0.2c0.1,0.1,0.2,0.1,0.4,0.2c0.1,0,0.2,0,0.3,0c0.1,0,0.3-0.1,0.4-0.3  c0,0,0-0.1,0.1-0.1c0-0.1,0.1-0.1,0.1-0.2c0-0.1,0-0.1,0-0.2c0-0.1,0-0.3,0-0.4c0-0.3-0.1-0.6-0.2-0.9c0-0.2-0.1-0.4-0.2-0.6  c0,0,0.1,0,0.1,0c0.2,0,0.4,0.1,0.6,0.1c0.2,0,0.5,0,0.7-0.1c0.1,0,0.3-0.1,0.4-0.2c0.1-0.1,0.2-0.1,0.3-0.2  c0.2-0.2,0.4-0.5,0.4-0.7c0.1-0.3,0.1-0.6,0-0.9c0-0.2-0.1-0.4-0.2-0.6c-0.1-0.3-0.3-0.6-0.5-0.9c-0.3-0.4-0.6-0.7-0.9-1.1  c-0.1-0.1-0.2-0.2-0.3-0.3c0-0.1,0-0.1,0-0.2c0.1-0.3,0.1-0.5,0.2-0.8c0.1-0.3,0.1-0.5,0.2-0.8c0-0.2,0.1-0.4,0.1-0.5  c0-0.1,0-0.2,0-0.2c0,0,0,0.1,0.1,0.1c0.2,0.3,0.4,0.6,0.6,0.8c0.1,0.1,0.1,0.1,0.2,0.2c0.1,0.1,0.1,0.1,0.2,0.2  c0.1,0.1,0.3,0.1,0.5,0c0.1,0,0.1-0.1,0.2-0.2c0,0,0-0.1,0.1-0.2c0-0.1,0-0.2,0-0.3c0-0.1,0-0.3-0.1-0.4c-0.1-0.2-0.2-0.4-0.3-0.6  c-0.1,0-0.1-0.1-0.2-0.1c-0.1-0.3-0.2-0.5-0.3-0.8c-0.2-0.3-0.3-0.7-0.6-1c-0.1-0.1-0.2-0.2-0.3-0.3c-0.2-0.1-0.4-0.2-0.6-0.2  c0,0,0,0,0,0C29.5,36.2,29.1,36.6,28.9,36.9L28.9,36.9L28.9,36.9z M29.8,37.8C29.8,37.8,29.8,37.8,29.8,37.8  C29.8,37.8,29.8,37.8,29.8,37.8C29.8,37.8,29.8,37.8,29.8,37.8L29.8,37.8L29.8,37.8z"/><path d="M36,23.3c-0.3,0.2-0.5,0.5-0.6,0.8c0,0.1,0,0.2,0,0.4c0,0,0,0,0,0c0,0,0,0,0,0c-0.1,0.2-0.2,0.4-0.4,0.6  c-0.2,0.4-0.5,0.7-0.7,1.1c-0.2,0.3-0.5,0.6-0.8,0.8c-0.2,0.1-0.4,0.2-0.6,0.3c-0.1,0-0.2,0.1-0.3,0.1c-0.1,0-0.2,0-0.3,0  c-0.1,0-0.2,0-0.3-0.1c-0.1-0.1-0.2-0.1-0.3-0.2c-0.1-0.1-0.2-0.2-0.3-0.3c-0.2-0.2-0.3-0.5-0.4-0.7c-0.1-0.1-0.1-0.3-0.1-0.4  c0-0.1-0.1-0.2-0.1-0.3c0-0.1-0.1-0.3-0.2-0.4c-0.2-0.2-0.4-0.3-0.6-0.3c-0.2,0-0.4,0.1-0.6,0.3c-0.1,0.1-0.3,0.4-0.3,0.6  c0,0.3,0,0.6,0,0.9c0,0.3,0,0.7,0,1c0,0.2-0.1,0.3-0.1,0.5c0,0,0,0.1-0.1,0.1c0,0,0,0-0.1,0.1c0,0,0,0,0,0c0,0,0,0,0,0c0,0,0,0,0,0  c0,0-0.1,0-0.1,0c0,0-0.1,0-0.1-0.1c0,0,0,0,0,0c-0.2-0.2-0.6-0.2-0.7,0.1c0,0.1-0.1,0.2-0.1,0.3c0,0.1,0.1,0.3,0.1,0.4  c0.1,0.2,0.3,0.3,0.4,0.4c0.2,0.1,0.4,0.2,0.6,0.2c0.1,0,0.1,0,0.2,0c0,0,0,0,0,0c0.1,0.1,0.3,0.1,0.4,0c0,0,0.1-0.1,0.1-0.2  c0.1,0,0.1-0.1,0.1-0.1c0.1-0.1,0.2-0.1,0.3-0.2c0.1-0.1,0.2-0.3,0.3-0.5c0,0,0-0.1,0.1-0.1c0.2,0.2,0.3,0.3,0.5,0.4  c0.2,0.2,0.5,0.3,0.8,0.4c0.3,0.1,0.5,0.1,0.8,0.1c0.1,0,0.2,0,0.3,0c0.2,0,0.4,0,0.5-0.1c0.3-0.1,0.5-0.2,0.8-0.3  c0.3-0.1,0.5-0.3,0.7-0.5c0.4-0.3,0.7-0.6,1-1c0,0,0.1-0.1,0.1-0.1c0,0,0,0,0,0.1c0.2,0.3,0.4,0.5,0.8,0.8c0.3,0.2,0.6,0.3,1,0.3  c0.5,0,1-0.2,1.4-0.6c0.4-0.4,0.6-0.9,0.6-1.4c0-0.2,0-0.3-0.1-0.5c-0.1-0.3-0.3-0.6-0.5-0.9c-0.1-0.2-0.3-0.3-0.5-0.4  c0,0-0.1-0.1-0.1-0.1c0-0.1-0.1-0.1-0.1-0.2c0-0.1-0.1-0.1-0.1-0.2c0,0-0.1-0.1-0.1-0.1c0-0.1-0.1-0.1-0.2-0.2  c-0.1-0.1-0.1-0.2-0.2-0.2c-0.2-0.2-0.4-0.3-0.6-0.4c-0.1,0-0.2,0-0.4,0C36.4,23.1,36.2,23.1,36,23.3L36,23.3L36,23.3z"/><path d="M71.4,33.7c-0.1,0.1-0.3,0.2-0.4,0.4c-0.1,0.1-0.1,0.3-0.1,0.4c0,0.1,0,0.2,0,0.3c0,0.1,0.1,0.2,0.1,0.3c0,0,0,0,0,0  c-0.1,0.5-0.2,1-0.3,1.5c-0.1,0.8-0.2,1.6-0.3,2.3c-0.1,0.5-0.1,1.1-0.2,1.6c0,0.1,0,0.1,0,0.2c0,0,0,0,0,0c0,0,0,0.1,0,0.1  c0,0.1,0,0.1,0,0.2c0,0,0,0,0,0c0,0,0,0,0,0c0,0.1,0,0.2,0,0.3c0,0.2,0.1,0.4,0.2,0.6c0.1,0.2,0.4,0.4,0.6,0.5  c-0.2,0.4-0.1,0.9,0.2,1.1c0.2,0.2,0.4,0.3,0.7,0.3c0.1,0,0.2,0,0.3,0c0.2,0,0.3-0.1,0.4-0.3c0.3-0.2,0.5-0.5,0.8-0.7  c0.1-0.1,0.2-0.2,0.3-0.4c0.3-0.4,0.5-0.7,0.7-1.1c0.1-0.2,0.2-0.4,0.2-0.6c0-0.1,0.1-0.2,0.1-0.3c0-0.2,0.1-0.4,0.1-0.6  c0-0.1,0-0.3,0-0.4c0-0.2,0-0.4-0.1-0.7c0-0.1,0-0.2-0.1-0.3c0-0.2-0.1-0.3-0.1-0.5c-0.1-0.4-0.2-0.7-0.2-1.1c0-0.1,0-0.2-0.1-0.4  c0-0.1,0-0.2-0.1-0.3c0-0.1-0.1-0.3-0.2-0.4c-0.1-0.2-0.3-0.4-0.5-0.5c-0.1-0.1-0.3-0.1-0.4-0.2c-0.1-0.1-0.4-0.1-0.5,0  c0,0,0-0.1,0-0.1c0-0.3,0.1-0.6,0-0.9c-0.1-0.2-0.2-0.4-0.4-0.5c-0.1-0.1-0.3-0.1-0.4-0.1C71.7,33.6,71.5,33.6,71.4,33.7L71.4,33.7  L71.4,33.7z"/><path d="M69,33.4c0,0.1-0.1,0.1-0.1,0.2c0,0,0,0,0,0C68.9,33.5,69,33.5,69,33.4L69,33.4L69,33.4z M64.1,30.2  c-0.2,0.3-0.2,0.6-0.1,0.9c0.1,0.4,0.4,0.7,0.8,0.8c0,0,0.1,0,0.1,0c0.1,0,0.3,0,0.4,0.1c0.1,0,0.2,0,0.3,0c0.1,0,0.2,0,0.2,0  c0.1,0,0.1,0,0.2,0c0,0.3,0,0.3,0,0.6c0,0.1,0,0.1,0,0.2c0.1,0.2,0.2,0.5,0.3,0.7c0,0,0,0,0,0c0,0,0,0,0,0c-0.1,0.1-0.1,0.3-0.1,0.4  c-0.1,0.3-0.1,0.7,0,1c0,0.1,0.1,0.2,0.1,0.3c0.1,0.1,0.1,0.1,0.2,0.2c0.1,0.1,0.3,0.2,0.5,0.3c0.2,0,0.4,0.1,0.6,0  c0.1,0,0.2-0.1,0.3-0.1c0.1,0,0.2-0.1,0.2-0.2c0.1-0.1,0.1-0.2,0.2-0.3c0.1-0.1,0.1-0.3,0.2-0.4c0-0.1,0-0.1,0.1-0.2c0,0,0,0,0,0  c0.1,0,0.2-0.1,0.3-0.2c0.1-0.1,0.2-0.4,0.2-0.6c0-0.2,0-0.5-0.1-0.7c0.1,0,0.2-0.1,0.3-0.1c0.2-0.1,0.3-0.1,0.5-0.2  c0.2-0.1,0.3-0.2,0.5-0.3c0.2-0.1,0.3-0.4,0.4-0.6c0-0.1,0-0.2,0-0.4c0-0.2-0.1-0.4-0.2-0.6c-0.1-0.2-0.3-0.4-0.5-0.5  c-0.2-0.1-0.4-0.2-0.5-0.2c-0.1,0-0.3-0.1-0.4-0.1c-0.1,0-0.1-0.1-0.2-0.1c0,0-0.1,0-0.1,0c-0.1,0-0.2-0.1-0.3-0.1  c-0.1,0-0.2,0-0.2,0.1c0,0-0.1,0-0.1,0.1c0,0-0.1,0-0.1,0c-0.3,0-0.7-0.1-1-0.1c-0.7-0.1-1.5-0.1-2.2-0.1c0,0,0,0-0.1,0  C64.7,29.6,64.3,29.8,64.1,30.2L64.1,30.2L64.1,30.2z"/><path d="M55.2,46.6c-0.3,0.3-0.5,0.7-0.7,1c-0.1,0.1-0.1,0.2-0.2,0.4c0,0,0,0,0,0c-0.1-0.1-0.2-0.2-0.4-0.3  c-0.1-0.1-0.2-0.1-0.4-0.1c-0.2,0-0.4,0.1-0.5,0.2c-0.1,0.1-0.2,0.2-0.2,0.3c-0.1,0.2,0,0.4,0.1,0.6c0,0,0,0,0,0c0,0,0,0,0,0  c0.1,0.3,0.2,0.7,0.2,1c0,0.2,0,0.5,0,0.7c0,0.2,0,0.5,0,0.7c0,0.1,0,0.2,0,0.3c0,0.1,0,0.2,0,0.3c0,0.2,0,0.4-0.1,0.6  c-0.1,0.3-0.1,0.7-0.2,1c-0.1,0.3,0.1,0.7,0.4,0.8c0.3,0.1,0.7-0.1,0.8-0.4c0.1-0.6,0.2-1.3,0.3-1.9c0.1,0,0.2,0.1,0.4,0.1  c0.4,0,0.8-0.2,1-0.6c0.1-0.3,0.2-0.5,0.3-0.8c0,0,0-0.1,0-0.1c0.1,0.1,0.2,0.2,0.3,0.2c0.2,0.1,0.5,0.2,0.7,0.2c0.1,0,0.4,0,0.5,0  c0.4-0.1,0.7-0.3,1-0.5c0.3-0.2,0.7-0.4,1-0.6c0.3-0.1,0.6-0.2,0.9-0.3c0,0.1,0,0.2,0.1,0.3c0,0.1,0.1,0.3,0.2,0.4  c0.1,0.1,0.2,0.2,0.3,0.3c0.1,0.1,0.4,0.3,0.4,0.3c0,0,0.1,0,0.1,0.1c0,0,0.1,0,0.1,0.1c0.1,0.1,0.3,0.1,0.4,0.2  c0.3,0.1,0.7,0.1,1,0.2c0.4,0,0.9,0,1.3,0c0,0,0,0,0,0.1c0,0.2,0,0.4,0.1,0.6c0,0.2,0.1,0.3,0.2,0.5c0.1,0.2,0.3,0.4,0.4,0.5  c0.2,0.2,0.3,0.3,0.5,0.5c0.2,0.1,0.4,0.2,0.6,0.3c0,0,0.1,0,0.1,0c0.1,0,0.2,0,0.3,0.1c0.1,0.1,0.2,0.1,0.3,0.2  c0.2,0.1,0.4,0.1,0.6,0c0,0,0,0,0,0c0.2,0,0.3-0.1,0.5-0.2c0.2-0.1,0.4-0.3,0.5-0.5c0.1-0.1,0.1-0.3,0.2-0.5  c0.1-0.1,0.3-0.3,0.4-0.5c0.1-0.1,0.1-0.2,0.1-0.2c0.1-0.2,0.2-0.4,0.2-0.6c0.1-0.3,0.1-0.6,0.2-0.9c0-0.1,0-0.2,0-0.3  c0-0.2-0.1-0.5-0.1-0.7c0-0.1,0-0.2-0.1-0.3c-0.1-0.2-0.1-0.3-0.2-0.5c-0.1-0.1-0.2-0.3-0.3-0.4c-0.2-0.3-0.5-0.4-0.9-0.5  c-0.1,0-0.1,0-0.2,0c-0.2-0.1-0.5-0.1-0.7-0.1c-0.2,0-0.4,0-0.6,0.1c0,0,0-0.1,0-0.1c0-0.4-0.2-0.7-0.4-1c-0.1-0.1-0.2-0.1-0.3-0.2  c-0.2-0.1-0.5-0.2-0.7-0.2c-0.3,0-0.5,0.1-0.8,0.1c-0.1,0-0.2,0.1-0.3,0.1c-0.2,0-0.4,0-0.6,0c-0.3,0-0.7,0-1,0c-0.7,0-1.3,0-2,0.1  c-0.3,0-0.6,0.1-0.8,0.1c-0.4,0.1-0.7,0.1-1,0.3c-0.2,0.1-0.4,0.2-0.6,0.3c0-0.1-0.1-0.3-0.2-0.4c-0.2-0.4-0.6-0.6-0.9-0.7  c-0.1,0-0.3-0.1-0.4-0.1C55.9,46,55.5,46.2,55.2,46.6L55.2,46.6L55.2,46.6z"/><path d="M58.9,50.8c-0.2,0-0.4,0-0.5,0.1c-0.2,0.1-0.4,0.1-0.7,0.2c-0.3,0.1-0.5,0.2-0.8,0.3c-0.2,0.1-0.4,0.2-0.6,0.4c0,0,0,0,0,0  c-0.2,0.1-0.4,0.3-0.4,0.5c0,0,0,0.1,0,0.1c-0.1,0-0.2,0-0.3,0c-0.3,0-0.6,0.2-0.8,0.4c-0.2,0.2-0.3,0.4-0.4,0.6  c0,0.1-0.1,0.2-0.1,0.3c0,0-0.1,0.1-0.1,0.1c0,0-0.1,0.1-0.1,0.1c0,0,0,0.1-0.1,0.1c0,0,0,0,0,0c0,0,0,0,0,0c0,0.1,0,0.1,0,0.2  c0,0.3,0.2,0.7,0.6,0.7c0.1,0,0.3,0,0.4,0c0.1,0,0.2-0.1,0.3-0.2c0,0,0,0,0.1,0c0.1-0.1,0.1-0.2,0.2-0.2c0.1-0.1,0.1-0.2,0.1-0.4  c0-0.1,0-0.1,0.1-0.2c0,0,0,0,0,0c0,0,0,0,0,0.1c0,0,0,0,0,0c0,0,0,0,0,0c0.1,0.1,0.1,0.1,0.2,0.1c0.2,0.1,0.4,0,0.5-0.2  c0.1-0.2,0.1-0.4,0-0.6c0-0.1,0-0.1-0.1-0.2c0-0.2,0-0.4,0-0.5c0-0.1,0-0.1,0-0.2c0,0,0,0,0-0.1c0,0,0-0.1,0.1-0.1  c0.1-0.1,0.3-0.2,0.4-0.2c0.4-0.1,0.8-0.2,1.2-0.3c0.1,0,0.2,0,0.3,0c0.2,0,0.3,0,0.5,0c0.2,0,0.3,0.1,0.5,0.1  c0.1,0,0.3,0.1,0.4,0.1c0.3,0,0.6,0.1,0.9,0.2c0.2,0.1,0.3,0.1,0.4,0.2c0.1,0.1,0.2,0.2,0.3,0.2c0.2,0.1,0.3,0.3,0.5,0.4  c0.1,0.1,0.2,0.1,0.4,0.2c0.1,0.1,0.2,0.1,0.3,0.2c0.2,0.2,0.3,0.4,0.5,0.6c0.1,0.1,0.3,0.3,0.5,0.4c0.1,0.1,0.3,0.1,0.4,0.2  c0.3,0.2,0.7,0.3,1,0.4c0.3,0.1,0.6,0.2,0.9,0.2c0.3,0.1,0.7,0.2,1,0.3c0.3,0.1,0.6-0.1,0.7-0.4c0.1-0.3-0.1-0.6-0.4-0.7  c-0.4-0.1-0.8-0.2-1.2-0.3c-0.3-0.1-0.6-0.2-0.9-0.3c-0.3-0.1-0.6-0.3-0.8-0.4c-0.1-0.1-0.2-0.2-0.3-0.3c-0.2-0.2-0.3-0.5-0.5-0.7  c-0.1-0.1-0.2-0.2-0.3-0.2c-0.1,0-0.1-0.1-0.2-0.1c-0.1,0-0.1-0.1-0.2-0.1c-0.1-0.1-0.2-0.1-0.2-0.2c-0.2-0.1-0.3-0.2-0.5-0.4  c-0.2-0.1-0.3-0.2-0.5-0.2c-0.1,0-0.3-0.1-0.4-0.1c-0.3-0.1-0.6-0.1-0.9-0.1c-0.3,0-0.5,0-0.8,0c0,0-0.1,0-0.1,0  c-0.2,0-0.3-0.1-0.5-0.1C59,50.8,59,50.8,58.9,50.8L58.9,50.8L58.9,50.8z"/><path d="M57.6,51.4c-0.2,0-0.4,0.2-0.5,0.3c-0.1,0.1-0.1,0.1-0.2,0.2c0,0.1-0.1,0.2-0.1,0.3c0,0.1,0,0.3-0.1,0.4  c0,0.1,0,0.3,0.1,0.4c0,0,0,0.1,0,0.1c0,0.1,0.1,0.2,0.1,0.3c0,0,0,0.1,0,0.1c0,0,0,0.1,0.1,0.1c0.1,0.1,0.2,0.2,0.2,0.3  c0.1,0.1,0.2,0.2,0.3,0.3c0.1,0,0.1,0.1,0.2,0.1c0.2,0.1,0.5,0.2,0.8,0.3c0.2,0,0.4,0.1,0.6,0.1c0.2,0,0.3,0,0.5-0.1  c0.3,0,0.6-0.1,0.8-0.3c0,0,0.1,0,0.1-0.1c0.1,0,0.3-0.1,0.4-0.2c0.2-0.1,0.4-0.3,0.4-0.5c0-0.1,0.1-0.2,0.1-0.3c0-0.1,0-0.2,0-0.3  c0-0.2-0.1-0.4-0.2-0.6c-0.1-0.1-0.1-0.1-0.2-0.2c-0.1-0.1-0.3-0.2-0.4-0.3c-0.2-0.1-0.4-0.1-0.6,0c-0.2,0-0.3,0.1-0.4,0.2  c0,0-0.1,0-0.1-0.1c0,0,0,0,0,0c-0.1,0-0.1-0.1-0.2-0.1c-0.2-0.1-0.5-0.2-0.7-0.1c-0.2-0.2-0.3-0.3-0.6-0.4c-0.1,0-0.2,0-0.3,0  C57.9,51.3,57.8,51.3,57.6,51.4L57.6,51.4L57.6,51.4z"/><path d="M63.7,54.5c-0.1,0-0.2,0-0.4,0c-0.1,0-0.1,0-0.2,0c-0.1,0-0.1,0-0.2,0c0,0-0.1,0-0.1,0c-0.1,0-0.2,0-0.3,0  c-0.1,0-0.2,0.1-0.3,0.1c-0.2,0.1-0.3,0.2-0.4,0.4c0,0-0.1,0-0.1,0c-0.3,0-0.5,0-0.8,0.1c-0.3,0-0.5,0-0.8,0.1c-0.3,0-0.6,0-0.9,0  c-0.2,0-0.5,0-0.7,0c-0.1,0-0.3-0.1-0.4-0.1c-0.1,0-0.2-0.1-0.3-0.1c-0.2-0.1-0.3-0.2-0.4-0.3c0,0-0.1-0.1-0.1-0.1  c-0.1,0-0.1,0-0.2-0.1c-0.1,0-0.1,0-0.2,0c-0.1,0-0.1,0-0.2,0c-0.1,0-0.1,0.1-0.2,0.1c-0.1,0.1-0.1,0.1-0.1,0.2c0,0.1,0,0.1,0,0.2  c0,0.1,0.1,0.2,0.2,0.2c0,0,0,0,0,0c0,0.1,0.1,0.1,0.2,0.2c0.1,0.1,0.1,0.1,0.2,0.2c0.2,0.2,0.4,0.3,0.6,0.4  c0.2,0.1,0.4,0.2,0.6,0.2c0.2,0.1,0.3,0.1,0.5,0.1c0.1,0,0.3,0.1,0.4,0.1c0.2,0,0.3,0.1,0.5,0.1c0.3,0,0.6,0.1,0.9,0.2  c0.1,0,0.2,0,0.4,0.1c0.2,0,0.4,0.1,0.6,0.1c0.1,0,0.3,0,0.4,0c0.1,0,0.1,0,0.2,0c0.1,0,0.3,0,0.5-0.1c0.2,0,0.4-0.1,0.6-0.2  c0.1-0.1,0.2-0.1,0.4-0.2c0.1-0.1,0.2-0.1,0.3-0.2c0.1-0.1,0.1-0.2,0.2-0.2c0-0.1,0.1-0.2,0.1-0.2c0.1-0.2,0.2-0.4,0.2-0.6  c0-0.2-0.1-0.4-0.2-0.6C64.1,54.6,63.9,54.5,63.7,54.5C63.7,54.5,63.7,54.5,63.7,54.5L63.7,54.5L63.7,54.5z"/><path d="M58.9,67.8c-0.1,0.1-0.2,0.2-0.3,0.4c0,0.2,0,0.3,0.1,0.5c0.1,0.1,0.2,0.3,0.4,0.3c0.1,0,0.3,0,0.4,0.1  c0.2,0.1,0.3,0.2,0.4,0.3c0,0.1,0,0.1,0,0.2c0,0.2,0.1,0.3,0.2,0.4c0.1,0.1,0.2,0.1,0.3,0.2c0.1,0,0.2,0.1,0.2,0.1  c0.1,0,0.2,0.1,0.2,0.1c0,0,0.1,0,0.1,0.1c0.1,0,0.2,0.1,0.3,0.1c0.1,0,0.3,0,0.4,0c0.1,0,0.2-0.1,0.3-0.2c0.2-0.2,0.2-0.6,0.1-0.8  c-0.1-0.1-0.2-0.2-0.3-0.3c0,0-0.1-0.1-0.1-0.1c0,0,0,0,0,0c0-0.2-0.1-0.5-0.3-0.6c-0.3-0.3-0.6-0.3-0.9-0.2c0,0,0,0,0,0  c-0.2-0.1-0.3-0.2-0.5-0.3c-0.2-0.1-0.4-0.2-0.7-0.2c-0.1,0-0.1,0-0.2,0C59.1,67.8,59,67.8,58.9,67.8L58.9,67.8L58.9,67.8z"/><path d="M69.1,56.1c-0.2,0.2-0.3,0.3-0.3,0.6c-0.1,0.2-0.1,0.4-0.1,0.5c0,0.2-0.1,0.3-0.1,0.5c-0.1,0.4-0.1,0.7-0.2,1.1  c0,0.1,0,0.3-0.1,0.4c-0.2,0-0.4,0.1-0.5,0.3c0,0.1-0.1,0.2-0.1,0.3c0,0.1,0,0.1,0,0.2c0,0.2,0,0.4,0,0.5c0,0.2,0,0.4,0.1,0.6  c0,0.2,0.1,0.3,0.1,0.5c0,0,0,0.1,0,0.1c0,0.1,0,0.1,0,0.2c0,0,0-0.1,0-0.1c0,0.2-0.1,0.4-0.1,0.6c0,0.1-0.1,0.3-0.1,0.4  c-0.1,0.3-0.2,0.6-0.3,0.9c-0.2,0.5-0.5,1-0.8,1.5c-0.2,0.3-0.3,0.6-0.5,0.9c-0.1,0.3-0.3,0.5-0.4,0.8c-0.1,0.2-0.2,0.3-0.3,0.5  c0,0.1-0.1,0.1-0.1,0.2c-0.1,0.1-0.1,0.3-0.2,0.4c0,0.1,0,0.2,0,0.3c0,0.1,0,0.3,0.1,0.4c0.1,0.1,0.2,0.2,0.3,0.3c0,0,0,0.1,0,0.1  c0,0.3,0,0.6,0,0.9c-0.1,0.1-0.2,0.2-0.2,0.3c-0.1,0.1-0.1,0.2-0.1,0.3c0,0,0,0.1,0,0.1c0-0.1,0-0.1,0-0.2c0,0,0-0.1,0-0.1  c0,0,0,0,0,0c0.1-0.1,0.1-0.2,0.1-0.4c0-0.2-0.1-0.4-0.2-0.5c-0.1-0.1-0.2-0.2-0.4-0.2c-0.2,0-0.3,0-0.5,0c-0.2,0.1-0.4,0.2-0.5,0.3  c-0.2,0.2-0.3,0.5-0.5,0.7c-0.1,0.3-0.2,0.5-0.3,0.8c-0.1,0.3-0.1,0.6-0.2,0.9c0,0.4,0,0.8,0.1,1.2c0,0.2,0,0.3,0.1,0.5  c0,0.3,0.1,0.6,0.1,0.9c0.1,0.5,0.3,0.9,0.7,1.1c0.1,0.1,0.2,0.1,0.3,0.1c0.2,0.1,0.4,0,0.6,0c0.2,0,0.4-0.2,0.5-0.3  c0.1-0.1,0.2-0.2,0.2-0.3c0.1-0.2,0.2-0.3,0.3-0.5c0.1-0.2,0.2-0.4,0.3-0.6c0,0,0,0,0,0c0,0,0,0,0,0c0,0,0,0,0,0c0,0,0,0,0,0  c0.3,0.2,0.6,0.2,0.9,0.1c0.4-0.1,0.7-0.4,0.8-0.7c0-0.1,0.1-0.1,0.1-0.2c0,0,0.1,0,0.1,0c0,0,0,0,0,0c0.2,0,0.4,0,0.5-0.1  c0.1,0,0.2-0.1,0.3-0.2c0,0,0,0,0.1-0.1c0.1-0.1,0.1-0.2,0.2-0.2c0,0,0-0.1,0.1-0.1c0.1-0.2,0.2-0.5,0.3-0.7c0.2-0.5,0.2-1,0.1-1.5  c0-0.3-0.1-0.6-0.1-0.9c0-0.1-0.1-0.2-0.1-0.4c-0.1-0.2-0.1-0.3-0.2-0.5c-0.1-0.2-0.1-0.3-0.1-0.5c0-0.1-0.1-0.3-0.1-0.4  c0-0.1,0-0.3,0-0.4c0-0.1,0-0.3,0-0.4c0.1-0.7,0.4-1.3,0.6-2c0.1-0.3,0.2-0.5,0.3-0.8c0.2-0.4,0.3-0.8,0.5-1.2  c0.2-0.4,0.3-0.9,0.5-1.4c0.1-0.5,0.2-1.1,0.3-1.6c0-0.5,0.1-1,0.1-1.5c0-0.2,0-0.5,0-0.7c0-0.1,0-0.2,0-0.3c0-0.2,0-0.4-0.1-0.6  c0-0.2-0.1-0.3-0.2-0.5c-0.1-0.3-0.4-0.5-0.7-0.5c-0.1,0-0.2,0-0.3,0C69.5,55.8,69.2,55.9,69.1,56.1L69.1,56.1L69.1,56.1z   M66.8,67.7C66.8,67.7,66.8,67.7,66.8,67.7C66.8,67.7,66.8,67.7,66.8,67.7c0,0.1,0,0.1,0.1,0.2c0,0,0-0.1-0.1-0.1  C66.7,67.8,66.7,67.8,66.8,67.7C66.7,67.8,66.7,67.8,66.8,67.7L66.8,67.7L66.8,67.7z M66.1,73.9C66.1,73.9,66.1,74,66.1,73.9  C66.1,74,66.1,73.9,66.1,73.9C66.1,73.9,66.1,73.9,66.1,73.9L66.1,73.9L66.1,73.9z"/><path d="M24.8,54c0,0.1-0.1,0.1-0.1,0.2c-0.1,0.1-0.1,0.3-0.1,0.4c0,0.1,0,0.3,0,0.4c0,0.1,0,0.3,0,0.4c-0.1,0.3-0.2,0.6-0.3,0.9  c-0.1,0.2-0.2,0.4-0.3,0.6c-0.1,0.3-0.3,0.6-0.4,1c0,0.1,0,0.2,0,0.3c0,0.2,0,0.3,0.1,0.5c0.2,0.3,0.5,0.5,0.8,0.5  c0.1,0,0.3,0,0.4-0.1c0.1,0,0.2,0,0.2,0c0.1,0,0.3-0.1,0.3-0.3c0.1-0.2,0.2-0.3,0.2-0.4c0.1-0.4,0.3-0.7,0.3-1.1c0-0.1,0-0.2,0-0.2  c0.1-0.2,0.2-0.4,0.2-0.6c0-0.1,0.1-0.2,0.1-0.4c0-0.2,0.1-0.4,0.1-0.6c0-0.1,0-0.3,0-0.4c0-0.2,0-0.4-0.1-0.6  c-0.1-0.4-0.4-0.6-0.8-0.6C25.2,53.7,25,53.8,24.8,54L24.8,54L24.8,54z"/><path d="M22.4,48.4c-0.1,0-0.2,0.1-0.3,0.1c-0.1,0-0.1,0.1-0.2,0.1c-0.2,0.1-0.3,0.2-0.4,0.4c-0.1,0.1-0.1,0.2-0.2,0.3  c-0.1,0.1-0.1,0.2-0.1,0.3c0,0.1-0.1,0.2-0.1,0.2c-0.1,0.2-0.1,0.5-0.2,0.8c0,0.1,0,0.2,0,0.4c0,0.1,0,0.2,0,0.4  c0,0.1,0.1,0.2,0.1,0.3c0,0.1,0.1,0.2,0.2,0.3c0,0.1,0.1,0.1,0.1,0.2c0,0,0.1,0.1,0.1,0.1c0,0,0.1,0.1,0.1,0.1c0,0.1,0,0.2,0,0.2  c0.1,0.1,0.1,0.2,0.1,0.2c0,0,0,0.1,0.1,0.1c0,0,0,0.1,0.1,0.1c0.1,0.2,0.1,0.4,0.2,0.6c0,0.3,0,0.6,0,0.9c0,0.2,0,0.3,0,0.5  c0,0.1,0,0.2,0,0.3c0,0,0,0.1,0,0.1c0,0,0,0.1,0,0.1c-0.1,0.1-0.1,0.2-0.2,0.3c-0.1,0.1-0.2,0.2-0.2,0.4c-0.1,0.1-0.1,0.3-0.2,0.4  c-0.1,0.2-0.2,0.4-0.2,0.6c-0.1,0.2-0.1,0.5-0.2,0.7c0,0.3-0.1,0.6-0.1,0.8c0,0.1,0,0.2,0,0.3c0,0.3,0.1,0.6,0.1,0.9  c0,0.2,0.1,0.4,0.2,0.6c0,0.1,0.1,0.3,0.2,0.4c0.1,0.1,0.2,0.2,0.2,0.3c0.2,0.2,0.5,0.3,0.8,0.2c0.1,0,0.1,0,0.2-0.1  c0.1,0.1,0.1,0.1,0.2,0.2c0.2,0.2,0.3,0.5,0.5,0.7c0.2,0.3,0.4,0.6,0.6,0.9c0.1,0.1,0.2,0.2,0.2,0.3c0,0,0.1,0,0.1,0.1  c0.1,0,0.1,0.1,0.2,0.2c0.1,0.1,0.2,0.2,0.3,0.3c0.1,0.1,0.3,0.3,0.4,0.4c0.2,0.2,0.5,0.4,0.8,0.4c0.3,0,0.5,0,0.8,0  c0.1,0,0.2-0.1,0.4-0.1c0.1,0,0.2-0.1,0.3-0.2c0.1-0.1,0.1-0.2,0-0.3c0,0,0,0,0,0c0-0.1-0.2-0.1-0.3-0.1c0,0-0.1,0-0.1,0  c0,0,0,0,0,0c0,0,0,0,0,0c0,0-0.1,0-0.1-0.1c-0.1-0.1-0.2-0.2-0.3-0.3c-0.1-0.1-0.2-0.3-0.3-0.4c-0.1-0.2-0.2-0.4-0.3-0.6  c-0.1-0.1-0.3-0.2-0.4-0.1c-0.1,0.1-0.2,0.2-0.1,0.4c0.1,0.2,0.2,0.4,0.3,0.6c0.1,0.2,0.3,0.4,0.4,0.5c0,0,0,0,0,0c0,0-0.1,0-0.1,0  c-0.1,0-0.1-0.1-0.2-0.1c-0.2-0.1-0.3-0.3-0.5-0.5c-0.1-0.1-0.2-0.3-0.3-0.4c0-0.1-0.1-0.2-0.1-0.2c-0.1-0.1-0.1-0.2-0.2-0.3  c-0.2-0.2-0.3-0.5-0.4-0.8c-0.1-0.2-0.3-0.5-0.4-0.7c-0.2-0.3-0.3-0.5-0.5-0.7c-0.1-0.2-0.3-0.4-0.4-0.6c0,0,0-0.1-0.1-0.1  c-0.1-0.1-0.1-0.2-0.2-0.3c0-0.1,0-0.1,0-0.2c0-0.3,0-0.5,0-0.8c0-0.3,0.1-0.5,0.2-0.8c0-0.2,0.1-0.3,0.1-0.5  c0.1-0.3,0.2-0.6,0.3-0.9c0.1-0.4,0.1-0.9,0.1-1.3c0,0,0-0.1,0-0.1c0.2,0,0.5,0,0.7-0.1c0.2-0.1,0.4-0.3,0.4-0.6c0-0.1,0-0.2,0-0.2  c0-0.2,0-0.3-0.1-0.5c0-0.1-0.1-0.1-0.1-0.2c0,0-0.1-0.1-0.1-0.1c-0.1-0.1-0.1-0.2-0.2-0.3c-0.1-0.2-0.3-0.5-0.4-0.7  c-0.1-0.2-0.2-0.3-0.4-0.5c-0.1-0.1-0.2-0.2-0.3-0.3c-0.1-0.1-0.3-0.3-0.5-0.4c0,0-0.1,0-0.1-0.1c0,0,0,0,0,0c0.1,0,0.1,0,0.2,0  c0.1,0,0.2-0.1,0.2-0.1c0,0,0,0,0,0c0.1,0,0.3,0,0.4,0c0.1,0,0.2,0,0.3,0.1c0.2,0.1,0.4,0.2,0.5,0.3c0.1,0,0.1,0.1,0.2,0.1  c0.1,0,0.1,0.1,0.2,0.1c0.1,0,0.1,0,0.2,0c0,0,0,0,0,0c0,0,0,0,0,0c0.1,0,0.1,0,0.2,0c0.1,0,0.1,0,0.2-0.1c0.1-0.1,0.2-0.1,0.2-0.2  c0.1-0.2,0.1-0.4,0.1-0.6c-0.1-0.2-0.1-0.3-0.3-0.4c-0.1-0.1-0.1-0.1-0.2-0.2c-0.2-0.2-0.3-0.3-0.5-0.4c-0.1,0-0.1-0.1-0.2-0.1  c-0.2-0.2-0.3-0.4-0.5-0.6c-0.1-0.1-0.2-0.2-0.3-0.2c-0.1,0-0.2-0.1-0.2-0.1c-0.1,0-0.2-0.1-0.3-0.1c0,0,0,0,0,0  C22.6,48.4,22.5,48.4,22.4,48.4L22.4,48.4L22.4,48.4z M22.9,50.6C22.9,50.6,22.9,50.6,22.9,50.6C22.9,50.6,22.9,50.6,22.9,50.6  L22.9,50.6L22.9,50.6z M21.3,52.1C21.4,52.1,21.4,52.1,21.3,52.1C21.4,52.1,21.4,52.1,21.3,52.1L21.3,52.1L21.3,52.1z M21.5,52.2  C21.5,52.2,21.5,52.3,21.5,52.2C21.5,52.3,21.5,52.2,21.5,52.2C21.5,52.2,21.5,52.2,21.5,52.2L21.5,52.2L21.5,52.2z M21.5,52.3  C21.5,52.3,21.5,52.3,21.5,52.3L21.5,52.3C21.5,52.3,21.5,52.3,21.5,52.3L21.5,52.3L21.5,52.3z"/><path d="M22.5,61.6c0,0.3,0,0.5,0,0.8c0,0.3,0.1,0.5,0.3,0.8c0.1,0.1,0.1,0.2,0.2,0.3c0.1,0.1,0.2,0.2,0.2,0.3  c0.1,0.1,0.1,0.2,0.2,0.2c0.1,0.1,0.1,0.1,0.2,0.2c0.1,0.1,0.1,0.2,0.2,0.3c0.1,0.2,0.2,0.4,0.3,0.5c0.1,0.2,0.1,0.3,0.2,0.5  c0.1,0.2,0.2,0.5,0.3,0.7c0,0,0-0.1-0.1-0.1c0.1,0.2,0.1,0.3,0.2,0.5c0.1,0.2,0.2,0.3,0.4,0.5c0,0.1,0.1,0.1,0.2,0.2  c0.1,0.1,0.1,0.3,0.3,0.4c0.1,0.1,0.3,0.2,0.5,0.3c0,0,0.1,0,0.1,0c0.2,0,0.3,0,0.5,0c0.1,0,0.2-0.1,0.2-0.1c0,0,0.1,0,0.1-0.1  c0.1,0,0.1,0,0.2,0c0.1,0,0.1,0,0.2-0.1c0.2,0,0.3-0.1,0.5-0.1c0.4-0.1,0.8-0.5,0.8-1c0-0.3-0.1-0.5-0.3-0.7  c-0.1-0.1-0.1-0.1-0.2-0.2c-0.2-0.1-0.3-0.1-0.5-0.1c-0.2,0-0.4,0-0.6,0c-0.1,0-0.1,0-0.2,0c-0.1,0-0.3,0-0.5,0.1  c-0.1,0-0.1,0-0.2,0c-0.1,0-0.2,0.1-0.3,0.1c0,0,0,0-0.1-0.1c-0.1-0.2-0.3-0.4-0.4-0.6c-0.1-0.1-0.2-0.2-0.2-0.3  c-0.1-0.1-0.2-0.3-0.3-0.4c-0.1-0.1-0.2-0.2-0.3-0.3c-0.1-0.1-0.2-0.2-0.2-0.3c-0.1-0.1-0.2-0.2-0.3-0.3c-0.2-0.2-0.4-0.3-0.5-0.5  c-0.1-0.1-0.1-0.2-0.2-0.3c0-0.1-0.1-0.3-0.1-0.4c0-0.2,0-0.4,0-0.6c0-0.1-0.1-0.3-0.3-0.3C22.6,61.3,22.5,61.5,22.5,61.6L22.5,61.6  L22.5,61.6z"/><path d="M66.7,76.8c-0.1,0.1-0.2,0.1-0.4,0.2c-0.2,0.1-0.4,0.3-0.6,0.6c-0.1,0.1-0.1,0.3-0.2,0.4c0,0-0.1,0.1-0.1,0.2c0,0,0,0,0,0  c-0.1,0.2-0.3,0.3-0.4,0.5c0,0.1-0.1,0.1-0.1,0.2c-0.1,0.2-0.2,0.3-0.2,0.5c-0.1,0.1-0.1,0.2-0.1,0.4c-0.2,0.1-0.4,0.2-0.5,0.4  c-0.2,0.3-0.5,0.6-0.7,0.9c-0.2,0.3-0.4,0.6-0.5,0.9c-0.2,0.3-0.4,0.6-0.5,0.9c-0.1,0.2-0.3,0.5-0.5,0.7c0,0,0,0-0.1,0.1  c0,0-0.1,0-0.1,0c-0.3,0-0.7,0.1-1,0.3c-0.1,0.1-0.2,0.2-0.3,0.2c-0.2,0.1-0.4,0.3-0.6,0.4c-0.1,0.1-0.2,0.2-0.3,0.3  c-0.1,0.1-0.2,0.3-0.3,0.4c0,0-0.1,0.1-0.1,0.1c-0.1,0-0.2,0-0.2,0.1c-0.2,0.1-0.4,0.2-0.6,0.4c-0.1,0.1-0.2,0.2-0.3,0.3  c0,0.1-0.1,0.1-0.1,0.2c-0.1,0.1-0.1,0.2-0.2,0.3c0,0,0-0.1,0-0.1c0,0,0,0.1,0,0.1c0,0.1-0.1,0.1-0.1,0.2c0,0,0-0.1,0.1-0.1  c-0.1,0.3-0.2,0.5-0.3,0.8c0,0.1-0.1,0.2-0.1,0.3c-0.1,0-0.2,0-0.3,0c-0.2,0-0.5,0.1-0.6,0.2c-0.2,0.1-0.3,0.3-0.5,0.4  c-0.1,0.1-0.2,0.3-0.3,0.5c-0.1,0.2-0.3,0.4-0.4,0.6c-0.1,0.1-0.1,0.2-0.2,0.4c-0.1,0.2-0.2,0.3-0.3,0.5c-0.1,0.1-0.2,0.2-0.3,0.3  c0,0,0,0,0,0c0,0,0,0,0,0c0,0-0.1-0.1-0.1-0.1c-0.3-0.3-0.6-0.4-1-0.3c-0.3,0.1-0.4,0.2-0.6,0.4c-0.1,0.1-0.1,0.1-0.2,0.2  c-0.2,0.2-0.4,0.4-0.7,0.6c0-0.2,0-0.3-0.1-0.5c0,0.1,0,0.1,0,0.2c0-0.1,0-0.3-0.1-0.4c-0.1-0.2-0.2-0.3-0.3-0.5  c-0.2-0.3-0.7-0.3-1-0.1c-0.1,0.1-0.2,0.1-0.3,0.2c-0.1,0.1-0.1,0.2-0.2,0.2c0,0-0.1,0.1-0.1,0.1c-0.1,0.1-0.1,0.2-0.2,0.3  c-0.2,0.3-0.3,0.5-0.5,0.8c0,0,0,0.1-0.1,0.1c-0.1-0.1-0.1-0.2-0.2-0.3c-0.1-0.2-0.1-0.3-0.1-0.5c0-0.1,0-0.2-0.1-0.3  c-0.1-0.3-0.3-0.5-0.5-0.5c-0.3-0.1-0.6,0-0.8,0.2c-0.1,0.1-0.1,0.1-0.2,0.2c0,0.1-0.1,0.2-0.1,0.3c0,0,0,0.1-0.1,0.1  c0,0.1-0.1,0.2-0.1,0.2c0,0.1,0,0.1-0.1,0.2c-0.1,0.2-0.2,0.4-0.3,0.5c-0.1-0.1-0.1-0.2-0.2-0.3c0-0.1-0.1-0.2-0.1-0.3  c0-0.1-0.1-0.1-0.1-0.2c-0.1-0.1-0.2-0.2-0.3-0.3c-0.1-0.1-0.2-0.2-0.3-0.2c-0.2-0.1-0.4,0-0.6,0.1c-0.1,0-0.2,0.1-0.2,0.2  c-0.1,0.1-0.1,0.2-0.2,0.2c-0.1,0.1-0.2,0.2-0.3,0.4c-0.1,0.1-0.1,0.1-0.2,0.2c0,0-0.1-0.1-0.1-0.1c-0.1-0.1-0.1-0.2-0.2-0.2  c-0.1-0.1-0.2-0.2-0.2-0.3c-0.2-0.3-0.4-0.6-0.5-1c-0.1-0.3-0.2-0.6-0.3-0.9c-0.1-0.3-0.2-0.6-0.2-0.9c0,0,0-0.1,0-0.1c0,0,0,0,0,0  c0,0,0,0,0,0c-0.1-0.3-0.3-0.5-0.6-0.5c-0.4,0-0.7,0.3-0.7,0.7c0,0.2,0,0.5,0.1,0.7c0,0.1,0,0.1,0,0.2c0,0.3,0,0.5,0,0.8  c-0.1-0.1-0.2-0.2-0.3-0.3c-0.3-0.4-0.5-0.8-0.7-1.2c-0.1-0.2-0.2-0.4-0.2-0.6c0-0.3,0-0.6,0-0.8c0-0.2-0.1-0.3-0.2-0.5  c-0.1-0.1-0.3-0.2-0.5-0.2c-0.2,0-0.3,0.1-0.5,0.2c-0.1,0.1-0.2,0.3-0.2,0.5c0,0.5,0,1,0.1,1.4c0.1,0.2,0.2,0.5,0.3,0.7  c0.1,0.2,0.2,0.4,0.3,0.6c0.2,0.4,0.5,0.8,0.8,1.1c0.1,0.2,0.3,0.3,0.5,0.4c0.1,0.1,0.2,0.2,0.3,0.2c0.1,0,0.2,0.1,0.2,0.1  c0.1,0,0.2,0,0.4,0c0.1,0,0.2-0.1,0.3-0.2c0.1,0.2,0.2,0.4,0.3,0.6c0.2,0.3,0.4,0.6,0.6,0.8c0.1,0.1,0.2,0.2,0.3,0.2  c0.1,0.1,0.2,0.2,0.4,0.3c0.2,0.1,0.4,0.2,0.6,0.1c0.1,0,0.2,0,0.3-0.1c0.1,0,0.2-0.1,0.3-0.1c0.1,0,0.2-0.1,0.3-0.2  c0.1-0.1,0.2-0.1,0.2-0.2c0.1,0.2,0.2,0.4,0.4,0.6c0.2,0.2,0.4,0.4,0.7,0.4c0.1,0,0.2,0,0.4,0c0.2,0,0.4-0.1,0.6-0.2  c0.2-0.1,0.3-0.2,0.4-0.3c0.1-0.1,0.1-0.1,0.2-0.2c0.1,0.1,0.2,0.2,0.4,0.3c0.5,0.3,1.1,0.3,1.6,0c0.2-0.1,0.3-0.3,0.5-0.4  c0,0,0,0,0.1-0.1c0,0.1,0.1,0.2,0.2,0.3c0.1,0.1,0.2,0.2,0.3,0.2c0.2,0.1,0.4,0.1,0.6,0.2c0.1,0,0.3,0,0.4,0c0,0,0.1,0,0.1,0  c0.1,0,0.2-0.1,0.3-0.1c0.2-0.1,0.4-0.2,0.6-0.4c0.2-0.2,0.4-0.4,0.6-0.6c0.2,0.1,0.3,0.2,0.5,0.3c0.2,0.1,0.5,0.1,0.7,0  c0.2,0,0.3-0.1,0.4-0.2c0.1-0.1,0.3-0.1,0.4-0.2c0.2-0.1,0.4-0.3,0.6-0.5c0.3-0.3,0.5-0.6,0.7-0.9c0.1-0.1,0.2-0.3,0.2-0.4  c0.1,0,0.2,0.1,0.3,0.1c0.1,0.1,0.3,0,0.4,0.1c0.1,0,0.3,0,0.4-0.1c0.1,0,0.2-0.1,0.3-0.2c0.1-0.1,0.2-0.2,0.3-0.2  c0.1-0.1,0.2-0.2,0.2-0.3c0.3-0.4,0.4-0.8,0.6-1.3c0,0,0,0,0,0c0.2,0,0.3,0,0.5,0c0.2-0.1,0.5-0.2,0.6-0.4c0.1-0.1,0.2-0.2,0.3-0.4  c0.1-0.1,0.1-0.2,0.2-0.3c0-0.1,0.1-0.2,0.1-0.3c0.1-0.3,0.3-0.5,0.4-0.8c0.2-0.2,0.4-0.3,0.5-0.5c0.2-0.2,0.3-0.3,0.5-0.6  c0.1-0.1,0.1-0.2,0.2-0.3c0.1-0.1,0.2-0.3,0.3-0.4c0.1-0.1,0.2-0.2,0.2-0.4c0.1-0.2,0.2-0.4,0.3-0.5c0.1-0.3,0.3-0.5,0.4-0.8  c0.1-0.3,0.3-0.6,0.4-0.8c0,0,0,0,0,0c0.3,0.2,0.7,0.1,1-0.1c0.1-0.1,0.1-0.1,0.2-0.2c0-0.1,0.1-0.2,0.1-0.2c0-0.1,0-0.1,0.1-0.2  c0-0.1,0.1-0.3,0.1-0.4c0.1-0.2,0.2-0.4,0.3-0.5c0.2,0.1,0.4,0.1,0.6,0.1c0.3,0,0.5-0.1,0.8-0.2c0.2-0.1,0.4-0.3,0.6-0.6  c0.1-0.2,0.2-0.3,0.2-0.5c0-0.1,0-0.1,0-0.2c0,0,0,0,0,0c0.1-0.2,0.1-0.4,0.1-0.6c0,0,0-0.1,0-0.1c0,0,0,0,0-0.1  c0-0.3-0.1-0.5-0.2-0.8c-0.2-0.4-0.5-0.6-0.9-0.7c0,0,0,0,0,0c-0.1,0-0.3-0.1-0.4-0.1C67,76.8,66.8,76.8,66.7,76.8L66.7,76.8  L66.7,76.8z M42.6,88.1c0,0,0,0.1,0,0.1C42.6,88.2,42.6,88.2,42.6,88.1C42.6,88.1,42.6,88.1,42.6,88.1L42.6,88.1L42.6,88.1z"/><path d="M29.1,72.3c-0.3,0.1-0.6,0.3-0.7,0.7c0,0.1-0.1,0.2-0.1,0.3c0,0.1,0,0.1,0,0.2c0,0.1,0,0.2-0.1,0.4c0,0.2-0.1,0.4-0.1,0.6  c0,0.2,0,0.5,0,0.7c0.1,0.2,0.1,0.3,0.3,0.5c0.1,0.2,0.2,0.3,0.3,0.5c0.1,0.1,0.1,0.2,0.2,0.3c0,0.1,0,0.1,0.1,0.2  c0,0,0,0.1,0.1,0.1c0.1,0.1,0.1,0.2,0.2,0.3c0,0.1,0,0.3,0.1,0.4c0.1,0.3,0.2,0.5,0.3,0.7c0.1,0.2,0.3,0.5,0.5,0.7  c0.1,0.2,0.3,0.3,0.5,0.5c0.2,0.2,0.4,0.3,0.7,0.4c0.5,0.2,1,0.4,1.5,0.3c0.5,0,1.1-0.2,1.4-0.6c0.1-0.1,0.2-0.3,0.2-0.4  c0-0.2,0-0.2,0-0.3c0-0.1,0-0.1-0.1-0.2c-0.1-0.1-0.2-0.3-0.3-0.3c-0.1,0-0.1-0.1-0.2-0.1c-0.1,0-0.2,0-0.3,0c-0.2,0-0.3,0-0.5,0  c0,0-0.1,0-0.1,0c0,0,0-0.1,0.1-0.1c0.1-0.2,0.2-0.4,0.2-0.6c0.1-0.3,0.1-0.6,0.2-0.9c0-0.1,0-0.3,0-0.4c0.1,0,0.1-0.1,0.2-0.1  c0.1-0.1,0.3-0.2,0.4-0.3c0.1-0.1,0.2-0.1,0.3-0.2c0,0,0.1-0.1,0.1-0.1c0,0.2,0,0.4,0,0.5c0,0.3,0,0.7,0.1,1c0,0.1,0,0.1,0,0.2  c0,0.3,0,0.7,0.1,1c0.1,0.3,0.2,0.6,0.3,0.9c0.1,0.3,0.3,0.5,0.5,0.8c0.1,0.1,0.1,0.1,0.2,0.2c0.1,0.1,0.2,0.2,0.3,0.2c0,0,0,0,0,0  c0,0,0,0.1,0,0.1c0,0.1,0,0.3,0.1,0.4c0.1,0.3,0.3,0.6,0.6,0.8c0.2,0.1,0.4,0.1,0.6,0.2c0.1,0,0.3,0,0.4-0.1c0.1,0,0.2-0.1,0.3-0.1  c0.1-0.1,0.2-0.1,0.2-0.2c0.1-0.1,0.2-0.2,0.2-0.3c0.2-0.2,0.3-0.5,0.4-0.8c0,0,0,0.1,0,0.1c0.1-0.1,0.1-0.3,0.2-0.4  c0,0,0,0,0.1-0.1c0.1-0.1,0.2-0.3,0.4-0.4c0.1-0.1,0.2-0.3,0.2-0.5c0,0,0-0.1,0-0.2c0-0.1,0-0.3,0-0.4c0-0.1,0-0.3-0.1-0.4  c0-0.1-0.1-0.2-0.1-0.3c-0.1-0.1-0.1-0.2-0.2-0.3c-0.1-0.2-0.4-0.3-0.7-0.4c0,0,0,0,0,0c0,0,0,0,0,0c0.1-0.1,0.2-0.2,0.3-0.4  c0.1-0.1,0.2-0.3,0.3-0.4c0.1,0,0.1-0.1,0.2-0.1c0.2-0.1,0.3-0.3,0.4-0.5c0-0.1,0-0.2,0-0.4c0-0.1-0.1-0.2-0.2-0.3  c-0.1-0.1-0.2-0.1-0.3-0.2c-0.2-0.1-0.4,0-0.5,0.1c-0.1,0-0.2,0.1-0.2,0.1c-0.1,0.1-0.2,0.2-0.3,0.3c0,0,0,0-0.1,0.1  c-0.2,0.1-0.4,0.1-0.7,0.2c-0.2,0.1-0.5,0.1-0.7,0.1c-0.1,0-0.2,0-0.2,0c0,0,0,0,0,0c0-0.1-0.1-0.2-0.1-0.3c0-0.1-0.2-0.3-0.3-0.3  c-0.1-0.1-0.3-0.1-0.5-0.1c-0.1,0-0.3,0-0.5,0.1c0,0-0.1,0.1-0.1,0.1c0,0,0-0.1,0-0.1c0-0.1,0-0.2,0-0.3c0-0.1-0.1-0.2-0.2-0.3  c-0.1-0.1-0.1-0.1-0.2-0.1c-0.1,0-0.2,0-0.2,0c-0.2,0.1-0.5,0.2-0.7,0.3c-0.1,0.1-0.2,0.2-0.3,0.2c-0.1,0.1-0.2,0.1-0.3,0.2  c0-0.1,0-0.2-0.1-0.3c0-0.2-0.1-0.4-0.2-0.6c0-0.1-0.1-0.1-0.1-0.2c0-0.1,0.1-0.2,0.1-0.3c0,0,0,0,0,0c0.1-0.2,0.3-0.3,0.3-0.5  c0-0.2,0-0.4-0.2-0.6c-0.1-0.1-0.2-0.1-0.3-0.2c-0.1,0-0.1,0-0.2,0c-0.1,0-0.2,0-0.3,0.1c-0.2,0.1-0.3,0.3-0.4,0.4  c0,0-0.1,0-0.1-0.1c-0.1,0-0.2-0.1-0.3-0.1c-0.2,0-0.3,0-0.4,0c-0.1,0-0.1,0-0.1,0c-0.1,0-0.2,0.1-0.3,0.1c-0.1,0.1-0.2,0.2-0.3,0.3  c0-0.1-0.1-0.1-0.2-0.1c0,0,0,0,0,0c-0.1-0.1-0.1-0.2-0.2-0.3c-0.1-0.1-0.2-0.1-0.2-0.2c-0.1-0.1-0.3-0.1-0.5-0.1  C29.3,72.3,29.2,72.3,29.1,72.3L29.1,72.3L29.1,72.3z M30.3,74.4c0,0,0.1,0.1,0.1,0.1c0.1,0.1,0.2,0.2,0.4,0.2c0.2,0.1,0.3,0,0.5,0  c0,0,0.1,0,0.1,0c0,0.2-0.1,0.4-0.1,0.5c0,0.3,0,0.6,0.1,0.8c0.1,0.1,0.2,0.2,0.3,0.3c0,0,0,0,0.1,0c0,0,0,0,0,0.1  c-0.1,0.4-0.2,0.9-0.4,1.3c0,0.1-0.1,0.2-0.2,0.3c0,0,0,0.1-0.1,0.1c0,0-0.1-0.1-0.1-0.2c-0.1-0.2-0.2-0.3-0.3-0.5  c-0.1-0.1-0.1-0.3-0.1-0.4c0-0.1,0-0.1,0-0.2c0.1-0.1,0.1-0.2,0.1-0.3c0.1-0.2,0-0.4,0-0.6c0,0,0-0.1,0-0.1c0-0.1,0-0.2-0.1-0.3  c0-0.1-0.1-0.2-0.2-0.3c0,0,0-0.1,0-0.1c-0.1-0.2-0.1-0.4-0.2-0.6c0-0.1,0-0.1-0.1-0.1C30.3,74.5,30.3,74.4,30.3,74.4  C30.3,74.4,30.3,74.4,30.3,74.4L30.3,74.4L30.3,74.4z M37,76.7C37,76.7,36.9,76.7,37,76.7c-0.1,0.2-0.2,0.2-0.3,0.3  c0-0.1,0-0.1,0-0.2c0,0,0,0,0,0C36.8,76.7,36.9,76.7,37,76.7L37,76.7L37,76.7z"/><path d="M48,84.5c-0.1,0-0.2,0.1-0.3,0.2c-0.1,0.1-0.2,0.3-0.2,0.4c0,0.1-0.1,0.2-0.1,0.3c0,0.1,0,0.2-0.1,0.3  c-0.1,0.4-0.1,0.7-0.1,1.1c0,0.4,0.1,0.7,0.2,1.1c0.1,0.2,0.1,0.4,0.3,0.5c0.1,0.1,0.1,0.2,0.2,0.3c0.1,0.1,0.2,0.1,0.2,0.2  c0.1,0,0.1,0.1,0.2,0.1c0.1,0,0.2,0,0.3-0.1c0.2-0.2,0.2-0.5,0-0.6c0,0,0,0-0.1-0.1c-0.1-0.1-0.1-0.2-0.2-0.3  c-0.1-0.3-0.2-0.6-0.2-0.9c0-0.3,0-0.6,0-0.8c0-0.2,0.1-0.3,0.1-0.5c0.1-0.1,0.1-0.2,0.2-0.3c0.1-0.1,0.1-0.3,0.1-0.4  c0-0.1-0.1-0.2-0.2-0.3c-0.1,0-0.2-0.1-0.3-0.1C48.1,84.5,48.1,84.5,48,84.5L48,84.5L48,84.5z"/><path d="M49,84.2c-0.2,0.1-0.3,0.2-0.4,0.3c-0.1,0.2-0.1,0.4-0.1,0.6c0.1,0.3,0.3,0.7,0.4,1c0.1,0.2,0.2,0.3,0.2,0.5  c0.1,0.2,0.2,0.3,0.2,0.5c0.1,0.1,0.1,0.2,0.2,0.3c0.1,0.1,0.2,0.3,0.2,0.4c0.1,0.1,0.2,0.3,0.3,0.4c0,0,0.1,0.1,0.1,0.1  c0.1,0.1,0.1,0.2,0.2,0.3c0,0,0.1,0.1,0.1,0.1c0.1,0.1,0.2,0.2,0.3,0.2c0.3,0.1,0.5,0,0.7-0.2c0.1-0.1,0.2-0.3,0.2-0.5  c0-0.1,0.1-0.3,0.1-0.4c0-0.3,0.1-0.6,0.1-0.8c0.1,0.1,0.1,0.2,0.2,0.3c0.1,0.1,0.2,0.2,0.4,0.3c0.2,0.1,0.4,0.2,0.5,0.2  c0.2,0,0.3-0.1,0.5-0.2c0.2-0.1,0.3-0.4,0.2-0.6c-0.1-0.1-0.1-0.2-0.3-0.2c-0.1,0-0.2,0-0.3,0c0,0,0,0,0,0c0,0,0,0,0,0  C53,87,52.9,87,52.8,87c-0.1-0.1-0.3-0.2-0.4-0.4c-0.1-0.1-0.2-0.3-0.3-0.4c0-0.1-0.1-0.2-0.1-0.3c0-0.1-0.1-0.3-0.1-0.4  c0-0.1,0-0.3,0-0.4c0-0.1,0-0.1,0-0.2c0-0.1-0.1-0.1-0.2-0.2c-0.2,0-0.4,0.1-0.4,0.2c-0.1,0.3-0.2,0.7-0.2,1.1  c0,0.2-0.1,0.5-0.1,0.7c0,0.1,0,0.2-0.1,0.3c0-0.1-0.1-0.2-0.1-0.2c-0.1-0.2-0.2-0.4-0.3-0.5c-0.1-0.2-0.2-0.4-0.3-0.6  c-0.1-0.3-0.2-0.6-0.4-1c0-0.1,0-0.1-0.1-0.2c-0.1-0.1-0.2-0.2-0.3-0.3c-0.1-0.1-0.2-0.1-0.4-0.1C49.1,84.2,49,84.2,49,84.2L49,84.2  L49,84.2z M53.1,87.1C53.1,87.1,53.1,87.1,53.1,87.1C53,87.1,53,87.1,53.1,87.1C53.1,87.1,53.1,87.1,53.1,87.1L53.1,87.1L53.1,87.1z  "/><path d="M53.2,83.9C53,84,53,84.2,53,84.4c0,0.4,0,0.8,0.1,1.1c0,0.1,0,0.1,0.1,0.2c0,0.1,0.1,0.3,0.2,0.4c0.1,0.2,0.2,0.3,0.3,0.5  c0.1,0.2,0.3,0.3,0.4,0.5c0.1,0.1,0.2,0.3,0.3,0.4c0.2,0.2,0.5,0.3,0.8,0.3c0.2,0,0.5-0.1,0.7-0.2c0.2-0.1,0.4-0.4,0.3-0.7  c0-0.1-0.1-0.2-0.2-0.3c-0.1-0.1-0.3-0.2-0.4-0.2c0,0,0,0-0.1,0c0-0.1-0.1-0.1-0.1-0.2c-0.1-0.1-0.1-0.2-0.2-0.3  c-0.1-0.2-0.2-0.4-0.3-0.6c0-0.1-0.1-0.2-0.1-0.3c0-0.2,0-0.5,0-0.7c0-0.4-0.4-0.8-0.8-0.8C53.6,83.6,53.3,83.7,53.2,83.9L53.2,83.9  L53.2,83.9z M55.3,86.5C55.3,86.5,55.3,86.5,55.3,86.5C55.3,86.5,55.3,86.5,55.3,86.5C55.3,86.5,55.3,86.5,55.3,86.5L55.3,86.5  L55.3,86.5z"/><path d="M54.5,83.7c-0.1,0.1-0.1,0.2-0.2,0.3c0,0.1,0,0.2,0,0.3c0,0.1,0,0.1,0,0.2c0,0.1,0,0.1,0.1,0.2c0,0.1,0.1,0.2,0.1,0.3  c0.1,0.2,0.2,0.4,0.3,0.6c0.1,0.1,0.2,0.2,0.2,0.3c0.1,0.1,0.3,0.2,0.4,0.3c0.3,0.1,0.5,0.1,0.8,0c0,0,0.1,0,0.1-0.1  c0.1,0,0.1-0.1,0.2-0.2c0.1-0.1,0.1-0.3,0.1-0.4c0-0.1-0.1-0.2-0.2-0.3c-0.1-0.1-0.2-0.1-0.4-0.1c0,0-0.1,0-0.1-0.1  c-0.1-0.1-0.1-0.1-0.2-0.2c-0.1-0.1-0.2-0.3-0.3-0.5c0,0,0,0,0-0.1c0,0,0,0,0-0.1c0-0.1,0-0.1-0.1-0.2c0-0.1-0.1-0.2-0.2-0.3  c-0.1-0.1-0.3-0.2-0.4-0.2C54.8,83.6,54.6,83.6,54.5,83.7L54.5,83.7L54.5,83.7z M56.1,85.1C56.1,85.1,56.1,85.1,56.1,85.1  C56.1,85.1,56.1,85.1,56.1,85.1L56.1,85.1L56.1,85.1z"/><path d="M56.8,83.4c-0.1,0-0.2,0.1-0.3,0.2c-0.1,0.1-0.1,0.2,0,0.4c0,0.1,0.1,0.2,0.2,0.3c0.1,0.1,0.2,0.1,0.4,0.2  c0.1,0,0.2,0.1,0.2,0.1c0.1,0,0.2,0.1,0.4,0.1c0.1,0,0.2,0,0.2-0.1c0.1-0.1,0.2-0.2,0.2-0.3c0-0.1,0-0.2,0-0.3c0,0,0-0.1-0.1-0.1  c-0.1-0.1-0.1-0.1-0.2-0.1c-0.1,0-0.2-0.1-0.3-0.2c-0.1-0.1-0.2-0.1-0.3-0.2c-0.1,0-0.2-0.1-0.3-0.1C56.8,83.4,56.8,83.4,56.8,83.4  L56.8,83.4L56.8,83.4z"/><path d="M58.5,82.3c0,0-0.1,0.1-0.1,0.1c-0.1,0.1-0.1,0.2-0.2,0.3c-0.1,0.1-0.1,0.2-0.1,0.4c0,0.1,0,0.3,0,0.4  c0,0.1,0.1,0.2,0.1,0.2c0,0.1,0.1,0.1,0.1,0.2c0,0.1,0.1,0.1,0.2,0.1c0,0,0.1,0,0.1,0.1c0.2,0.1,0.5,0.1,0.6-0.1  c0.1-0.1,0.1-0.1,0.1-0.2c0-0.1,0-0.3-0.1-0.4c0,0,0,0,0,0c0,0,0,0,0,0c0,0,0-0.1,0-0.1c0-0.1,0-0.1,0.1-0.2c0.1-0.1,0-0.3-0.1-0.5  c-0.1-0.1-0.2-0.2-0.4-0.3c-0.1,0-0.1,0-0.2,0C58.7,82.3,58.6,82.3,58.5,82.3L58.5,82.3L58.5,82.3z"/><path d="M58.1,79.2c0,0,0,0.1-0.1,0.1C58,79.5,58,79.6,58,79.8c0,0.1,0,0.2,0,0.4c0,0.3,0.1,0.7,0.3,1c0.1,0.2,0.3,0.4,0.5,0.6  c0.2,0.2,0.6,0.3,0.8,0.1c0.2-0.1,0.3-0.2,0.3-0.4c0-0.2,0-0.4-0.1-0.5c-0.1-0.1-0.1-0.2-0.2-0.2c0.1-0.1,0.1-0.3,0.1-0.5  c0-0.1-0.1-0.3-0.1-0.4c0-0.1,0-0.1-0.1-0.2c0-0.1,0-0.2-0.1-0.3c0-0.1-0.1-0.2-0.2-0.3c-0.1-0.1-0.3-0.2-0.5-0.2  C58.5,78.9,58.2,79,58.1,79.2L58.1,79.2L58.1,79.2z"/><path d="M59.4,77c-0.2,0.1-0.4,0.2-0.5,0.4c-0.1,0.2-0.1,0.4-0.1,0.6c0,0.1,0.1,0.3,0.1,0.4c0.1,0.2,0.1,0.4,0.2,0.6  c0.1,0.3,0.3,0.5,0.5,0.8c0.2,0.3,0.4,0.5,0.6,0.8c0.1,0.1,0.2,0.2,0.3,0.2c0.2,0.1,0.4,0,0.6-0.1c0.2-0.1,0.3-0.3,0.3-0.4  c0-0.2,0-0.4-0.1-0.6c-0.1-0.2-0.2-0.3-0.3-0.5c-0.2-0.3-0.4-0.6-0.6-1c-0.1-0.2-0.1-0.4-0.2-0.6C60.3,77.2,60,77,59.6,77  C59.6,77,59.5,77,59.4,77L59.4,77L59.4,77z"/><path d="M45.7,82.9c-0.1,0-0.2,0.1-0.3,0.2c-0.1,0.1-0.2,0.2-0.4,0.3c-0.2,0.1-0.3,0.3-0.4,0.4c-0.1,0.1-0.3,0.3-0.4,0.4  c-0.1,0.1-0.2,0.2-0.4,0.3c-0.2,0.2-0.4,0.4-0.6,0.5c0,0-0.1,0.1-0.2,0.1c-0.2,0.1-0.3,0.4-0.2,0.6c0,0.1,0.1,0.2,0.2,0.3  c0,0,0.1,0,0.1,0.1c0.1,0,0.2,0,0.3,0c0.3,0,0.5-0.2,0.8-0.3c0.1,0,0.2-0.1,0.2-0.1c0.1-0.1,0.2-0.2,0.3-0.2c0,0,0.1-0.1,0.1-0.1  c0.1-0.1,0.3-0.2,0.4-0.3c0.1-0.1,0.2-0.2,0.3-0.2c0.1-0.1,0.3-0.2,0.4-0.4c0.1,0,0.1-0.1,0.2-0.1c0,0,0,0,0,0  c0.1-0.1,0.2-0.1,0.3-0.3c0.1-0.2,0.1-0.4,0.1-0.5c0-0.2-0.2-0.3-0.3-0.4c-0.1,0-0.1,0-0.2-0.1c-0.1,0-0.1,0-0.2,0  S45.8,82.9,45.7,82.9L45.7,82.9L45.7,82.9z"/><path d="M44.6,84c0,0-0.1,0-0.1,0c-0.1,0-0.1,0.1-0.2,0.1c-0.1,0.1-0.1,0.2-0.1,0.3c0,0.1,0,0.2,0.1,0.3c0.1,0.1,0.2,0.1,0.3,0.1  c0,0.1,0,0.1,0,0.2c0,0.2,0,0.4,0,0.6c0,0.1,0,0.2,0,0.2c0,0,0,0.1,0,0.1c0,0,0,0.1,0,0.1c0,0.1,0.1,0.2,0.2,0.2  c0.1,0.1,0.3,0.1,0.4-0.1c0.1-0.1,0.2-0.3,0.2-0.4c0-0.1,0.1-0.3,0.1-0.4c0-0.3,0-0.6-0.1-0.8c0-0.1-0.1-0.2-0.1-0.3  c0-0.1-0.1-0.2-0.2-0.2C45.1,84,45,84,44.9,84c0,0-0.1,0-0.1,0C44.7,83.9,44.7,83.9,44.6,84L44.6,84L44.6,84z M44.5,84.8  C44.5,84.8,44.5,84.8,44.5,84.8C44.5,84.8,44.5,84.8,44.5,84.8L44.5,84.8L44.5,84.8z M44.6,84.8C44.6,84.8,44.6,84.8,44.6,84.8  C44.6,84.8,44.6,84.8,44.6,84.8C44.6,84.8,44.6,84.8,44.6,84.8L44.6,84.8L44.6,84.8z"/><path d="M46.2,85.1c-0.1,0-0.1,0.1-0.2,0.1c-0.1,0.1-0.2,0.2-0.2,0.3c-0.1,0.2-0.2,0.5-0.3,0.7c0,0.1-0.1,0.2-0.1,0.3  c0,0.1-0.1,0.3-0.1,0.4c0,0.1,0,0.2,0,0.2c0,0.1,0,0.1,0.1,0.2c0,0,0,0,0,0.1c0,0,0.1,0.1,0.1,0.1c0.1,0,0.1,0.1,0.2,0.1  c0.1,0.1,0.4,0.1,0.5,0.1c0.1,0,0.2-0.1,0.3-0.2c0.1-0.1,0.1-0.2,0.2-0.3c0,0,0,0,0,0c0-0.1,0.1-0.2,0.1-0.3  c0.1-0.1,0.1-0.3,0.2-0.4c0.1-0.2,0.2-0.4,0.3-0.7c0-0.1,0-0.1,0-0.2c0-0.1,0-0.3-0.1-0.4C47.1,85.2,47,85,46.8,85  c-0.1,0-0.1,0-0.2,0C46.4,84.9,46.3,85,46.2,85.1L46.2,85.1L46.2,85.1z M46.8,87.2C46.8,87.2,46.8,87.2,46.8,87.2  C46.8,87.2,46.8,87.2,46.8,87.2L46.8,87.2L46.8,87.2z"/><path d="M46.8,86.5c-0.1,0.2-0.2,0.4-0.3,0.5c0,0,0,0.1-0.1,0.1c0,0.1,0,0.2,0,0.3c0,0.1,0.1,0.3,0.3,0.3c0.3,0.2,0.6,0.1,0.8-0.2  c0.1-0.2,0.2-0.4,0.3-0.5c0.2-0.3,0.1-0.6-0.2-0.8c-0.1-0.1-0.2-0.1-0.3-0.1C47.1,86.3,46.9,86.4,46.8,86.5L46.8,86.5L46.8,86.5z"/><path d="M42.2,82.6c-0.2,0.1-0.3,0.2-0.5,0.3c-0.1,0.1-0.3,0.2-0.4,0.3c0,0-0.1,0.1-0.1,0.1c-0.1,0.1-0.2,0.2-0.2,0.3  c-0.1,0.1-0.1,0.2-0.1,0.3c0,0.2,0.1,0.3,0.2,0.4c0.2,0.2,0.5,0.2,0.8,0.1c0.2-0.1,0.3-0.2,0.5-0.2c0.1,0,0.1-0.1,0.2-0.1  c0.1,0,0.2-0.1,0.3-0.1c0.2,0.1,0.4,0,0.6-0.1c0.2-0.1,0.3-0.3,0.4-0.5c0.1-0.2,0-0.4-0.1-0.6c0-0.1-0.1-0.2-0.2-0.2  c-0.2-0.2-0.4-0.2-0.6-0.2c0,0,0,0,0,0C42.6,82.4,42.4,82.5,42.2,82.6L42.2,82.6L42.2,82.6z"/><path d="M42.9,81c-0.2,0-0.4,0.1-0.7,0.2c-0.2,0.1-0.5,0.2-0.7,0.3c-0.3,0.1-0.5,0.3-0.7,0.4c-0.3,0.2-0.4,0.5-0.3,0.8  c0.1,0.3,0.4,0.5,0.7,0.5c0.2,0,0.4,0,0.6-0.1c0.1,0,0.3,0,0.4-0.1c0.2,0,0.3-0.1,0.5-0.1c0.2-0.1,0.5-0.1,0.7-0.2  c0.2,0,0.5-0.2,0.6-0.4c0.1-0.2,0.2-0.5,0.1-0.7c-0.1-0.2-0.2-0.4-0.4-0.6c-0.1,0-0.2-0.1-0.2-0.1c-0.1,0-0.2,0-0.3,0  C43,80.9,42.9,80.9,42.9,81L42.9,81L42.9,81z"/><path d="M40.1,82.3c0,0.4,0.4,0.8,0.8,0.8s0.8-0.4,0.8-0.8c0-0.4-0.4-0.8-0.8-0.8S40.1,81.8,40.1,82.3L40.1,82.3L40.1,82.3z"/><path d="M38,79.7c-0.1,0.1-0.1,0.1-0.2,0.2c-0.1,0.1-0.1,0.2-0.2,0.2c-0.1,0.1-0.1,0.2-0.2,0.3c-0.1,0.1-0.1,0.3-0.1,0.4  c0,0.1,0,0.2,0,0.4c0,0.3,0.1,0.6,0.2,0.8c0.1,0.1,0.1,0.3,0.2,0.4c0.1,0.1,0.2,0.2,0.3,0.3c0.2,0.2,0.5,0.2,0.7,0.1  c0.3-0.2,0.4-0.5,0.2-0.8c0,0,0-0.1,0-0.1c0-0.1,0-0.2-0.1-0.3c0-0.1,0-0.3,0-0.4c0-0.1,0-0.2,0-0.4c0,0,0-0.1,0-0.1c0,0,0,0,0-0.1  c0-0.1,0.1-0.1,0.2-0.2c0.3-0.3,0.3-0.8,0-1.1c-0.1-0.1-0.3-0.2-0.5-0.2C38.3,79.4,38.1,79.5,38,79.7L38,79.7L38,79.7z"/><path d="M40.8,75.7c-0.2,0.2-0.4,0.3-0.7,0.5c-0.2,0.1-0.3,0.3-0.4,0.4c-0.1,0.1-0.1,0.1-0.2,0.2c-0.1,0.1-0.2,0.3-0.3,0.4  c-0.1,0.1,0,0.3,0.1,0.3c0.1,0.1,0.3,0,0.3-0.1c0,0,0-0.1,0.1-0.1c0.1-0.1,0.2-0.3,0.4-0.4c0.1-0.1,0.2-0.2,0.2-0.2  c0.2-0.2,0.3-0.3,0.5-0.4c0.1-0.1,0.2-0.2,0.3-0.2c0.1,0,0.1-0.1,0.1-0.2c0-0.1,0-0.1,0-0.2c0-0.1-0.1-0.1-0.2-0.1c0,0,0,0-0.1,0  C40.9,75.6,40.9,75.6,40.8,75.7L40.8,75.7L40.8,75.7z"/><path d="M40.1,76.5c-0.1,0.1-0.2,0.2-0.1,0.3c0.1,0.2,0.3,0.5,0.4,0.7c0.1,0.1,0.2,0.2,0.3,0.1c0.1-0.1,0.2-0.2,0.1-0.3  c-0.1-0.2-0.3-0.5-0.4-0.7c0-0.1-0.1-0.1-0.2-0.1C40.1,76.4,40.1,76.4,40.1,76.5L40.1,76.5L40.1,76.5z"/><path d="M41.5,76.3c0,0.1-0.1,0.2-0.1,0.4c0,0.1,0,0.3-0.1,0.4c0,0.2-0.1,0.4-0.1,0.6c0,0.2,0.2,0.4,0.4,0.4c0.1,0,0.2,0,0.3-0.1  c0.1-0.1,0.1-0.2,0.1-0.3c0-0.2,0-0.4,0.1-0.6c0,0,0,0.1,0,0.1c0-0.1,0-0.2,0-0.3c0-0.1,0.1-0.3,0.1-0.4c0-0.2-0.1-0.4-0.3-0.5  c0,0-0.1,0-0.1,0C41.7,76,41.6,76.1,41.5,76.3L41.5,76.3L41.5,76.3z"/><path d="M56.7,72C56.7,72,56.7,72,56.7,72c-0.1,0-0.2,0-0.3,0.1c-0.2,0-0.3,0.1-0.4,0.2c-0.1,0.1-0.3,0.2-0.4,0.3  c-0.1,0.1-0.2,0.2-0.3,0.4c-0.1,0.1-0.1,0.3-0.2,0.4c-0.1,0.1-0.1,0.3-0.1,0.5c0,0,0,0.1,0,0.1c0,0.1,0,0.2,0.1,0.3  c0.1,0.2,0.2,0.4,0.3,0.5c0.3,0.2,0.6,0.3,0.9,0.3c0.1,0,0.2,0,0.3,0c0.1,0,0.2-0.1,0.3-0.1c0.1,0,0.2-0.1,0.3-0.1c0,0,0,0,0,0  c0.1,0.1,0.1,0.1,0.2,0.1c0.1,0.1,0.2,0.1,0.3,0.2c0.3,0.2,0.7,0.1,0.8-0.2c0.1-0.1,0.1-0.3,0.1-0.5c0-0.2-0.1-0.3-0.3-0.4  c0,0,0,0-0.1,0c0,0,0,0-0.1-0.1c0-0.2,0-0.3,0-0.5c0,0,0-0.1,0-0.1c0-0.1,0-0.2-0.1-0.3c-0.1-0.1-0.1-0.2-0.2-0.2c0-0.1,0-0.2,0-0.3  c-0.1-0.2-0.2-0.4-0.4-0.5c-0.1,0-0.1-0.1-0.2-0.1c-0.1,0-0.1,0-0.2,0C56.9,71.9,56.8,71.9,56.7,72L56.7,72L56.7,72z M58,73.6  C58,73.6,58,73.6,58,73.6C58,73.6,58,73.6,58,73.6C58,73.6,58,73.6,58,73.6L58,73.6L58,73.6z"/><path d="M58.8,72.4c-0.1,0.1-0.1,0.1-0.2,0.2c-0.2,0.2-0.3,0.3-0.4,0.5c-0.1,0.2-0.2,0.5-0.3,0.7c0,0.2-0.1,0.4-0.1,0.6  c0,0.2,0,0.4,0.1,0.6c0,0.2,0.1,0.3,0.1,0.4c0.1,0.2,0.2,0.4,0.3,0.6c0.2,0.4,0.8,0.6,1.3,0.5c0.2-0.1,0.4-0.1,0.5-0.3  c0.2-0.2,0.3-0.5,0.3-0.8c0-0.1,0-0.2,0-0.3c0-0.2,0.1-0.4,0.1-0.6c0.1-0.1,0.1-0.1,0.2-0.2c0.3-0.2,0.4-0.6,0.4-1  c0-0.4-0.1-0.7-0.4-1c-0.3-0.3-0.6-0.4-1-0.4C59.4,72,59.1,72.1,58.8,72.4L58.8,72.4L58.8,72.4z"/><path d="M59.9,74.8c-0.2,0-0.3,0.1-0.4,0.3c0,0-0.1,0.1-0.1,0.1c-0.1,0.1-0.2,0.2-0.2,0.3c0,0-0.1,0.1-0.1,0.1  c0,0.1-0.1,0.2-0.1,0.3c0,0.1,0,0.2,0,0.3c0,0.1,0,0.3,0,0.4c0,0.1,0,0.1,0.1,0.2c0.1,0.2,0.2,0.4,0.3,0.6c0.1,0.1,0.2,0.3,0.3,0.4  c0.1,0.1,0.2,0.2,0.3,0.2c0.1,0.1,0.2,0.1,0.3,0.1c0.1,0,0.2,0.1,0.3,0.1c0.1,0,0.3,0,0.4,0c0.2-0.1,0.4-0.2,0.5-0.4  c0.2-0.4,0.1-0.8-0.3-1.1c-0.1,0-0.1-0.1-0.2-0.1c0-0.1,0-0.1,0-0.2c0,0,0-0.1,0-0.1c0,0,0.1-0.1,0.1-0.1c0.1-0.2,0.1-0.3,0.1-0.5  c0-0.3-0.1-0.5-0.3-0.7c-0.2-0.2-0.4-0.3-0.7-0.3C60,74.8,60,74.8,59.9,74.8L59.9,74.8L59.9,74.8z"/><path d="M61.7,76.2c-0.2,0.1-0.4,0.2-0.6,0.3c-0.1,0.1-0.2,0.2-0.3,0.2c-0.2,0.2-0.4,0.5-0.5,0.8c0,0.1-0.1,0.3,0,0.4  c0,0.3,0.1,0.5,0.2,0.7c0.1,0.2,0.3,0.3,0.4,0.5c0.1,0,0.1,0.1,0.2,0.1c0.2,0.1,0.3,0.3,0.5,0.4c0.2,0.1,0.4,0.2,0.6,0.2  c0.3,0,0.6-0.1,0.9-0.4c0.2-0.2,0.4-0.5,0.4-0.9c0-0.2-0.1-0.5-0.2-0.7c0.1-0.2,0.1-0.4,0.1-0.6c0-0.3-0.1-0.7-0.4-0.9  c-0.2-0.2-0.6-0.4-0.9-0.4C61.9,76.1,61.8,76.2,61.7,76.2L61.7,76.2L61.7,76.2z"/><path d="M63.1,72.8c-0.2,0.2-0.3,0.4-0.5,0.6c-0.2,0.2-0.2,0.5-0.3,0.7c0,0.1-0.1,0.3-0.1,0.4c0,0.1,0,0.2,0,0.3c0,0,0,0.1,0,0.1  c0,0.1,0.1,0.2,0.2,0.3c0.1,0.1,0.1,0.1,0.2,0.2c0.1,0.1,0.2,0.1,0.3,0.2c0,0,0.1,0,0.1,0.1c0.1,0,0.2,0,0.3,0  c0.1,0,0.3-0.1,0.3-0.3c0.2-0.3,0.1-0.6-0.2-0.8c0,0,0,0,0,0c0,0,0-0.1,0-0.1c0-0.1,0-0.1,0.1-0.2c0.1-0.1,0.2-0.3,0.3-0.4  c0-0.1,0.1-0.1,0.1-0.2c0.1-0.1,0.2-0.3,0.2-0.4c0-0.2-0.1-0.3-0.2-0.4c-0.1-0.1-0.3-0.2-0.4-0.2C63.4,72.6,63.2,72.7,63.1,72.8  L63.1,72.8L63.1,72.8z"/><path d="M64.5,75c-0.1,0.1-0.2,0.2-0.3,0.3c-0.1,0.1-0.2,0.3-0.3,0.5c-0.1,0.2-0.2,0.4-0.2,0.6c0,0.2-0.1,0.3-0.1,0.5  c0,0.3,0,0.5-0.1,0.8c0,0.2,0.1,0.4,0.3,0.5c0.2,0.1,0.5-0.1,0.6-0.3c0-0.2,0.1-0.3,0.2-0.5c0.1-0.2,0.1-0.5,0.2-0.7  c0-0.1,0.1-0.2,0.2-0.3c0.1-0.1,0.2-0.2,0.3-0.3c0.2-0.2,0.2-0.6,0-0.8c-0.1-0.1-0.3-0.2-0.4-0.2C64.8,74.9,64.6,74.9,64.5,75  L64.5,75L64.5,75z"/><path d="M65,76.1c-0.3,0-0.6,0.1-0.8,0.1c-0.1,0-0.2,0.1-0.3,0.1c-0.2,0.1-0.4,0.2-0.6,0.3c-0.1,0.1-0.2,0.2-0.3,0.4  c-0.1,0.1-0.1,0.3-0.2,0.4c-0.1,0.3-0.1,0.7,0,1c0.1,0.3,0.4,0.6,0.8,0.6c0.2,0,0.4-0.1,0.6-0.2c0.1-0.1,0.2-0.4,0.2-0.6  c0,0,0,0,0-0.1c0,0,0,0,0-0.1c0,0,0,0,0-0.1c0.2-0.1,0.3-0.1,0.5-0.1c0,0,0,0,0,0c0.1,0,0.2,0,0.2,0c0.2,0,0.3-0.1,0.4-0.2  c0.2-0.2,0.3-0.4,0.3-0.6s-0.1-0.5-0.3-0.6C65.5,76.2,65.2,76.1,65,76.1C65,76.1,65,76.1,65,76.1L65,76.1L65,76.1z"/><text x="0" y="115" fill="#000000" font-size="5px" font-weight="bold" font-family="'Helvetica Neue', Helvetica, Arial-Unicode, Arial, Sans-serif">Created by Ariel Kotzer</text><text x="0" y="120" fill="#000000" font-size="5px" font-weight="bold" font-family="'Helvetica Neue', Helvetica, Arial-Unicode, Arial, Sans-serif">from the Noun Project</text></svg>