<svg xmlns="http://www.w3.org/2000/svg" xmlns:xlink="http://www.w3.org/1999/xlink" version="1.1" x="0px" y="0px" viewBox="0 0 100 125" style="enable-background:new 0 0 100 100;" 

xml:space="preserve"><path d="M38.8,47c-0.3,0-0.7-0.2-0.9-0.5c-0.3-0.5-0.1-1.1,0.3-1.4c2.8-1.7,6.3-2.6,9.8-2.6c2.9,0,5.8,0.6,8.2,1.8  c0.5,0.2,0.7,0.8,0.5,1.3c-0.2,0.5-0.8,0.7-1.3,0.5c-2.2-1-4.7-1.6-7.4-1.6c-3.2,0-6.3,0.8-8.8,2.4C39.2,47,39,47,38.8,47z"/><path d="M41.8,50.9c-0.2,0-0.3,0-0.5-0.1c-0.5-0.3-0.7-0.9-0.4-1.4c1.5-2.8,4.3-4.4,7.4-4.4c1.5,0,3,0.4,4.3,1.3  c0.5,0.3,0.6,0.9,0.3,1.4c-0.3,0.5-0.9,0.6-1.4,0.3c-1-0.6-2.1-0.9-3.3-0.9c-2.4,0-4.5,1.3-5.6,3.4C42.5,50.7,42.2,50.9,41.8,50.9z"/><path d="M48.7,50.2c-1.4,0-2.6-1.2-2.6-2.6s1.2-2.6,2.6-2.6s2.6,1.2,2.6,2.6S50.1,50.2,48.7,50.2z M48.7,47c-0.3,0-0.6,0.3-0.6,0.6  s0.3,0.6,0.6,0.6c0.3,0,0.6-0.3,0.6-0.6S49,47,48.7,47z"/><path d="M29.5,54.1c-1.4,0-2.6-1.2-2.6-2.6s1.2-2.6,2.6-2.6s2.6,1.2,2.6,2.6S30.9,54.1,29.5,54.1z M29.5,50.9  c-0.3,0-0.6,0.3-0.6,0.6s0.3,0.6,0.6,0.6s0.6-0.3,0.6-0.6S29.8,50.9,29.5,50.9z"/><path d="M25,53.4c-0.2,0-0.4-0.1-0.6-0.2c-0.4-0.3-0.5-1-0.1-1.4c2.4-2.9,5.8-3.8,9.1-2.4c0.5,0.2,0.7,0.8,0.5,1.3s-0.8,0.7-1.3,0.5  c-2.4-1.1-4.9-0.4-6.7,1.8C25.6,53.3,25.3,53.4,25,53.4z"/><path d="M23.6,50.2c-0.3,0-0.6-0.1-0.8-0.4c-0.3-0.4-0.2-1.1,0.2-1.4c1.5-1.1,3.2-1.7,5-1.7c1.8,0,3.4,0.5,4.8,1.6  c0.4,0.3,0.5,1,0.2,1.4c-0.3,0.4-1,0.5-1.4,0.2c-1.1-0.8-2.3-1.2-3.6-1.2c-1.4,0-2.7,0.4-3.8,1.3C24,50.1,23.8,50.2,23.6,50.2z"/><path d="M43.4,89.8c-2.4,0-4.7-0.6-6.2-1.7c-1-0.7-1.6-1.7-1.8-2.7l-3.2-9.8c-0.2-0.5,0.1-1.1,0.6-1.3c0.5-0.2,1.1,0.1,1.3,0.6  l3.2,9.9c0,0.1,0,0.1,0,0.2c0.1,0.7,0.6,1.2,1,1.5c1.6,1.1,4.5,1.6,7.3,1.1c2.8-0.4,7.7-2.5,15.3-9.6c3.6-3.5,5.2-6.3,5.5-7L68,59.7  c0.1-0.5,0.5-0.9,1-0.9c0.5,0,0.9,0.4,1,0.9c0.1,2.2,0.7,3,0.8,3c0,0,0.1,0,0.1,0c3,0,6.4-4.6,8-9c1.7-4.6,1.1-8.4-0.6-9.1  c-0.7-0.3-1.6,0.1-2.2,0.4c-0.5,0.3-1.1,0.1-1.4-0.4s-0.1-1.1,0.4-1.4c1.5-0.8,2.9-1,4-0.5c3,1.2,3.8,6.2,1.7,11.7  c-1.5,4.2-5.4,10.3-9.8,10.3c0,0-0.1,0-0.1,0l0,0c-0.4,0-0.9-0.1-1.3-0.5l-0.9,7.2c0,0.1,0,0.2-0.1,0.3c-0.1,0.1-1.6,3.5-6,7.7  c-7.9,7.5-13.3,9.7-16.3,10.2C45.2,89.7,44.3,89.8,43.4,89.8z"/><path d="M39.2,78.6c-1.8,0-3.4-0.3-4.7-1c-0.5-0.2-0.7-0.8-0.4-1.3c0.2-0.5,0.8-0.7,1.3-0.4c1.5,0.7,3.6,1,5.8,0.6  c2.2-0.4,4-1.2,5.2-2.2c0.4-0.4,1-0.3,1.4,0.1c0.4,0.4,0.3,1-0.1,1.4c-1.5,1.3-3.7,2.3-6.2,2.8C40.8,78.5,40,78.6,39.2,78.6z"/><path d="M31.7,65.3c0,0-0.1,0-0.1,0c-0.5-0.1-1-0.5-0.9-1.1l1.5-15c0.1-0.5,0.5-0.9,1.1-0.9c0.5,0.1,1,0.5,0.9,1.1l-1.5,15  C32.6,64.9,32.2,65.3,31.7,65.3z"/><path d="M34.4,67.9c-2,0-3.7-1.7-3.7-3.7c0-0.6,0.4-1,1-1s1,0.4,1,1c0,1,0.7,1.7,1.7,1.7c0.9,0,1.5-0.7,1.6-1.3  c0.1-0.5,0.7-0.8,1.2-0.7c0.5,0.1,0.8,0.7,0.7,1.2C37.5,66.8,36.1,67.9,34.4,67.9z"/><path d="M37.2,65.8c-0.3,0-0.7-0.2-0.9-0.5c-0.3-0.5-0.1-1.1,0.3-1.4c0.5-0.3,1.2-0.6,2.1-0.6c0.8,0,1.5,0.2,2.1,0.7  c0.4,0.3,0.5,1,0.2,1.4c-0.3,0.4-1,0.5-1.4,0.2c-0.3-0.2-0.6-0.3-0.9-0.3c-0.3,0-0.7,0.1-1.1,0.4C37.6,65.8,37.4,65.8,37.2,65.8z"/><path d="M47.1,53.8c-1,0-2-0.1-2.8-0.3c-0.5-0.1-0.9-0.7-0.7-1.2c0.1-0.5,0.7-0.9,1.2-0.7c0.7,0.2,1.5,0.3,2.4,0.3  c2.2,0,3.8-0.6,4.6-1.2c0.4-0.3,1.1-0.2,1.4,0.2c0.3,0.4,0.2,1.1-0.2,1.4C51.5,53.2,49.4,53.8,47.1,53.8z"/><path d="M27,58.1c-0.4,0-0.8-0.3-0.9-0.7c-0.2-0.5,0.1-1.1,0.6-1.3l5.6-2c0.5-0.2,1.1,0.1,1.3,0.6c0.2,0.5-0.1,1.1-0.6,1.3l-5.6,2  C27.2,58.1,27.1,58.1,27,58.1z"/><path d="M46.9,51.1c-0.4,0-0.8-0.3-0.9-0.7c-0.2-0.5,0.1-1.1,0.6-1.3l5.6-2c0.5-0.2,1.1,0.1,1.3,0.6c0.2,0.5-0.1,1.1-0.6,1.3l-5.6,2  C47.1,51.1,47,51.1,46.9,51.1z"/><path d="M56.4,53.4c-0.1,0-0.2,0-0.4-0.1l-1.8-0.7c-0.5-0.2-0.8-0.8-0.6-1.3c0.2-0.5,0.8-0.8,1.3-0.6l1.8,0.7  c0.5,0.2,0.8,0.8,0.6,1.3C57.2,53.2,56.8,53.4,56.4,53.4z"/><path d="M57.2,50.6H55c-0.6,0-1-0.4-1-1s0.4-1,1-1h2.2c0.6,0,1,0.4,1,1S57.8,50.6,57.2,50.6z"/><path d="M33.2,76.3c-0.3,0-0.6-0.2-0.8-0.4l-9-12.7c-0.1-0.1-0.2-0.3-0.2-0.5l-2.5-25.6c-0.1-0.5,0.3-1,0.9-1.1  c0.6-0.1,1,0.3,1.1,0.9l2.5,25.3l8.5,11.9l13.9-3.1c0.5-0.1,1.1,0.2,1.2,0.8s-0.2,1.1-0.8,1.2l-14.5,3.2  C33.3,76.3,33.3,76.3,33.2,76.3z"/><path d="M40.6,66c-0.6,0-1-0.4-1-1s0.4-1,1-1c0.8,0,1.5-0.7,1.5-1.5S41.4,61,40.6,61c-0.6,0-1-0.4-1-1s0.4-1,1-1  c2,0,3.5,1.5,3.5,3.5S42.6,66,40.6,66z"/><g><path d="M52.5,28.3c-0.6,0-1-0.4-1-1c0-5.6-4.5-10.1-10.1-10.1s-10.1,4.5-10.1,10.1c0,0.6-0.4,1-1,1s-1-0.4-1-1   c0-6.7,5.4-12.1,12.1-12.1s12.1,5.4,12.1,12.1C53.5,27.9,53.1,28.3,52.5,28.3z"/><path d="M34.4,26.6c-0.1,0-0.2,0-0.3,0c-0.5-0.1-0.9-0.7-0.7-1.2c1-3.7,4.2-6.2,8-6.2c3.5,0,6.6,2.2,7.7,5.6   c0.2,0.5-0.1,1.1-0.6,1.3c-0.5,0.2-1.1-0.1-1.3-0.6c-0.9-2.6-3.2-4.2-5.9-4.2c-2.8,0-5.3,2-6,4.8C35.3,26.3,34.8,26.6,34.4,26.6z"/><path d="M38.6,26.5c-0.1,0-0.3,0-0.4-0.1c-0.5-0.2-0.7-0.8-0.5-1.3c0.7-1.5,2.1-2.4,3.7-2.4c1.5,0,2.7,0.7,3.4,1.9   c0.3,0.5,0.1,1.1-0.4,1.4c-0.5,0.3-1.1,0.1-1.4-0.4c-0.4-0.7-1.1-0.9-1.6-0.9c-0.9,0-1.5,0.4-1.9,1.2C39.3,26.3,39,26.5,38.6,26.5z   "/></g><g><path d="M74.2,46.2c-0.3,0-0.6-0.2-0.8-0.5c-0.3-0.5-0.2-1.1,0.3-1.4c4.2-2.7,5.6-8.3,3.3-12.9c-1.2-2.4-3.3-4.3-5.9-5.1   c-2.6-0.9-5.3-0.7-7.7,0.6c-0.5,0.2-1.1,0.1-1.3-0.4c-0.2-0.5-0.1-1.1,0.4-1.3c2.9-1.5,6.2-1.7,9.2-0.7c3.1,1,5.6,3.2,7,6.1   c2.7,5.5,1,12.2-4.1,15.5C74.6,46.1,74.4,46.2,74.2,46.2z"/><path d="M73.1,42c-0.3,0-0.5-0.1-0.7-0.3c-0.4-0.4-0.4-1,0-1.4c1.8-1.8,2.3-4.7,1.1-7c-1.3-2.6-4-3.9-6.9-3.3   c-0.5,0.1-1.1-0.2-1.2-0.8c-0.1-0.5,0.2-1.1,0.8-1.2c3.8-0.8,7.5,0.9,9.1,4.3c1.6,3.1,1,6.9-1.5,9.3C73.6,41.9,73.4,42,73.1,42z"/><path d="M71.1,38.2c-0.2,0-0.3,0-0.5-0.1c-0.5-0.3-0.7-0.9-0.4-1.4c0.4-0.7,0.4-1.4,0.1-1.9c-0.4-0.8-1.1-1.2-1.9-1.2   c-0.6,0-1-0.4-1-1s0.4-1,1-1c1.6,0,3.1,0.9,3.7,2.3c0.6,1.1,0.6,2.5-0.1,3.8C71.8,38,71.5,38.2,71.1,38.2z"/></g><g><path d="M62.8,20.8c-0.6,0-1-0.4-1-1c0-5.6-4.5-10.1-10.1-10.1s-10.1,4.5-10.1,10.1c0,0.6-0.4,1-1,1s-1-0.4-1-1   c0-6.7,5.4-12.1,12.1-12.1s12.1,5.4,12.1,12.1C63.8,20.4,63.4,20.8,62.8,20.8z"/><path d="M44.8,19.1c-0.1,0-0.2,0-0.3,0c-0.5-0.1-0.9-0.7-0.7-1.2c1-3.7,4.2-6.2,8-6.2c3.5,0,6.6,2.2,7.7,5.6   c0.2,0.5-0.1,1.1-0.6,1.3c-0.5,0.2-1.1-0.1-1.3-0.6c-0.9-2.6-3.2-4.2-5.9-4.2c-2.8,0-5.3,2-6,4.8C45.7,18.8,45.2,19.1,44.8,19.1z"/><path d="M48.9,19c-0.1,0-0.3,0-0.4-0.1c-0.5-0.2-0.7-0.8-0.5-1.3c0.7-1.5,2.1-2.4,3.7-2.4c1.5,0,2.7,0.7,3.4,1.9   c0.3,0.5,0.1,1.1-0.4,1.4c-0.5,0.3-1.1,0.1-1.4-0.4c-0.4-0.7-1.1-0.9-1.6-0.9c-0.9,0-1.5,0.4-1.9,1.2C49.6,18.8,49.3,19,48.9,19z"/></g><g><path d="M71.8,28.8c-0.1,0-0.3,0-0.4-0.1c-0.5-0.2-0.7-0.8-0.5-1.3c1.2-2.5,1.3-5.3,0.4-7.8c-0.9-2.6-2.7-4.6-5.2-5.7   c-5.1-2.4-11.1-0.3-13.6,4.7c-0.2,0.5-0.8,0.7-1.3,0.5c-0.5-0.2-0.7-0.8-0.5-1.3c3-6,10.1-8.5,16.2-5.7c2.9,1.4,5.1,3.8,6.2,6.9   c1,3,0.9,6.4-0.5,9.3C72.5,28.6,72.2,28.8,71.8,28.8z"/><path d="M68.9,24.8c0,0-0.1,0-0.1,0c-0.5-0.1-0.9-0.6-0.9-1.1c0.3-2.5-1.1-5.1-3.5-6.3c-2.6-1.3-5.6-0.6-7.5,1.6   c-0.4,0.4-1,0.5-1.4,0.1c-0.4-0.4-0.5-1-0.1-1.4c2.5-3,6.5-3.8,9.9-2.2c3.1,1.6,5,5,4.6,8.3C69.8,24.4,69.4,24.8,68.9,24.8z"/><path d="M65,23c-0.5,0-0.9-0.3-1-0.8c-0.2-0.7-0.6-1.3-1.2-1.6c-0.6-0.3-1.6-0.2-2.2,0.3c-0.4,0.3-1.1,0.3-1.4-0.2   c-0.3-0.4-0.3-1.1,0.2-1.4c1.2-1,2.9-1.2,4.3-0.5c1.2,0.6,2,1.7,2.3,3c0.1,0.5-0.2,1.1-0.8,1.2C65.1,23,65.1,23,65,23z"/></g><g><path d="M21.7,38c-0.3,0-0.5-0.1-0.7-0.3c-2.3-2.3-3.6-5.3-3.7-8.5c-0.1-3.2,1.1-6.3,3.4-8.6c4.7-4.8,12.4-4.9,17.1-0.3   c0.4,0.4,0.4,1,0,1.4c-0.4,0.4-1,0.4-1.4,0C32.5,17.9,26,18,22.1,22c-1.9,1.9-2.9,4.5-2.8,7.2c0.1,2.7,1.2,5.2,3.1,7.1   c0.4,0.4,0.4,1,0,1.4C22.2,37.9,22,38,21.7,38z"/><path d="M23.3,33.8c-0.3,0-0.6-0.2-0.8-0.4c-2.1-3.1-1.7-7.4,1-10.1c2.4-2.5,6.2-3.2,9.3-1.7c0.5,0.2,0.7,0.8,0.5,1.3   c-0.2,0.5-0.8,0.7-1.3,0.5c-2.4-1.1-5.2-0.6-7,1.3c-2,2-2.4,5.2-0.8,7.6c0.3,0.5,0.2,1.1-0.3,1.4C23.7,33.7,23.5,33.8,23.3,33.8z"/><path d="M26.1,30.7c-0.4,0-0.8-0.3-0.9-0.7c-0.5-1.5-0.2-3,0.8-4.2c0.9-1,2.3-1.5,3.7-1.2c0.5,0.1,0.9,0.7,0.8,1.2   c-0.1,0.5-0.7,0.9-1.2,0.8c-0.5-0.1-1.2,0-1.7,0.6c-0.5,0.6-0.7,1.4-0.4,2.2c0.2,0.5-0.1,1.1-0.6,1.3   C26.3,30.7,26.2,30.7,26.1,30.7z"/></g><g><path d="M29.7,28c-0.4,0-0.8-0.2-0.9-0.6c-1.2-3-1-6.3,0.3-9.3c1.3-3,3.8-5.2,6.8-6.3c3-1.1,6.3-1,9.3,0.4c3,1.3,5.2,3.7,6.3,6.7   c0.2,0.5-0.1,1.1-0.6,1.3c-0.5,0.2-1.1-0.1-1.3-0.6c-0.9-2.5-2.8-4.5-5.3-5.6c-2.5-1.1-5.2-1.2-7.7-0.3c-2.5,0.9-4.5,2.8-5.7,5.3   c-1.1,2.5-1.2,5.2-0.2,7.7c0.2,0.5-0.1,1.1-0.6,1.3C29.9,28,29.8,28,29.7,28z"/><path d="M33,25c-0.5,0-0.9-0.4-1-0.9c-0.5-3.8,1.7-7.3,5.2-8.7c3.3-1.2,7-0.2,9.2,2.5c0.4,0.4,0.3,1.1-0.1,1.4   c-0.4,0.4-1.1,0.3-1.4-0.1c-1.7-2-4.5-2.8-7-1.9c-2.7,1-4.3,3.7-4,6.5c0.1,0.5-0.3,1-0.9,1.1C33.1,25,33,25,33,25z"/><path d="M36.9,23.4C36.9,23.4,36.8,23.4,36.9,23.4c-0.6,0-1-0.5-1-1.1c0.1-1.7,1.1-3,2.7-3.5c1.2-0.5,2.5-0.3,3.8,0.5   c0.5,0.3,0.6,0.9,0.3,1.4c-0.3,0.5-0.9,0.6-1.4,0.3c-0.7-0.5-1.3-0.6-2-0.3c-0.8,0.3-1.3,0.9-1.4,1.8C37.9,23,37.4,23.4,36.9,23.4z   "/></g><path d="M37.7,81.6c-0.5,0-1-0.4-1-0.9c0-0.6,0.4-1,0.9-1.1l8.3-0.5c0.5,0,1,0.4,1.1,0.9s-0.4,1-0.9,1.1L37.7,81.6  C37.7,81.6,37.7,81.6,37.7,81.6z"/><path d="M72.7,80.5c-0.5,0-1-0.4-1-1l-0.6-16c0-0.6,0.4-1,1-1c0.5-0.1,1,0.4,1,1l0.6,16C73.7,80,73.3,80.5,72.7,80.5  C72.7,80.5,72.7,80.5,72.7,80.5z"/><path d="M58.8,82.2c-0.5,0-0.9-0.4-1-0.9c-0.1-0.5,0.3-1,0.9-1.1L77.1,78c0.6-0.1,1,0.3,1.1,0.9c0.1,0.5-0.3,1-0.9,1.1l-18.4,2.2  C58.9,82.2,58.8,82.2,58.8,82.2z"/><g><path d="M61.5,30c-2.6,0-5.3-0.9-7.5-2.6c-5.2-4.1-6.1-11.8-2-17.1c0.3-0.4,1-0.5,1.4-0.2c0.4,0.3,0.5,1,0.2,1.4   c-3.4,4.4-2.7,10.9,1.6,14.3c4.4,3.5,10.7,2.7,14.2-1.6c0.3-0.4,1-0.5,1.4-0.2c0.4,0.3,0.5,1,0.2,1.4C68.6,28.4,65.1,30,61.5,30z"/><path d="M61.5,26.1c-1.8,0-3.6-0.6-5.1-1.8c-2.8-2.2-3.8-5.8-2.6-9.1c0.2-0.5,0.8-0.8,1.3-0.6c0.5,0.2,0.8,0.8,0.6,1.3   c-0.9,2.5-0.1,5.2,2,6.9c2.2,1.7,5.5,1.7,7.7,0c0.4-0.3,1.1-0.3,1.4,0.2c0.3,0.4,0.3,1.1-0.2,1.4C65.1,25.5,63.3,26.1,61.5,26.1z"/><path d="M61.2,22.3c-0.9,0-1.8-0.3-2.5-0.8c0,0-0.1,0-0.1-0.1c-1-0.9-1.6-2.2-1.4-3.5c0.1-0.5,0.6-0.9,1.1-0.9   c0.5,0.1,0.9,0.6,0.9,1.1c-0.1,0.6,0.2,1.2,0.7,1.7c0.7,0.4,1.6,0.5,2.2,0.2c0.5-0.2,1.1,0,1.3,0.4c0.2,0.5,0,1.1-0.4,1.3   C62.5,22.2,61.9,22.3,61.2,22.3z"/></g><g><path d="M70.6,37.9c-2.6,0-5.3-0.9-7.5-2.6c-2.5-2-4.1-4.9-4.5-8.1c-0.4-3.2,0.5-6.4,2.5-8.9c0.3-0.4,1-0.5,1.4-0.2   c0.4,0.3,0.5,1,0.2,1.4c-1.7,2.1-2.4,4.8-2.1,7.4c0.3,2.7,1.6,5.1,3.8,6.8c4.4,3.5,10.7,2.7,14.2-1.6c0.3-0.4,1-0.5,1.4-0.2   c0.4,0.3,0.5,1,0.2,1.4C77.7,36.3,74.2,37.9,70.6,37.9z"/><path d="M70.6,34c-1.8,0-3.6-0.6-5.1-1.8c-2.8-2.2-3.8-5.8-2.6-9.1c0.2-0.5,0.8-0.8,1.3-0.6c0.5,0.2,0.8,0.8,0.6,1.3   c-0.9,2.5-0.1,5.2,2,6.9c2.2,1.7,5.5,1.7,7.7,0c0.4-0.3,1.1-0.3,1.4,0.2c0.3,0.4,0.3,1.1-0.2,1.4C74.2,33.4,72.4,34,70.6,34z"/><path d="M70.3,30.2c-0.9,0-1.8-0.3-2.5-0.8c0,0-0.1,0-0.1-0.1c-1-0.9-1.6-2.2-1.4-3.5c0.1-0.5,0.5-0.9,1.1-0.9   c0.5,0.1,0.9,0.6,0.9,1.1c-0.1,0.6,0.2,1.2,0.7,1.7c0.7,0.4,1.6,0.5,2.2,0.2c0.5-0.2,1.1,0,1.3,0.4c0.2,0.5,0,1.1-0.4,1.3   C71.6,30.1,71,30.2,70.3,30.2z"/></g><g><path d="M73.1,42c-0.1,0-0.2,0-0.3-0.1L61.5,38c-0.5-0.2-0.8-0.7-0.6-1.3c0.2-0.5,0.7-0.8,1.3-0.6l11.3,3.9   c0.5,0.2,0.8,0.7,0.6,1.3C73.9,41.7,73.5,42,73.1,42z"/><path d="M73.6,46c-0.1,0-0.2,0-0.3-0.1L62.1,42c-0.5-0.2-0.8-0.8-0.6-1.3c0.2-0.5,0.7-0.8,1.3-0.6l11.2,3.9   c0.5,0.2,0.8,0.8,0.6,1.3C74.4,45.7,74,46,73.6,46z"/><path d="M71,49c-0.1,0-0.2,0-0.3-0.1l-6.3-2.1c-0.5-0.2-0.8-0.7-0.6-1.3c0.2-0.5,0.7-0.8,1.3-0.6l6.3,2.1c0.5,0.2,0.8,0.7,0.6,1.3   C71.8,48.7,71.4,49,71,49z"/><path d="M68.9,52.1c-0.1,0-0.2,0-0.2,0l-1.3-0.3c-0.5-0.1-0.9-0.7-0.8-1.2s0.7-0.9,1.2-0.8l1.3,0.3c0.5,0.1,0.9,0.7,0.8,1.2   C69.8,51.8,69.4,52.1,68.9,52.1z"/></g><path d="M71,58.4c-0.4,0-0.8-0.3-0.9-0.7c-0.2-0.5,0.1-1.1,0.6-1.3l3.1-1L71,53c-0.3-0.3-0.4-0.6-0.3-1c0.1-0.4,0.4-0.6,0.8-0.7  l3.2-0.6l-0.8-2.4c-0.2-0.5,0.1-1.1,0.7-1.3c0.5-0.2,1.1,0.1,1.3,0.7l1.1,3.5c0.1,0.3,0.1,0.6-0.1,0.8c-0.1,0.2-0.4,0.4-0.7,0.5  l-2.3,0.4l2.6,2.2c0.3,0.2,0.4,0.6,0.3,0.9c-0.1,0.4-0.3,0.6-0.7,0.8l-4.8,1.6C71.2,58.4,71.1,58.4,71,58.4z"/><path d="M29.9,74.9c-0.2,0-0.4-0.1-0.6-0.2c-0.4-0.3-0.6-0.9-0.2-1.4l3.5-4.9c0.2-0.2,0.5-0.4,0.8-0.4c0.3,0,0.6,0.1,0.8,0.3  l1.4,1.6l2.2-3.3c0.2-0.3,0.5-0.4,0.8-0.4c0.3,0,0.6,0.1,0.8,0.3l1.9,2.1l2.9-3.2c0.3-0.4,0.9-0.4,1.4-0.1l4.4,3.4  c0.4,0.3,0.5,1,0.2,1.4c-0.3,0.4-1,0.5-1.4,0.2l-3.7-2.8l-3,3.3c-0.2,0.2-0.5,0.3-0.7,0.3c0,0,0,0,0,0c-0.3,0-0.6-0.1-0.7-0.3  l-1.7-1.9l-2.2,3.2c-0.2,0.3-0.4,0.4-0.8,0.4c-0.3,0-0.6-0.1-0.8-0.3l-1.5-1.6l-2.8,3.9C30.5,74.8,30.2,74.9,29.9,74.9z"/><text x="0" y="115" fill="#000000" font-size="5px" font-weight="bold" font-family="'Helvetica Neue', Helvetica, Arial-Unicode, Arial, Sans-serif">Created by Ariel Kotzer</text><text x="0" y="120" fill="#000000" font-size="5px" font-weight="bold" font-family="'Helvetica Neue', Helvetica, Arial-Unicode, Arial, Sans-serif">from the Noun Project</text></svg>